<svg xmlns="http://www.w3.org/2000/svg" viewBox="0 0 1071.91 1072"><title>Asset 38</title><g id="Layer_2" data-name="Layer 2"><g id="assets"><path d="M527.31,1072c-69.53,0-134.08-57-181.75-160.6C299.31,810.92,273.84,677.6,273.84,536s25.47-274.92,71.73-375.4C393.24,57,457.78,0,527.31,0S661.39,57,709.07,160.6c46.25,100.48,71.73,233.8,71.73,375.4s-25.47,274.92-71.73,375.4C661.39,1015,596.85,1072,527.31,1072Zm0-1047C498,25,469.3,37.73,442,62.84s-52.27,61.65-73.7,108.21C323.5,268.33,298.84,397.93,298.84,536s24.66,267.67,69.44,364.94c21.43,46.57,46.23,83,73.7,108.21S498,1047,527.31,1047s58-12.73,85.34-37.84,52.27-61.65,73.7-108.21c44.78-97.27,69.44-226.88,69.44-364.94s-24.66-267.67-69.44-364.94c-21.43-46.56-46.23-83-73.7-108.21S556.61,25,527.31,25Z"/><path d="M264.89,959.06c-47.5,0-86.31-13.78-113.7-41.17-49.17-49.17-54.48-135.14-15-242.08,38.34-103.76,114.6-216,214.73-316.16S563.37,183.26,667.12,144.92c106.94-39.52,192.92-34.21,242.08,15S963.68,295,924.16,402c-38.34,103.76-114.6,216-214.73,316.16S497,894.5,393.27,932.84C345.9,950.35,302.65,959.06,264.89,959.06ZM795.29,143.77c-35.15,0-75.29,8.26-119.5,24.59-100.44,37.12-209.53,111.33-307.15,209S196.8,584,159.68,684.48c-17.77,48.08-26,91.36-24.4,128.63,1.57,37.08,12.87,66.39,33.59,87.11s50,32,87.1,33.59c37.27,1.58,80.55-6.63,128.63-24.4,100.44-37.12,209.52-111.33,307.15-209s171.84-206.71,209-307.15c17.77-48.08,26-91.36,24.4-128.63-1.57-37.08-12.87-66.39-33.59-87.1s-50-32-87.11-33.59Q799.92,143.77,795.29,143.77Z"/><path d="M522.45,789.58c-135.18,0-262.15-23.39-359.19-66.35C59,677.07,1,613.37,0,543.85s55.07-134.9,157.92-184.08c99.79-47.72,232.72-75.14,374.31-77.21S807.51,304,908.65,348.77c104.25,46.15,162.23,109.86,163.25,179.38S1016.83,663.05,914,712.24C814.18,760,681.25,787.38,539.67,789.45l-.18-12.5.18,12.5C533.92,789.53,528.16,789.58,522.45,789.58Zm27.07-482.15q-8.44,0-16.91.12c-138.05,2-267.28,28.58-363.89,74.77-46.25,22.11-82.29,47.44-107.12,75.28s-37,56.59-36.59,85.89S38.59,601.3,64.1,628.26s62.41,51.36,109.28,72.11c97.92,43.35,227.87,66.1,365.92,64.08s267.28-28.57,363.89-74.77c46.25-22.11,82.29-47.44,107.12-75.28s37-56.59,36.59-85.89-13.58-57.82-39.09-84.78-62.41-51.36-109.28-72.11C804.63,330.06,681.24,307.42,549.52,307.42Z"/><path d="M798.39,961.94c-37.76,0-81-8.71-128.38-26.21C566.25,897.38,454,821.12,353.84,721S177.46,508.59,139.11,404.83c-39.52-106.94-34.21-192.92,15-242.08s135.14-54.48,242.08-15c103.76,38.34,216,114.6,316.16,214.73S888.69,574.93,927,678.69c39.52,106.94,34.21,192.92-15,242.08C884.7,948.16,845.88,961.94,798.39,961.94ZM268,146.65q-4.62,0-9.13.19c-37.08,1.57-66.39,12.87-87.1,33.59s-32,50-33.59,87.1c-1.58,37.27,6.63,80.55,24.4,128.63,37.12,100.44,111.33,209.52,209,307.15s206.71,171.84,307.15,209c48.08,17.77,91.36,26,128.63,24.4,37.08-1.57,66.39-12.87,87.1-33.59s32-50,33.59-87.1c1.58-37.27-6.63-80.55-24.4-128.63-37.12-100.44-111.33-209.52-209-307.15s-206.71-171.84-307.15-209C343.27,154.91,303.13,146.65,268,146.65Z"/><path d="M526.17,708.81q-3.42,0-6.9-.12c-58-2-99.58-28.71-119.2-44.44l-3.75-3V421.34l3.61-3c20.49-17,54.66-38.56,101.14-44.47,34.35-4.37,68.65.63,102,14.86a213.9,213.9,0,0,1,49.58,29.51l3.73,3v240l-3.75,3C635.53,677.92,589.83,708.81,526.17,708.81ZM416.34,651.57C435.27,665.9,471.18,687,520,688.71c56.32,2,98-23.34,116.38-37.15V430.92C617.92,417,568,385.52,503.61,393.71c-39.09,5-68.55,22.32-87.27,37.09Z"/><path d="M525.49,502.33a259.34,259.34,0,0,1-118.2-28l9.13-17.8c23.43,12,61.81,26.24,111.46,25.78,53.9-.51,94.31-18.67,113.61-29.45l9.76,17.46c-25.6,14.31-67.75,31.47-123.17,32Z"/><path d="M522.65,574.58c-53.35,0-94.71-12.6-120.17-23.26l7.73-18.45c24.15,10.12,63.7,22.11,114.9,21.7,55.59-.43,97.23-15.71,117.1-24.79L650.51,548c-26,11.89-68.92,26.16-125.25,26.59Z"/><path d="M523.9,642.08c-54.31,0-96.3-15.49-122-28.54l9-17.84c23.78,12.06,62.62,26.38,113,26.38h1.16c55.27-.24,96.79-18.23,116.62-28.94l9.5,17.6c-26.23,14.16-69.39,31.09-126,31.34Z"/><rect x="217.85" y="228.54" width="38" height="38"/><rect x="808.3" y="228.54" width="38" height="38"/><rect x="808.3" y="816.98" width="38" height="38"/><rect x="214.09" y="816.98" width="38" height="38"/></g></g></svg>