<svg xmlns="http://www.w3.org/2000/svg" viewBox="0 0 1067.2 941.2"><title>Asset 37</title><g id="Layer_2" data-name="Layer 2"><g id="assetsmanagement"><path d="M189.2,941.2H4.2V486.82A41.66,41.66,0,0,1,45.82,445.2H147.59a41.66,41.66,0,0,1,41.62,41.62Zm-160-25h135V486.82a16.64,16.64,0,0,0-16.62-16.62H45.82A16.64,16.64,0,0,0,29.2,486.82Z"/><path d="M408.2,941.2h-185V307.07a46.92,46.92,0,0,1,46.86-46.86h91.27a46.92,46.92,0,0,1,46.86,46.86Zm-160-25h135V307.07a21.89,21.89,0,0,0-21.86-21.86H270.07a21.89,21.89,0,0,0-21.86,21.86Z"/><path d="M629.61,941.2h-185V404.46a44.18,44.18,0,0,1,44.13-44.13h96.74a44.18,44.18,0,0,1,44.13,44.13Zm-160-25h135V404.46a19.15,19.15,0,0,0-19.13-19.13H488.75a19.15,19.15,0,0,0-19.13,19.13Z"/><path d="M849.2,941.2h-185V328.48a46.33,46.33,0,0,1,46.28-46.28h92.44a46.33,46.33,0,0,1,46.28,46.28Zm-160-25h135V328.48a21.31,21.31,0,0,0-21.28-21.28H710.48a21.31,21.31,0,0,0-21.28,21.28Z"/><path d="M1067.2,941.2h-185V188.12a50,50,0,0,1,49.92-49.92h85.16a50,50,0,0,1,49.92,49.92Zm-160-25h135V188.12a25,25,0,0,0-24.92-24.92H932.12a25,25,0,0,0-24.92,24.92Z"/><path d="M621.34,309.4,332.62,147,42.7,305.67a12.5,12.5,0,1,1-12-21.93L332.79,118.41,620.07,280,991.66,26.38A12.5,12.5,0,1,1,1005.75,47Z"/><circle cx="36.7" cy="294.7" r="36.7"/><circle cx="333.7" cy="134" r="36.7"/><circle cx="621.11" cy="293.7" r="36.7"/><circle cx="998.7" cy="36.7" r="36.7"/></g></g></svg>