<svg xmlns="http://www.w3.org/2000/svg" viewBox="0 0 798.48 1058.66"><title>Asset 39</title><g id="Layer_2" data-name="Layer 2"><g id="AuthorizedReseller"><path d="M403.13,334.35c92.18,0,167.17-75,167.17-167.17S495.31,0,403.13,0,236,75,236,167.17,311,334.35,403.13,334.35Zm0-293A125.79,125.79,0,1,1,277.34,167.17,125.93,125.93,0,0,1,403.13,41.38Z"/><path d="M107.73,701.29a20.69,20.69,0,0,0,20.69-20.69V627.33c0-120.76,98.25-219,219-219H461.36c121.58,0,220.49,98.91,220.49,220.49V680.6a20.69,20.69,0,0,0,41.38,0V628.81c0-69.68-27.31-135.37-76.91-185s-115.28-76.91-185-76.91H347.43c-69.29,0-134.6,27.16-183.92,76.47S87,558,87,627.33V680.6A20.69,20.69,0,0,0,107.73,701.29Z"/><path d="M676.83,772.84,633.34,656.71a20.69,20.69,0,1,0-38.75,14.51l43.49,116.13a20.69,20.69,0,1,0,38.75-14.51Z"/><path d="M214.13,639.46a19,19,0,0,0-25.07,9.06L137.48,758.35a18.51,18.51,0,0,0,9.21,24.72A19,19,0,0,0,171.75,774l51.58-109.83A18.51,18.51,0,0,0,214.13,639.46Z"/><path d="M77.72,879.17a75.74,75.74,0,1,0,73.73,77.69A75.82,75.82,0,0,0,77.72,879.17ZM74.62,997.5A42.63,42.63,0,1,1,118.36,956,42.68,42.68,0,0,1,74.62,997.5Z"/><path d="M726.83,899.39a75.74,75.74,0,1,0,71.54,79.72A75.82,75.82,0,0,0,726.83,899.39Zm-6.39,118.2a42.63,42.63,0,1,1,44.87-40.27A42.68,42.68,0,0,1,720.44,1017.58Z"/><path d="M672.29,868.07a20.69,20.69,0,0,0,38-16.48l-10.32-23.77a20.69,20.69,0,0,0-38,16.48Z"/><path d="M139.92,807.27a20.69,20.69,0,0,0-28.12,8.08l-10.14,18.32a20.69,20.69,0,1,0,36.2,20L148,835.39A20.69,20.69,0,0,0,139.92,807.27Z"/><path d="M404.13,711.3c-77.87,0-141.21-63.35-141.21-141.21s63.35-141.21,141.21-141.21,141.21,63.35,141.21,141.21S482,711.3,404.13,711.3Zm0-257.42A116.21,116.21,0,1,0,520.35,570.09,116.34,116.34,0,0,0,404.13,453.87Z"/><polygon points="301.72 665.29 255.81 779.83 321.13 757.2 352.17 819.28 399.38 704.81 301.72 665.29"/><polygon points="406.49 704.81 453.06 819.28 484.1 757.2 549.42 778.54 504.8 667.95 406.49 704.81"/><path d="M404.61,473.82a95.23,95.23,0,1,0,95.23,95.23A95.23,95.23,0,0,0,404.61,473.82Zm44.12,72.24-38.94,62.68c-.12.57-1.58,7-7.6,9.5A13.35,13.35,0,0,1,387,614l-35.14-30.39c-3.12-5.69-1.73-12.59,2.85-16.15a12.5,12.5,0,0,1,13.3-.95l27.54,22.79,38-52.71c8.87-10.67,17.52-16.63,20.42-14.72S454.81,533.92,448.73,546.06Z"/><path d="M433.73,915.57a75.74,75.74,0,1,0,32.74,102A75.82,75.82,0,0,0,433.73,915.57Zm-54.11,105.28A42.63,42.63,0,1,1,437,1002.42,42.68,42.68,0,0,1,379.62,1020.85Z"/><path d="M381.73,871.71a20.69,20.69,0,0,0,41.38.46l.29-25.91A20.69,20.69,0,0,0,382,845.8Z"/></g></g></svg>