<svg xmlns="http://www.w3.org/2000/svg" viewBox="0 0 1615.04 994.34"><title>Asset 28</title><g id="Layer_2" data-name="Layer 2"><g id="cloudbackupDR"><path d="M1282.79,994.34H337.42l-.62-.05a384.4,384.4,0,0,1-92.7-19.81C191.82,956.32,145.86,927.9,107.5,890a350.51,350.51,0,0,1-68.87-95.92,379.05,379.05,0,0,1-31-93.29C-3.28,645.33.31,601.48,1.67,589.36c1.82-16.25,8.45-59.44,30.54-109.52C62.61,411,109.07,357.35,170.31,320.48c85.36-51.38,171.51-53.09,222.36-47.69A377.4,377.4,0,0,1,417.8,205.2,362.17,362.17,0,0,1,499.21,95.52a377.61,377.61,0,0,1,86.22-58.94C639.22,9.91,696.17-2.28,754.72.35c60.56,2.72,118,21,170.66,54.34A364.19,364.19,0,0,1,992.49,109a287.43,287.43,0,0,1,66.83-20.36c54.17-9.54,106-3.12,154,19.06,105.86,48.9,137.81,150.19,145.55,182.86a370.79,370.79,0,0,1,187,134.94c47.71,65.54,72.16,145.24,68.86,224.44-7.43,178.17-149.82,326.19-331.21,344.3Zm-944.11-30h942.61c166.27-17,296.68-152.53,303.48-315.62,6.23-149.26-95.95-288.88-242.95-332l-8.92-2.61-1.63-9.15c-1-5.61-6.94-35.36-25.87-70.24-24.72-45.54-59.93-79.11-104.65-99.77-42.36-19.57-88.2-25.2-136.23-16.75C1028.46,124.55,1003,137,996,140.62l-10.35,5.44-7.8-8.71c-21.23-23.69-100.15-101.43-224.5-107C634.14,25,550.08,89.6,519.48,117.64c-67.14,61.51-92,136.05-100.8,175l-3.06,13.52-13.72-2c-44-6.4-130.61-9.45-216.11,42C56.52,424,34.57,565.19,31.48,592.7,30.24,603.75,27,643.76,37,695c13.42,68.47,44.23,126.89,91.55,173.64C203.44,942.6,292.09,960.36,338.68,964.34Z"/><path d="M228,461.34a10,10,0,0,1-7.67-16.42,174.05,174.05,0,0,1,154.86-61.51,10,10,0,1,1-2.38,19.86,154.05,154.05,0,0,0-137.14,54.49A10,10,0,0,1,228,461.34Z"/><path d="M534,258.34a10,10,0,0,1-8.76-14.8A241,241,0,0,1,748.52,118.35a10,10,0,0,1-1,20A221,221,0,0,0,542.82,253.14,10,10,0,0,1,534,258.34Z"/><path d="M883.05,194.34a10,10,0,0,1-8.71-5.08,59,59,0,0,0-53.87-29.93,10,10,0,0,1-.84-20,79,79,0,0,1,72.13,40.07,10,10,0,0,1-8.7,14.92Z"/><path d="M1148.05,355.34a10,10,0,0,1-5.39-18.43,138.46,138.46,0,0,1,81.9-21.56,10,10,0,0,1-1.05,20,118.46,118.46,0,0,0-70.1,18.44A10,10,0,0,1,1148.05,355.34Z"/><path d="M1219.42,869.34H1218a10,10,0,0,1,.08-20h1.42c26.64,0,111.46-6,175.15-76.7,53.24-59.11,59.3-128.33,59.43-155.36a10,10,0,0,1,10-10h0a10,10,0,0,1,10,10c-.14,29.31-6.72,104.43-64.57,168.64C1340.3,862.82,1248.31,869.34,1219.42,869.34Z"/><path d="M808.78,872.46a283.72,283.72,0,0,1-29.26-1.5c-53.13-5.52-99.79-25.29-138.67-58.76C604.68,781.05,579,741.26,564.5,693.93a266,266,0,0,1-12-74.52,12.5,12.5,0,0,1,3.71-9,12.64,12.64,0,0,1,9-3.61l61,1a12.5,12.5,0,0,1,12.25,11.48c0,.28,2.49,28.72,17.08,62.13,18.45,42.22,47,72.7,84.8,90.6A190.55,190.55,0,0,0,818,789.12a153,153,0,0,0,77.78-20.59C961.05,730.6,973.39,659,975.61,638c1.69-15.94,6.75-98.25-59.54-153.05-36.33-30-77.34-37.36-107.42-37.74l45.77,21.82a12.5,12.5,0,0,1,6.2,16l-22,54a12.5,12.5,0,0,1-16.79,6.64l-185-85a12.5,12.5,0,0,1-5.26-18.18l108-166A12.5,12.5,0,0,1,757,273l49,33a12.5,12.5,0,0,1,3.37,17.38l-26.9,39.71a310.63,310.63,0,0,1,60.86,2.78c61.21,8.92,114.43,36.24,153.88,79a261.36,261.36,0,0,1,64.25,127c9.63,49.1,4.83,99-13.88,144.21-49.69,120.13-173.13,148.62-187,151.47A264.61,264.61,0,0,1,808.78,872.46ZM578.06,632.05c2.43,34.31,15.47,106.41,79.1,161.19C738,862.83,836.58,847,855.53,843.09c12.58-2.58,124.21-28.32,169-136.53,33.87-81.89,16-178-45.64-244.75-87.26-94.62-214.16-72.19-219.52-71.19a12.5,12.5,0,0,1-12.64-19.3l35-51.62L753.6,300.8,660.41,444l160,73.5,12.62-31-75.35-35.92a12.5,12.5,0,0,1,2.43-23.43,211.57,211.57,0,0,1,62-4.5c42,3,79,17.46,109.9,43,76.12,62.95,70.39,156.78,68.46,174.95a221.56,221.56,0,0,1-17.09,63.91c-16.38,37.37-41.64,66.16-75.06,85.58-31,18-62.4,23.91-90.11,23.91-44,0-78.86-14.86-88.51-19.42-42.83-20.26-76.38-55.94-97-103.19a255.26,255.26,0,0,1-17.57-58.79Z"/></g></g></svg>