<svg xmlns="http://www.w3.org/2000/svg" viewBox="0 0 1398.05 1048.61"><defs><style>.cls-1{fill:none;stroke:#000;stroke-miterlimit:10;}</style></defs><title>Asset 59</title><g id="Layer_2" data-name="Layer 2"><g id="cloudsecurity"><path d="M827.48,637H804.87V555.91a55.33,55.33,0,0,0-55.26-55.26h-69A53.7,53.7,0,0,0,627,554.29V637H609.45a33,33,0,0,0-32.89,32.89V818.28A30.85,30.85,0,0,0,607.32,849H827.76a30.58,30.58,0,0,0,30.49-30.49V667.8A30.85,30.85,0,0,0,827.48,637ZM727.78,762.8v29.68a11.12,11.12,0,1,1-22.24,0V762.8a18.53,18.53,0,1,1,22.24,0ZM775.22,637H656.61V554.29a24,24,0,0,1,24-24h69a25.64,25.64,0,0,1,25.61,25.61Z"/><path class="cls-1" d="M328.86,228.7"/><path d="M1159.61,774.37c-37.8,0-67-7.51-76.9-10.41a18.56,18.56,0,1,1,10.47-35.61c18.16,5.34,112.73,28.92,191.21-31.25,25-19.2,82.57-71.92,76-146.73-5.79-66.19-57.47-106.69-87.77-124.95-77.07-46.45-160.2-19.71-176.08-13.88a18.56,18.56,0,0,1-23.12-25.45c11-22.88,44-104.62,7.48-195.68C1044.48,99.57,963.34,62.73,930.14,51.11c-94.05-32.94-177.25-.71-218.48,21.44-103.4,55.54-136.4,156.6-144,186.25a18.56,18.56,0,0,1-31.84,7.69C498.84,224.9,438.35,213.91,392,240.36,340.82,269.51,320.88,338,347.52,393a18.56,18.56,0,0,1-25.68,24.32c-14.43-8-90.52-46-172.18-10.56C92.2,431.72,35.13,491.28,37.16,568.17c2.2,82.88,70.71,140.41,133.43,158.8,64.56,18.93,121.71-4.74,143.28-15.79a18.56,18.56,0,1,1,16.92,33c-25.53,13.08-93.27,41.06-170.64,18.37-75.22-22-157.4-92-160.09-193.43C-2.43,475,66,402.64,134.9,372.75c65.07-28.22,126.87-17.62,165.89-4.62A156.86,156.86,0,0,1,305,295.49c11.26-37.56,35.62-68.58,68.57-87.37,52.67-30,118.78-24,167.17,12.65,17.68-48.19,60.13-130.83,153.36-180.91a342.93,342.93,0,0,1,96-34.22C842.49-4.48,893.74-1,942.41,16.08c38,13.3,130.85,55.56,173,160.51,30.65,76.41,19,147,5.42,190a273.36,273.36,0,0,1,36.71-4.7c49.34-2.89,94.53,7.79,134.31,31.77a250.67,250.67,0,0,1,54.76,44c30.2,32.42,47.3,69.28,50.82,109.55,8.14,93.12-60.52,156.49-90.42,179.41C1257.45,764.5,1202.91,774.36,1159.61,774.37Z"/><path class="cls-1" d="M294.82,753.15"/><path d="M717.61,1048.61l-7.24-3c-63.33-25.9-118-63.08-162.58-110.5-39-41.53-69.59-90.46-90.87-145.43-17.28-44.63-28.55-93.5-33.5-145.25-8.12-84.83,2.88-154.71,8-180.81l2-10.19L716.6,347.76l286.6,105,1.92,10.42c5.94,32.26,14.68,98.33,6.43,178.42-5.21,50.57-16.47,98.53-33.48,142.57-20.89,54.09-50.64,102.67-88.42,144.4-45,49.68-100.44,89-164.86,117ZM466,480.91c-10.62,62.61-33.91,276.88,108.85,428.83,39.19,41.71,87,74.83,142.35,98.53,56.48-25.58,105.21-60.76,144.94-104.65,136.52-150.8,120-350.91,108.28-423.39L716.72,387.32Z"/></g></g></svg>