<svg xmlns="http://www.w3.org/2000/svg" viewBox="0 0 1512.54 1025.21"><title>Asset 18</title><g id="Layer_2" data-name="Layer 2"><g id="cloudsolution"><path d="M1038.39,780.51a85.26,85.26,0,0,0-64.59,29.61L860.62,755.25a107.81,107.81,0,0,0,1.44-43.37L975,638.82a74.62,74.62,0,1,0-19.49-33.65L848.33,674.51A109.49,109.49,0,0,0,801.95,632l40.38-111.81c.63,0,1.24.09,1.87.09A74.05,74.05,0,1,0,805.08,509L764.37,621.71c-3.14-.27-6.3-.44-9.51-.44a108.33,108.33,0,0,0-73.11,28.31,19.13,19.13,0,0,0-1.64-2.29L577.62,530.66a74.06,74.06,0,1,0-25,30.43l98.28,111.83a19.18,19.18,0,0,0,8.24,5.43,108.54,108.54,0,0,0,12.07,121.13l-83.08,71.62a85.55,85.55,0,1,0,25.15,29.6l88.16-76A108.58,108.58,0,0,0,845,790.83L955.67,844.5a85.45,85.45,0,1,0,82.72-64Zm-11.65-229.16a35,35,0,1,1-35,35A35,35,0,0,1,1026.74,551.36ZM844.19,411.53a35,35,0,1,1-35,35A35,35,0,0,1,844.19,411.53ZM541.45,516.36c-.46.34-.95.61-1.38,1a19.22,19.22,0,0,0-5.56,8.55,35.2,35.2,0,1,1,6.94-9.54Zm-4.1,470A46.61,46.61,0,1,1,584,939.76,46.66,46.66,0,0,1,537.35,986.37ZM754.86,799.93a69.5,69.5,0,0,1-39.27-12.11c-.15-.18-.24-.39-.4-.57a19.28,19.28,0,0,0-6.52-4.89,69.8,69.8,0,1,1,46.19,17.57Zm283.53,112.64A46.61,46.61,0,1,1,1085,866,46.66,46.66,0,0,1,1038.39,912.57Z"/><path d="M1254.57,837.78c-40.89,0-72.52-8.13-83.2-11.27A20.08,20.08,0,0,1,1182.69,788c19.65,5.78,122,31.28,206.87-33.81,27.09-20.77,89.33-77.81,82.26-158.74-6.26-71.61-62.18-115.43-95-135.18-83.38-50.25-173.32-21.33-190.5-15a20.08,20.08,0,0,1-25-27.54c11.89-24.76,47.61-113.19,8.09-211.7C1130,107.73,1042.23,67.87,1006.32,55.29,904.56,19.66,814.55,54.53,770,78.48,658.08,138.58,622.38,247.91,614.11,280a20.08,20.08,0,0,1-34.45,8.32c-40-45-105.41-56.88-155.61-28.26C368.73,291.58,347.16,365.68,376,425.22a20.08,20.08,0,0,1-27.78,26.32c-15.61-8.63-97.94-49.74-186.28-11.42C99.75,467.08,38,531.52,40.21,614.7c2.38,89.67,76.5,151.91,144.36,171.8,69.85,20.48,131.68-5.13,155-17.08a20.08,20.08,0,0,1,18.31,35.73C330.27,819.31,257,849.58,173.27,825,91.89,801.18,3,725.52.07,615.77c-2.7-101.91,71.32-180.16,145.87-212.49,70.4-30.53,137.25-19.06,179.47-5A169.71,169.71,0,0,1,330,319.69c12.19-40.63,38.53-74.2,74.19-94.53,57-32.49,128.51-25.93,180.86,13.68C604.16,186.7,650.08,97.3,750.95,43.11a371,371,0,0,1,103.81-37C911.48-4.85,966.93-1,1019.59,17.4c41.09,14.39,141.56,60.11,187.12,173.66,33.16,82.66,20.51,159,5.86,205.53a295.74,295.74,0,0,1,39.71-5.08c53.38-3.13,102.27,8.43,145.31,34.37a271.2,271.2,0,0,1,59.24,47.55c32.68,35.08,51.18,75,55,118.52,8.81,100.74-65.48,169.3-97.83,194.1C1360.43,827.11,1301.42,837.78,1254.57,837.78Z"/></g></g></svg>