<svg xmlns="http://www.w3.org/2000/svg" viewBox="0 0 1585.16 1031.38"><title>Asset 30</title><g id="Layer_2" data-name="Layer 2"><g id="cloudmigration"><path d="M699.9,1023.55q-.71,0-1.42-.06l-277.16-21.86a18,18,0,0,1-15.84-23.13l76.83-256.28a18,18,0,0,1,32.2-4.89l55,81.59A420.45,420.45,0,0,0,748.9,480.49a18,18,0,0,1,34.92-5C800.61,522,823.61,616.34,789,725.84,759.21,820.24,700.62,880.71,661,912.72l54,83a18,18,0,0,1-15.09,27.85ZM446.4,967.47,664.83,984.7l-43.14-66.25a18,18,0,0,1,4.45-24.36c35-25.64,98.19-83,128.54-179.09a351.64,351.64,0,0,0,14.67-140.11A455.7,455.7,0,0,1,574.25,839a18,18,0,0,1-24.62-5.12L505.89,769Z"/><path d="M825.16,1031.38h-.66a18,18,0,0,1-17.1-15c-8.31-48.72-14.29-145.63,39.09-247.3,46-87.65,114.38-136.81,159.07-161.32L967,516.57a18,18,0,0,1,21.16-24.44l268.94,70.48a18,18,0,0,1,11.5,25.57l-120.9,238.68a18,18,0,0,1-32.55-.87l-39.7-90a420.44,420.44,0,0,0-232.84,281.72A18,18,0,0,1,825.16,1031.38Zm189.3-495.12,30.76,72.83a18,18,0,0,1-8.68,23.19c-39,19.06-111.32,64.36-158.16,153.57A351.63,351.63,0,0,0,839.2,921.16a455.69,455.69,0,0,1,238.68-225.55,18,18,0,0,1,23.33,9.39l31.59,71.62,93.61-184.82Z"/><path d="M1314.8,878c-42.86,0-76-8.52-87.19-11.81a21,21,0,0,1,11.87-40.37c20.59,6.05,127.81,32.79,216.8-35.44,28.39-21.77,93.62-81.55,86.21-166.36-6.56-75-65.16-121-99.51-141.67-87.39-52.66-181.64-22.35-199.65-15.74a21,21,0,0,1-26.22-28.86c12.46-25.95,49.9-118.63,8.48-221.86-41.32-103-133.32-144.77-171-157.95-106.64-37.35-201-.8-247.71,24.3-117.24,63-154.65,177.56-163.32,211.18a21,21,0,0,1-36.1,8.72C565.6,255,497,242.54,444.41,272.53c-58,33.05-80.58,110.71-50.38,173.11a21,21,0,0,1-29.12,27.58c-16.36-9-102.64-52.13-195.22-12C104.54,489.5,39.83,557,42.14,644.21c2.49,94,80.17,159.21,151.29,180.05,73.2,21.46,138-5.37,162.46-17.9a21,21,0,1,1,19.19,37.45c-28.95,14.83-105.75,46.55-193.48,20.83C96.3,839.65,3.12,760.36.08,645.33-2.76,538.53,74.82,456.52,153,422.64c73.78-32,143.84-20,188.09-5.23A177.85,177.85,0,0,1,345.82,335c12.77-42.58,40.38-77.76,77.75-99.07,59.72-34,134.68-27.18,189.54,14.34C633.16,195.67,681.29,102,787,45.18A388.82,388.82,0,0,1,895.8,6.38c59.44-11.46,117.56-7.47,172.74,11.85,43.06,15.08,148.36,63,196.1,182,34.76,86.63,21.49,166.67,6.14,215.39a309.94,309.94,0,0,1,41.62-5.32c55.95-3.28,107.18,8.84,152.29,36a284.22,284.22,0,0,1,62.09,49.84c34.25,36.76,53.63,78.55,57.63,124.21,9.23,105.58-68.62,177.43-102.52,203.42C1425.74,866.82,1363.9,878,1314.8,878Z"/></g></g></svg>