<svg xmlns="http://www.w3.org/2000/svg" viewBox="0 0 1528.1 1004.14"><defs><style>.cls-1{fill:none;stroke:#000;stroke-miterlimit:10;}</style></defs><title>Asset 35</title><g id="Layer_2" data-name="Layer 2"><g id="cloudconsulting"><path d="M108.7,831l2.73-220.39H45.49l-2.06-.51a56.14,56.14,0,0,1-32-21.79A61.91,61.91,0,0,1,0,555.9l0-.59v-.6L3.15,51.84l.37-1.75a63.19,63.19,0,0,1,15.7-30.26A57.82,57.82,0,0,1,41.77,5.11l2.79-1h3L924.18,0l1,.11a54.93,54.93,0,0,1,37,21,61.38,61.38,0,0,1,12.43,35.53v83.44l-420.45,3.55a63.79,63.79,0,0,0-30.7,18.9c-15.54,17.09-18.67,38.16-19.28,46.93l-1.31,401.63-105,.77ZM50.12,575.6h96.75l-2.29,184.3L386,577l82-.6,1.2-368.07,0-.52c.95-15.09,5.89-44.09,28.36-68.79a98.57,98.57,0,0,1,50.31-29.86l1.92-.46,389.82-3.29v-48a26.48,26.48,0,0,0-5.13-14.86A20,20,0,0,0,922.1,35l-871,4.08a22.91,22.91,0,0,0-6.49,4.81,28.21,28.21,0,0,0-6.51,12L35,554.25a27.28,27.28,0,0,0,4.84,13.56A21.6,21.6,0,0,0,50.12,575.6Z"/><path d="M1384.58,1004.14,1088.34,782.83l-493.82-3-3.34-1.49a60.72,60.72,0,0,1-24.61-20.19,66,66,0,0,1-10.85-25l-.36-1.74V219.49l.08-.81A53.36,53.36,0,0,1,569.61,187a48.24,48.24,0,0,1,33.72-15h.31l880.68-.23,2.15.55a57,57,0,0,1,28.1,17.06,61.24,61.24,0,0,1,12.61,21.63l.92,2.73,0,517a55.72,55.72,0,0,1-11.42,30.08,50.4,50.4,0,0,1-26.75,17.77l-2.18.57H1376.27Zm-782-259.29,497.48,3L1346.9,932.31,1340,744.22h142.75a15.8,15.8,0,0,0,6.36-4.9,20.56,20.56,0,0,0,4-10.44v-509a26.21,26.21,0,0,0-4.48-7,22.19,22.19,0,0,0-9.06-6.09L603.85,207a13.11,13.11,0,0,0-8.9,4.14,18.61,18.61,0,0,0-4.6,10.09V727.62A30.54,30.54,0,0,0,595,737.75,26.07,26.07,0,0,0,602.58,744.85Z"/><path d="M1382.87,357.2H685.53V313.64h697.34Zm-687.34-10h677.34V323.64H695.53Z"/><path d="M1099.23,637.56H687.76v-46h411.46Zm-401.46-10h391.46v-26H697.76Z"/><path d="M1383.61,428.25H686.27V384.69h697.34Zm-687.34-10h677.34V394.69H696.27Z"/><path class="cls-1" d="M720.79,201.11"/><path class="cls-1" d="M769.87,201.11"/><path class="cls-1" d="M805.45,201.11"/><path class="cls-1" d="M581.73,164.19"/><polygon points="474.75 214.94 131.67 214.94 131.67 171.9 487.31 171.9 487.31 181.9 141.67 181.9 141.67 204.94 474.75 204.94 474.75 214.94"/><polygon points="475.73 284.89 132.4 284.89 132.4 241.85 475.73 241.85 475.73 251.85 142.4 251.85 142.4 274.89 475.73 274.89 475.73 284.89"/><path class="cls-1" d="M489.45,269.45"/><path class="cls-1" d="M491.75,269.45"/><polygon points="475.73 351.67 132.4 351.67 132.4 308.63 475.73 308.63 475.73 318.63 142.4 318.63 142.4 341.67 475.73 341.67 475.73 351.67"/><path d="M1382.87,494.2H685.53V450.64h697.34Zm-687.34-10h677.34V460.64H695.53Z"/><path d="M1383.61,565.25H686.27V521.69h697.34Zm-687.34-10h677.34V531.69H696.27Z"/><polygon points="475.73 412.21 132.4 412.21 132.4 369.17 475.73 369.17 475.73 379.17 142.4 379.17 142.4 402.21 475.73 402.21 475.73 412.21"/></g></g></svg>