<svg xmlns="http://www.w3.org/2000/svg" viewBox="0 0 1001.11 1038.56"><defs><style>.cls-1{stroke:#000;stroke-miterlimit:10;stroke-width:7px;}</style></defs><title>Asset 23</title><g id="Layer_2" data-name="Layer 2"><g id="consulting"><path d="M766.11,120.24H611a20.11,20.11,0,1,0,0,40.22H766.11a20.11,20.11,0,0,0,0-40.22Z"/><path d="M887.92,160.46a20.11,20.11,0,1,0,0-40.22h-63.2a20.11,20.11,0,0,0,0,40.22Z"/><path d="M611,283.42h60.91a20.11,20.11,0,0,0,0-40.22H611a20.11,20.11,0,1,0,0,40.22Z"/><path d="M995.17,5.83A20.14,20.14,0,0,0,980.84,0L491.3,4a20.11,20.11,0,0,0-19.95,20.11V375.67a20.11,20.11,0,0,0,19.43,20.1L592,399.18l9,96A20.11,20.11,0,0,0,635.79,507l35.93-38.6.13-.29a41.2,41.2,0,0,0,6.91-6l60.16-64.57.33-.37H981a20.11,20.11,0,0,0,20.11-20.11v-357A20.11,20.11,0,0,0,995.17,5.83ZM960.89,140.35V357H729.34a20.09,20.09,0,0,0-18.12,11.44c-.58.56-1.16,1.13-1.72,1.74L649.34,434.7a41.08,41.08,0,0,0-5.67,7.7,36.75,36.75,0,0,0-9.2,9.77L630.4,377.8a20.11,20.11,0,0,0-19.34-18.21l-99.48-3.35V44.07l449.32-3.68Z"/><path d="M706.93,263.31A20.11,20.11,0,0,0,727,283.42H887.92a20.11,20.11,0,1,0,0-40.22H727A20.11,20.11,0,0,0,706.93,263.31Z"/><path class="cls-1" d="M855.17,954c-17.49-55-57.43-84.89-74.49-97.65-28.37-21.22-49.29-27.57-71.45-34.29-16-4.85-32.51-9.86-55.14-21.27-31.76-16-61.56-37.91-88.68-65.13v-88l25-31.45a18.76,18.76,0,0,0,3.13-5.84,18.73,18.73,0,0,0,6.19-5.83l13.39-20.15a18.84,18.84,0,0,0-31.38-20.85l-13.39,20.15a18.81,18.81,0,0,0-2.19,4.56,18.75,18.75,0,0,0-5.24,4.53l-33.15,41.74V750.92l5.24,5.47c31.47,32.81,66.51,59.08,104.15,78.06,25.54,12.88,44.47,18.62,61.17,23.69,20.53,6.23,36.75,11.15,59.82,28.4,14.16,10.59,47.32,35.4,61.15,78.89a135.68,135.68,0,0,1,6,32H48.17a250.39,250.39,0,0,1,35.4-63.88c37.2-48.45,85.68-73.9,104.8-82.59,49.52-22.51,86.48-38.44,86.85-38.6l.18-.08c11.39-4.9,30.45-13.11,48.92-32.06a135.05,135.05,0,0,0,26.28-38.75l1.68-3.7V636.21l-5.89-5.57a116.65,116.65,0,0,1-26-36.16A118.72,118.72,0,0,1,310.22,535l1.36-15.93-15.5-3.93c-2.3-.58-22.68-6.2-30.46-23.8-8-18.17-.46-41.76,18-56.08l10.11-7.84-3.57-12.29a479,479,0,0,1-18.65-111.85c-2-43.7-2.36-65.82,9.95-91,10.81-22.11,28.27-40.46,51.91-54.52,35.15-20.91,70.54-20.87,88.51-19a18.84,18.84,0,1,0,3.94-37.47c-22.62-2.38-67.2-2.41-111.71,24.07-30,17.87-52.42,41.54-66.5,70.35-17.07,34.92-15.67,66.09-13.74,109.23A515,515,0,0,0,250.8,414.21a92.18,92.18,0,0,0-22.58,38.1c-5.43,18.44-4.38,37.73,2.94,54.3,9.72,22,27.55,33.8,41,39.87a155.37,155.37,0,0,0,14.05,63.71,153.73,153.73,0,0,0,28.42,41.93v77.3a96.72,96.72,0,0,1-17.26,24.46c-13.25,13.6-27.45,19.71-36.84,23.76l-.18.08c-.37.16-37.65,16.23-87.54,38.91-21.7,9.86-76.73,38.76-119.1,93.95-22.4,29.18-39.05,62.84-49.48,100a18.8,18.8,0,0,0,21,23.71,18.81,18.81,0,0,0,5.24.76H862l1-17.8A176,176,0,0,0,855.17,954Z"/></g></g></svg>