<svg xmlns="http://www.w3.org/2000/svg" viewBox="0 0 578.38 1028.08"><defs><style>.cls-1,.cls-2{fill:none;stroke-linecap:round;stroke-miterlimit:10;stroke-width:25px;}.cls-1{stroke:#3fa9f5;}.cls-2{stroke:#000;}</style></defs><title>Asset 55</title><g id="Layer_2" data-name="Layer 2"><g id="deployment"><path d="M36.93,852.93,22.5,825C13.27,807.2-14.9,743.26,10.09,669.8c18.85-55.39,57.6-87.22,79-101.25A14,14,0,0,1,104.48,592c-18.41,12.06-51.7,39.38-67.84,86.83-13.89,40.82-8.58,78.29-1,103.79a295,295,0,0,1,74.08-92,14,14,0,0,1,17.89,21.59A267.32,267.32,0,0,0,48.07,823.57Z"/><path d="M540.84,858,530.17,827a222.22,222.22,0,0,0-99-120,14,14,0,1,1,14-24.29A250.45,250.45,0,0,1,543,785.64c7.48-25.47,12.52-62.57-1.22-102.94-16.14-47.44-49.43-74.77-67.84-86.83a14,14,0,1,1,15.37-23.45c21.42,14,60.17,45.86,79,101.25,25,73.47-3.18,137.4-12.41,155.24Z"/><path class="cls-1" d="M189.55,924.23"/><path class="cls-1" d="M189.55,865"/><path d="M189.55,854.25a14,14,0,0,1-14-14V826.71a14,14,0,0,1,28,0v13.53A14,14,0,0,1,189.55,854.25Z"/><path d="M390,865h-.23A14,14,0,0,1,376,850.74l.49-30.09a14,14,0,0,1,28,.46L404,851.2A14,14,0,0,1,390,865Z"/><path d="M286.28,1028.08a14,14,0,0,1-14-13.64l-.57-20.65a14,14,0,0,1,28-.77l.57,20.65a14,14,0,0,1-13.63,14.4Z"/><path d="M286.81,967h0a14,14,0,0,1-14-14l0-20.09a14,14,0,0,1,14-14h0a14,14,0,0,1,14,14l0,20.09A14,14,0,0,1,286.81,967Z"/><path d="M287.1,899.57H287a14,14,0,0,1-13.88-14.16l.2-20.67a14,14,0,0,1,28,.27l-.2,20.67A14,14,0,0,1,287.1,899.57Z"/><path class="cls-2" d="M110.08,355.51"/><path class="cls-2" d="M99.46,432.85"/><path d="M454,254.83C421.62,163.18,369.36,80.8,298.67,10l-10-10-9.92,10C220.1,69.2,142.33,170,105.12,314A722.67,722.67,0,0,0,144,758.65l82.62,4.93,6.94,64.75L333,831.75l10.34-72.39L428,760.61l3.7-8.63a739.18,739.18,0,0,0,51.15-181.83C498.92,460.64,489.19,354.55,454,254.83ZM317.35,743.38l-8.5,59.48-50-1.72-5.22-48.76c.06-.4.11-.81.13-1.23a14,14,0,0,0-.88-5.78l-14.26-133h93.65ZM409.6,732.3l-62.66-.92,16.77-147.09H207.44l16.18,151L163,731.69A683.79,683.79,0,0,1,132.27,321C165.85,191,234,97.78,288.78,40c62.68,65.51,109.33,140.87,138.75,224.19C499.34,467.5,441.92,653.59,409.6,732.3Z"/><path d="M190.39,895.27h0a14,14,0,1,1,14-14A14,14,0,0,1,190.38,895.27Z"/><path d="M190.38,979.39a14,14,0,0,1-14-14V926.12a14,14,0,0,1,28,0v39.26A14,14,0,0,1,190.38,979.39Z"/><path d="M390,919.95a14,14,0,0,1-14-14V889.11a14,14,0,1,1,28,0v16.82A14,14,0,0,1,390,919.95Z"/><path d="M390,1027.62a14,14,0,0,1-14-14V949.67a14,14,0,1,1,28,0v63.93A14,14,0,0,1,390,1027.62Z"/><path d="M286.82,445.35a82.82,82.82,0,1,1,82.82-82.82A82.91,82.91,0,0,1,286.82,445.35Zm0-140.63a57.82,57.82,0,1,0,57.82,57.82A57.88,57.88,0,0,0,286.82,304.72Z"/></g></g></svg>