<svg xmlns="http://www.w3.org/2000/svg" viewBox="0 0 1467.91 1056.46"><title>Asset 36</title><g id="Layer_2" data-name="Layer 2"><g id="development"><path d="M1365.57,1056.46H102.34A102.46,102.46,0,0,1,0,954.12V102.34A102.46,102.46,0,0,1,102.34,0H1365.57a102.46,102.46,0,0,1,102.34,102.34V954.12A102.46,102.46,0,0,1,1365.57,1056.46ZM102.34,35A67.42,67.42,0,0,0,35,102.34V954.12a67.42,67.42,0,0,0,67.34,67.34H1365.57a67.42,67.42,0,0,0,67.34-67.34V102.34A67.42,67.42,0,0,0,1365.57,35Z"/><path d="M1347,983H125A49.52,49.52,0,0,1,75.5,933.54V218.8h1321V933.54A49.52,49.52,0,0,1,1347,983ZM90.5,233.8V933.54A34.5,34.5,0,0,0,125,968H1347a34.5,34.5,0,0,0,34.46-34.46V233.8Z"/><rect x="264.51" y="226.3" width="15" height="749.21"/><path d="M674.59,593.38h-262a47.81,47.81,0,0,1-47.75-47.75V381.87a47.81,47.81,0,0,1,47.75-47.75h262a47.81,47.81,0,0,1,47.75,47.75V545.63A47.81,47.81,0,0,1,674.59,593.38Zm-262-229.27a17.77,17.77,0,0,0-17.75,17.75V545.63a17.77,17.77,0,0,0,17.75,17.75h262a17.77,17.77,0,0,0,17.75-17.75V381.87a17.77,17.77,0,0,0-17.75-17.75Z"/><path d="M1301,372.62H779a12.5,12.5,0,0,1,0-25h522a12.5,12.5,0,0,1,0,25Z"/><path d="M1301,472.25H779a12.5,12.5,0,0,1,0-25h522a12.5,12.5,0,0,1,0,25Z"/><path d="M1301,574.88H779a12.5,12.5,0,0,1,0-25h522a12.5,12.5,0,0,1,0,25Z"/><path d="M484.9,904.53a115.3,115.3,0,1,1,115.3-115.3A115.44,115.44,0,0,1,484.9,904.53Zm0-200.61a85.3,85.3,0,1,0,85.3,85.3A85.4,85.4,0,0,0,484.9,703.92Z"/><path d="M839,903.16a115.3,115.3,0,1,1,115.3-115.3A115.43,115.43,0,0,1,839,903.16Zm0-200.61a85.3,85.3,0,1,0,85.3,85.3A85.4,85.4,0,0,0,839,702.56Z"/><path d="M1200.68,904.53A115.3,115.3,0,1,1,1316,789.23,115.44,115.44,0,0,1,1200.68,904.53Zm0-200.61a85.3,85.3,0,1,0,85.3,85.3A85.4,85.4,0,0,0,1200.68,703.92Z"/><circle cx="1063.53" cy="118.32" r="35.31"/><circle cx="1190.44" cy="118.32" r="35.31"/><circle cx="1325.54" cy="118.32" r="35.31"/><circle cx="179.21" cy="349.12" r="35.31"/><circle cx="179.21" cy="473.48" r="35.31"/><circle cx="179.21" cy="600.9" r="35.31"/><circle cx="179.21" cy="728.32" r="35.31"/><circle cx="179.21" cy="855.74" r="35.31"/></g></g></svg>