<svg xmlns="http://www.w3.org/2000/svg" viewBox="0 0 1212.14 1053.88"><title>Asset 43</title><g id="Layer_2" data-name="Layer 2"><g id="encryption"><path d="M817.46,281l-111.93-1.29,3.53-88.27c-3-14-12.81-45.53-41.64-63.07-21.17-12.88-43-12.56-62.26-12.28-16.9.25-36.06.53-55.47,11.4-27.83,15.59-39.68,43.32-44.39,59.29l-1.35,90.88-113,.62,1-97.67c2.24-30.74,11-59,25.9-83.88C473.35,4.27,589.69.17,602.78,0c3.73,0,37.55-.11,77.07,12.06,50.8,15.63,90.34,45.08,114.35,85.16,16.45,27.46,25.67,60,26.68,94.1v.34Zm-91.12-21,71.88.83,2.65-69.23c-1-31-9-59.29-23.83-84.08C755.3,71.22,720.62,45.54,674,31.18,637.36,19.91,606.43,20,603,20c-5.5.07-34.67,1-69.09,12.29C489.27,47,456,72.11,435.06,107,421.8,129.18,414,154.33,412,181.8l-.78,76.41,73-.4,1.1-73.94.36-1.26c5.29-18.71,19.38-53,54.21-72.52,23.83-13.35,46.63-13.68,65-14,19.78-.29,46.86-.69,73,15.19,36.38,22.14,47.84,61.45,51.08,77.32l.24,1.19Z"/><path d="M821.3,289.38H389.79a57.49,57.49,0,0,0-57.32,57.32V707.43a57.49,57.49,0,0,0,57.32,57.32H821.3a57.49,57.49,0,0,0,57.32-57.32V346.7A57.49,57.49,0,0,0,821.3,289.38ZM635.48,539.21V643.3a29.93,29.93,0,0,1-59.87,0V538c0-.14,0-.27,0-.4a62.39,62.39,0,1,1,59.86,1.64Z"/><circle cx="273.16" cy="536.86" r="30.36"/><path d="M56.6,592.59A56.61,56.61,0,1,1,113.21,536,56.67,56.67,0,0,1,56.6,592.59Zm0-93.21A36.61,36.61,0,1,0,93.21,536,36.65,36.65,0,0,0,56.6,499.37Z"/><rect x="103.21" y="525.98" width="145.81" height="20"/><circle cx="273.16" cy="705.88" r="30.36"/><circle cx="562.61" cy="825.25" r="30.36"/><circle cx="652.4" cy="825.25" r="30.36"/><circle cx="938.67" cy="706.93" r="30.36"/><circle cx="938.67" cy="536.86" r="30.36"/><path d="M132.27,932a53.85,53.85,0,1,1,53.85-53.85A53.91,53.91,0,0,1,132.27,932Zm0-87.69a33.85,33.85,0,1,0,33.85,33.85A33.88,33.88,0,0,0,132.27,844.34Z"/><path d="M421,1053.88a56.6,56.6,0,1,1,56.6-56.6A56.67,56.67,0,0,1,421,1053.88Zm0-93.21a36.6,36.6,0,1,0,36.6,36.61A36.65,36.65,0,0,0,421,960.67Z"/><path d="M792.14,1053.88A54.92,54.92,0,1,1,847.06,999,55,55,0,0,1,792.14,1053.88Zm0-89.83A34.92,34.92,0,1,0,827.06,999,35,35,0,0,0,792.14,964Z"/><path d="M1078.66,935.2a54,54,0,1,1,54-54A54,54,0,0,1,1078.66,935.2Zm0-87.95a34,34,0,1,0,34,34A34,34,0,0,0,1078.66,847.25Z"/><path d="M1155.53,593.46a56.6,56.6,0,1,1,56.6-56.6A56.67,56.67,0,0,1,1155.53,593.46Zm0-93.21a36.6,36.6,0,1,0,36.6,36.61A36.65,36.65,0,0,0,1155.53,500.25Z"/><path d="M123.23,827.47l-.87-77.86c-.37-5.52-.27-22.81,13.13-36.89A49.36,49.36,0,0,1,166.07,698l.82,0,85.59-1,.23,20-85.14,1A29,29,0,0,0,150,726.5c-8.22,8.64-7.82,19.79-7.65,21.93l0,.65.87,78.16Z"/><path d="M408.81,945.78l-.87-77.86c-.37-5.52-.27-22.81,13.13-36.89a49.33,49.33,0,0,1,30.58-14.74l.82,0,85.59-1,.23,20-85.15,1a29,29,0,0,0-17.59,8.58c-8.22,8.64-7.82,19.79-7.65,21.93l0,.65.87,78.16Z"/><path d="M801.18,945.78l-20-.22.87-78.49,0-.32c.16-2.15.56-13.3-7.65-21.93a29,29,0,0,0-17.59-8.58l-85.14-1,.23-20,86,1,.41,0A49.33,49.33,0,0,1,788.92,831c13.4,14.08,13.5,31.37,13.13,36.89Z"/><path d="M1087.69,827.47l-20-.22.9-78.81c.16-2.15.56-13.3-7.65-21.93a29,29,0,0,0-17.59-8.58l-85.14-1,.23-20,86,1,.41,0a49.36,49.36,0,0,1,30.58,14.74c13.4,14.08,13.5,31.37,13.13,36.89Z"/><rect x="959.92" y="526.86" width="145.81" height="20"/></g></g></svg>