<svg xmlns="http://www.w3.org/2000/svg" viewBox="0 0 981.08 1037.62"><title>Asset 48</title><g id="Layer_2" data-name="Layer 2"><g id="FMS-1"><path d="M681.27,1036.56l-20.3-9.18a222.25,222.25,0,0,1-88.43-71.76A203.91,203.91,0,0,1,533.84,851c-6.6-90,48.64-175.36,135.41-211.34l-30-448.2,1.28-3.18c18.41-45.66,61.78-76,110.5-77.39,50.92-1.41,98.07,29.68,117.34,77.38l1.27,3.14L842.4,642.88a205.62,205.62,0,0,1,96.29,69.23,203.21,203.21,0,0,1,42.38,121.66c.7,84.18-52.45,161.32-132.24,191.95l-20,7.69-3.18-194L689,840ZM669.64,196.45l31,463.54L690,663.81c-80.21,28.69-132.13,104.76-126.25,185,4.23,57.63,37.83,109.79,89.33,140.64l7-179.31,195-.94,2.94,179.36c56.91-30.42,93.53-90.08,93-154.55-.63-76.55-53.44-144.76-128.43-165.89L811,664.85,839.27,196.5c-15-33.65-48.5-55.65-84.91-55.65-.84,0-1.67,0-2.51,0A93,93,0,0,0,669.64,196.45Z"/><path d="M420.66,335.84q-8.18,0-16.34-.19C343.61,334.22,292,325.2,250.8,308.85a375.06,375.06,0,0,1-60.42-30.62l-7.17-4.49.46-29.64,20.25-17c4.11-29.84,17.17-81.18,58.34-127.93C301.64,54.45,348.39,34.59,379,25.91L376.24,0l85.69,2-3.13,24.86A233.36,233.36,0,0,1,602.33,127.48l1.76,2.73.48,3.21c3.85,25.75,7.28,51.93,10.22,77.82,3.13,27.6,5.77,55.64,7.86,83.33l.93,12.39-12,3.22A736.51,736.51,0,0,1,420.66,335.84ZM214.22,257.62A344.66,344.66,0,0,0,261.87,281c37.85,15,86,23.34,143.15,24.68a700.41,700.41,0,0,0,186.73-21.32c-1.89-23.23-4.16-46.63-6.78-69.71-2.77-24.44-6-49.16-9.6-73.51A203.44,203.44,0,0,0,439.7,53.61l-14.22-2.37,2.52-20-18.3-.42,2,18.22-13.1,2.9c-25.37,5.61-73.89,21.79-113.79,67.1-38.65,43.89-49,92.41-51.78,117.43l-.66,6Z"/><path d="M414.17,605.38h-1.53c-68.33-.89-132.94-61.6-158.31-148.18-3.41-3.13-6.91-6.2-10.43-9.16-6.49-5.46-13.28-10.74-20.17-15.69l-6.83-4.9,6.31-85.15,79.54-2.17,2.18.61a434.84,434.84,0,0,0,107.45,15.92,434.55,434.55,0,0,0,128.32-16.51l1.38-.39,61.19-5.28L605,348.9a6,6,0,0,0,1.3,3.08,6.19,6.19,0,0,0,3.33,2l13,2.77-5.83,65.05a24.53,24.53,0,0,1-4.17,13.1c-5.23,7.63-12.82,9.32-17.35,10.33a16.05,16.05,0,0,0-3.69,1.07,7.05,7.05,0,0,0-2.1,3c-7.69,28.45-24.78,69.17-62.66,103.77C512.56,566,469.5,605.37,414.17,605.38ZM248,413c5.17,3.9,10.25,7.94,15.17,12.08s9.91,8.57,14.66,13l3.07,2.88,1.12,4.06c10.35,37.53,29.59,71.23,54.16,94.88C359.6,562.44,386.88,575,413,575.37h1.12c43.71,0,80.31-33.44,92.41-44.49,33-30.12,47.66-65.77,54.18-90.37l.24-.91.36-.88c3.3-8.14,8.27-14.25,14.77-18.16a37.67,37.67,0,0,1,11-4.28l3.44-38.44a35.31,35.31,0,0,1-7.34-6.64,35.69,35.69,0,0,1-3.27-4.62l-32.47,2.8a464.63,464.63,0,0,1-135.78,17.25,464.87,464.87,0,0,1-112.67-16.41l-47.94,1.31Z"/><path d="M492.7,882l-282.45-3.06-2-278.81,98.14-18.24,5.57,5.49c11,10.86,51.76,46.22,112.6,44.71,56.51-1.36,93.52-32.89,106.81-46.38l10-10.13L552,585a81,81,0,0,0,45.23,19.93l41.09,4.39-34.34,23a252.67,252.67,0,0,0-69.88,69.52c-42.2,63-44.71,129.8-42.45,164ZM240,849.27l221,2.39C460.62,811,468,746.58,509.16,685.14a279.94,279.94,0,0,1,52.78-58.75q-2.34-1-4.64-2.12a110.81,110.81,0,0,1-14.35-8.34c-20.82,18.07-61,44.79-117.67,46.15-1.47,0-2.93.05-4.38.05-62.07,0-105.9-31.8-124.14-47.94L238.42,625Z"/><path d="M185.23,1037.62l-16.47-1.37a152.5,152.5,0,0,1-53.35-14.13C34.54,983.46-9.08,868.6,1.59,722.38l.56-7.63,177-109.7ZM31,732.16c-3.71,62.15,3,119.17,19.55,165.32,17.08,47.67,44,81.42,77.79,97.58a117.59,117.59,0,0,0,26.41,8.89l-4.83-345.48Z"/></g></g></svg>