<svg xmlns="http://www.w3.org/2000/svg" viewBox="0 0 1105.58 1061.14"><title>Asset 49</title><g id="Layer_2" data-name="Layer 2"><g id="FMS-2"><path d="M153.74,465.53l-10.62-10.17C118.55,431.84,94,407.66,70,383.5c-20.13-20.31-40.31-41.12-60-61.86L0,311.08,282.3,26.84A91.79,91.79,0,0,1,307.65,8.93,92.85,92.85,0,0,1,346.31,0h.27l188.3,1.25h.3a41.43,41.43,0,0,1,38.89,33.11l1.64,7.91Zm-111.92-154c16.32,17.08,32.93,34.14,49.49,50.85,20.32,20.5,41.11,41,62,61.13l388-389.2A12.25,12.25,0,0,0,534,31.24L346.52,30a62.64,62.64,0,0,0-26,6,61.73,61.73,0,0,0-17,12Z"/><path d="M284.87,1061.14c-10.86,0-21.35-2.74-27.07-12.16-5-8.3-4.29-18.57,2.24-30.53,6-11.63,12.24-23.43,18.56-35.09s11.59-21,15.8-28.55c12.86-22.94,14.87-27,14.19-31.78-2-14.33-19.94-25.46-37.26-36.23-17.6-10.94-32.8-20.38-46.21-16.9-11.89,3.09-23.27,21.52-43.92,55-6.76,10.95-13.15,22.27-19,33.64l-.72,1.4-1,1.22a28.27,28.27,0,0,1-50.23-15.25C100.13,910.9,92.79,858,113.68,802c8.26-22.17,22.09-59.28,60-82.62,30.5-18.79,64.07-20.76,76.71-21.5A178.86,178.86,0,0,1,282.9,699c9.22,1,16.51,1.78,27.92.2,16.53-2.28,32.68-8.35,48-18.06L484.56,555.84,288.34,359.62,419.71,228.25,616.15,424.69l107.57-107.2a104.79,104.79,0,0,0,15-41.65c1.39-11.09.34-18.42-.88-26.91-1.15-8-2.46-17.09-1.7-29.42,2-33.11,17-57.08,26.83-73,7.83-12.58,30.6-44.46,72.82-68.63C848.46,70.67,913.06,35.79,940,61.35c6.8,6.46,10.72,14.57,11,22.84.42,11.61-5.93,19.21-11.53,25.91l-1.82,2.19a135.41,135.41,0,0,0-8.55,12.23c-2.44,3.77-5,7.67-7.85,11.52-15.17,20.27-21.94,39.49-19.08,54.11,2.59,13.23,13.06,22,24.15,31.21,10.75,9,28.73,24,49.22,21s34-22.3,38.47-28.65c8.45-12,16.63-31.29,18.94-36.91,1.28-3.13,2.4-6,3.48-8.84,5.14-13.36,10-26,23.83-29.8,10.41-2.88,21.4.63,32.69,10.43l3.73,3.23,1.08,4.81a320.81,320.81,0,0,1,7.54,84.5c-1.34,29.73-2.72,60.48-21.07,94.17-6.07,11.15-22.2,40.76-56.3,59.54-20.39,11.23-38.34,13.86-57.35,16.64-18.52,2.71-31,2.31-41.94,2-10.32-.33-19.23-.61-32.32,1.7a150.07,150.07,0,0,0-42.21,14.29L737.17,545.71,993,801.51a74.45,74.45,0,0,1,0,105.17l-26.2,26.2a74.54,74.54,0,0,1-105.17,0L605.47,676.75l-123.6,123a112.82,112.82,0,0,0-13.36,44.92c-.79,10.82.4,18.23,1.66,26.07,1.51,9.39,3.22,20,1.39,35.6-3.72,31.66-18.62,54.4-23.52,61.88-16.43,25.08-35.82,38.12-60.37,54.64-12.94,8.71-29,19.54-53.08,27.88a243.8,243.8,0,0,1-30.19,8.22A104.14,104.14,0,0,1,284.87,1061.14Zm-53.64-222c20.21,0,38.32,11.25,55.93,22.2,21,13.05,47.13,29.29,51.14,57.5,2.16,15.19-2.85,24.13-17.72,50.66-4.17,7.44-9.36,16.7-15.6,28.2-6,11.09-12,22.32-17.68,33.39,8.43-.59,22.7-3.58,37.47-8.7,20.36-7.06,34.07-16.29,46.16-24.42,23.44-15.77,38.92-26.19,52-46.2,4.36-6.65,15.92-24.3,18.81-48.93,1.34-11.42.16-18.8-1.22-27.34-1.41-8.76-3-18.7-2-33a143.22,143.22,0,0,1,18-59.08l1-1.87L605.52,634.38,882.81,911.66a44.54,44.54,0,0,0,62.75,0l26.2-26.2a44.42,44.42,0,0,0,0-62.75L694.69,545.65,836.11,404.93l2-1a180.38,180.38,0,0,1,53-18.32c16.16-2.86,27.52-2.5,38.51-2.14,10.2.33,20.75.66,36.63-1.66,17.65-2.59,31.6-4.63,47.23-13.24,26.42-14.55,39-37.72,44.42-47.61,15-27.6,16.15-52.43,17.45-81.17a290.17,290.17,0,0,0-5.71-71.34l-.73-.44c-1.32,2.6-3,7-4.44,10.72-1.08,2.82-2.32,6-3.73,9.46-3.34,8.14-12.18,28.6-22.15,42.78-6.3,9-25.46,36.2-58.65,41.07a67.45,67.45,0,0,1-9.8.72c-29,0-51.58-18.79-63-28.32-13.25-11-29.73-24.8-34.37-48.47-4.58-23.39,3.89-50.31,24.5-77.86,2.28-3,4.42-6.35,6.69-9.85a160.12,160.12,0,0,1,10.54-15q1-1.24,2-2.4a54.17,54.17,0,0,0,4.45-5.77,7.4,7.4,0,0,0-1.58-2c-1.21-.92-8.56-2.54-25.4,2.24C880.66,89.1,864.5,96.06,850.69,104c-36.3,20.77-55.62,47.78-62.25,58.43-9.26,14.88-20.78,33.41-22.36,59-.57,9.26.41,16.08,1.45,23.3,1.33,9.29,2.85,19.82,1,34.91-2.4,19.16-9.21,37.77-20.24,55.3l-.9,1.44L616.11,467.08,419.71,270.68l-88.94,88.94L527,555.87,377.74,704.65l-1.31.85C357,718.1,336.3,726,314.91,728.94c-15.05,2.08-25.31,1-35.22-.1a149.21,149.21,0,0,0-27.58-1c-10.58.62-38.67,2.26-62.73,17.09-29.1,17.93-40.23,47.79-47.59,67.55-18.1,48.57-11.53,94.8-2.63,125.41,5.19-9.71,10.72-19.35,16.51-28.72C181.21,867.76,194,847,217.58,840.87A54,54,0,0,1,231.22,839.12ZM921,85.41h0Z"/></g></g></svg>