<svg xmlns="http://www.w3.org/2000/svg" viewBox="0 0 1120.66 1032.39"><title>Asset 19</title><g id="Layer_2" data-name="Layer 2"><g id="hardware"><circle cx="359.36" cy="348.35" r="19.06"/><path d="M185.28,493.3l-155.5-.69h-.16c-14.21,0-25.77,8.2-25.86,18.37s11.42,18.53,25.7,18.6l155.5.69h.16c14.21,0,25.77-8.2,25.86-18.37S199.56,493.37,185.28,493.3Z"/><path d="M182.27,583.79l-155.5-.69h-.16C12.4,583.1.84,591.3.75,601.46s11.42,18.53,25.7,18.6l155.5.69h.16c14.21,0,25.77-8.2,25.86-18.37S196.55,583.85,182.27,583.79Z"/><path d="M181.52,669.52,26,668.83h-.16C11.65,668.83.09,677,0,687.2s11.42,18.53,25.7,18.6l155.5.69h.16c14.21,0,25.77-8.2,25.86-18.37S195.8,669.58,181.52,669.52Z"/><path d="M28.08,438.27l155.5.69h.16c14.21,0,25.77-8.2,25.86-18.37s-11.42-18.53-25.7-18.6L28.4,401.3h-.16c-14.21,0-25.77,8.2-25.86,18.37S13.8,438.2,28.08,438.27Z"/><path d="M28.8,350.16l155.5.69h.16c14.21,0,25.77-8.2,25.86-18.37s-11.42-18.53-25.7-18.6l-155.5-.69H29c-14.21,0-25.77,8.2-25.86,18.37S14.52,350.1,28.8,350.16Z"/><rect x="392.67" y="385.57" width="350.01" height="255.18" rx="18.08" ry="18.08"/><path d="M1095,496.62l-155.5-.69h-.16c-14.21,0-25.77,8.2-25.86,18.37s11.42,18.53,25.7,18.6l155.5.69h.16c14.21,0,25.77-8.2,25.86-18.37S1109.24,496.68,1095,496.62Z"/><path d="M1092,587.1l-155.5-.69h-.16c-14.21,0-25.77,8.2-25.86,18.37s11.42,18.53,25.7,18.6l155.5.69h.16c14.21,0,25.77-8.2,25.86-18.37S1106.23,587.17,1092,587.1Z"/><path d="M1091.2,672.83l-155.5-.69h-.16c-14.21,0-25.77,8.2-25.86,18.37s11.42,18.53,25.7,18.6l155.5.69h.16c14.21,0,25.77-8.2,25.86-18.37S1105.49,672.9,1091.2,672.83Z"/><path d="M937.76,441.58l155.5.69h.16c14.21,0,25.77-8.2,25.86-18.37s-11.42-18.53-25.7-18.6l-155.5-.69h-.16c-14.21,0-25.77,8.2-25.86,18.37S923.48,441.52,937.76,441.58Z"/><path d="M938.48,353.48l155.5.69h.16c14.21,0,25.77-8.2,25.86-18.37s-11.42-18.53-25.7-18.6l-155.5-.69h-.16c-14.21,0-25.77,8.2-25.86,18.37S924.2,353.41,938.48,353.48Z"/><path d="M577.45,183.86,577,28.36V28.2c-.1-14.21-8.39-25.71-18.55-25.72S540,14,540,28.31l.44,155.5V184c.1,14.21,8.39,25.71,18.55,25.72S577.49,198.15,577.45,183.86Z"/><path d="M486.95,181.51,486.51,26v-.16C486.4,11.64,478.12.14,468,.12S449.5,11.68,449.54,26l.44,155.5v.16c.1,14.21,8.39,25.71,18.55,25.72S487,195.79,486.95,181.51Z"/><path d="M401.21,181.39l-.44-155.5v-.16C400.67,11.52,392.39,0,382.22,0s-18.45,11.55-18.41,25.83l.44,155.5v.16c.1,14.21,8.39,25.71,18.55,25.72S401.25,195.67,401.21,181.39Z"/><path d="M631.34,26.27l.44,155.5v.16c.1,14.21,8.39,25.71,18.55,25.72s18.45-11.55,18.41-25.83l-.44-155.5v-.16C668.21,11.95,659.92.45,649.75.43S631.3,12,631.34,26.27Z"/><path d="M719.45,26.35l.44,155.5V182c.1,14.21,8.39,25.71,18.55,25.72s18.45-11.55,18.41-25.83l-.44-155.5v-.16C756.31,12,748,.53,737.86.51S719.41,12.06,719.45,26.35Z"/><path d="M570.32,1006.55l-.44-155.5v-.16c-.1-14.21-8.39-25.71-18.55-25.72S532.87,836.72,532.91,851l.44,155.5v.16c.1,14.21,8.39,25.71,18.55,25.72S570.36,1020.84,570.32,1006.55Z"/><path d="M479.81,1004.2l-.44-155.5v-.16c-.1-14.21-8.39-25.71-18.55-25.72s-18.45,11.55-18.41,25.83l.44,155.5v.16c.1,14.21,8.39,25.71,18.55,25.72S479.85,1018.48,479.81,1004.2Z"/><path d="M394.08,1004.08l-.44-155.5v-.16c-.1-14.21-8.39-25.71-18.55-25.72s-18.45,11.55-18.41,25.83l.44,155.5v.16c.1,14.21,8.39,25.71,18.55,25.72S394.12,1018.36,394.08,1004.08Z"/><path d="M624.21,849l.44,155.5v.16c.1,14.21,8.39,25.71,18.55,25.72s18.45-11.55,18.41-25.83L661.17,849v-.16c-.1-14.21-8.39-25.71-18.55-25.72S624.17,834.68,624.21,849Z"/><path d="M712.31,849l.44,155.5v.16c.1,14.21,8.39,25.71,18.55,25.72s18.45-11.55,18.41-25.83l-.44-155.5v-.16c-.1-14.21-8.39-25.71-18.55-25.72S712.27,834.75,712.31,849Z"/><path d="M720.39,788.94"/><path d="M797.2,777.68H323.46A60.8,60.8,0,0,1,262.73,717V302.73A60.8,60.8,0,0,1,323.46,242H797.2a60.8,60.8,0,0,1,60.73,60.73V717A60.8,60.8,0,0,1,797.2,777.68ZM323.46,274.17a28.59,28.59,0,0,0-28.55,28.55V717a28.59,28.59,0,0,0,28.55,28.55H797.2A28.59,28.59,0,0,0,825.76,717V302.73a28.59,28.59,0,0,0-28.55-28.55Z"/></g></g></svg>