<svg xmlns="http://www.w3.org/2000/svg" viewBox="0 0 855.2 1048.13"><title>Asset 34</title><g id="Layer_2" data-name="Layer 2"><g id="HardwareConsolidation"><path d="M191.74,794.41h-2a15,15,0,0,1,.3-30c23.81.22,84.77-4.28,136.73-51.29,54.18-49,61-111.94,61.75-130.06a15,15,0,1,1,30,1.3c-1.17,27-10.49,95.73-71.59,151C288.51,788.23,220.33,794.41,191.74,794.41Z"/><path d="M106.72,885.76a93.21,93.21,0,1,1,93.21-93.21A93.31,93.31,0,0,1,106.72,885.76Zm0-151.41a58.21,58.21,0,1,0,58.21,58.21A58.27,58.27,0,0,0,106.72,734.35Z"/><path d="M655.28,801.8c-29.08,0-66.22-6.17-105.55-28.48-51.09-29-83.85-72.72-102.33-104.32a15,15,0,0,1,25.9-15.15c16.62,28.42,45.94,67.69,91.23,93.37,44.06,25,84.73,26.51,111.07,23.38a15,15,0,1,1,3.54,29.79A202.7,202.7,0,0,1,655.28,801.8Z"/><path d="M426.4,1048.13a93.21,93.21,0,1,1,93.21-93.21A93.31,93.31,0,0,1,426.4,1048.13Zm0-151.41a58.21,58.21,0,1,0,58.21,58.21A58.27,58.27,0,0,0,426.4,896.72Z"/><path d="M753.08,889.41a93.21,93.21,0,1,1,93.21-93.21A93.31,93.31,0,0,1,753.08,889.41Zm0-151.41a58.21,58.21,0,1,0,58.21,58.21A58.27,58.27,0,0,0,753.08,738Z"/><path d="M426.4,876.47a15,15,0,0,1-15-15V717.35a15,15,0,0,1,30,0V861.47A15,15,0,0,1,426.4,876.47Z"/><circle cx="274.24" cy="265.83" r="14.55"/><path d="M141.39,376.45l-118.66-.53H22.6c-10.84,0-19.67,6.26-19.73,14s8.71,14.14,19.61,14.19l118.66.53h.13c10.84,0,19.67-6.26,19.73-14S152.29,376.5,141.39,376.45Z"/><path d="M139.09,445.5,20.43,445H20.3C9.46,445,.64,451.23.57,459s8.71,14.14,19.61,14.19l118.66.53H139c10.84,0,19.67-6.26,19.73-14S150,445.55,139.09,445.5Z"/><path d="M138.52,510.93,19.86,510.4h-.13c-10.84,0-19.67,6.26-19.73,14s8.71,14.14,19.61,14.19l118.66.53h.13c10.84,0,19.67-6.26,19.73-14S149.42,511,138.52,510.93Z"/><path d="M21.43,334.45l118.67.53h.13c10.84,0,19.67-6.26,19.73-14s-8.71-14.14-19.61-14.19l-118.67-.53h-.13c-10.84,0-19.67,6.26-19.73,14S10.53,334.4,21.43,334.45Z"/><path d="M22,267.22l118.67.53h.13c10.84,0,19.67-6.26,19.73-14s-8.71-14.14-19.61-14.19L22.22,239H22.1c-10.84,0-19.67,6.26-19.73,14S11.08,267.17,22,267.22Z"/><rect x="299.66" y="294.24" width="267.1" height="194.73" rx="13.8" ry="13.8"/><path d="M835.59,379l-118.66-.53h-.13c-10.84,0-19.67,6.26-19.73,14s8.71,14.14,19.61,14.19l118.66.53h.13c10.84,0,19.67-6.26,19.73-14S846.49,379,835.59,379Z"/><path d="M833.3,448l-118.66-.53h-.13c-10.84,0-19.67,6.26-19.73,14s8.71,14.14,19.61,14.19l118.66.53h.13c10.84,0,19.67-6.26,19.73-14S844.19,448.08,833.3,448Z"/><path d="M832.72,513.46l-118.66-.53h-.13c-10.84,0-19.67,6.26-19.73,14s8.71,14.14,19.61,14.19l118.66.53h.13c10.84,0,19.67-6.26,19.73-14S843.62,513.51,832.72,513.46Z"/><path d="M715.63,337l118.67.53h.13c10.84,0,19.67-6.26,19.73-14s-8.71-14.14-19.61-14.19l-118.67-.53h-.13c-10.84,0-19.67,6.26-19.73,14S704.73,336.93,715.63,337Z"/><path d="M716.18,269.75l118.67.53H835c10.84,0,19.67-6.26,19.73-14s-8.71-14.14-19.61-14.19l-118.67-.53h-.13c-10.84,0-19.67,6.26-19.73,14S705.28,269.7,716.18,269.75Z"/><path d="M440.67,140.31l-.34-118.67v-.13c-.08-10.84-6.4-19.62-14.16-19.63s-14.08,8.82-14,19.71l.34,118.67v.13c.08,10.84,6.4,19.62,14.16,19.63S440.7,151.21,440.67,140.31Z"/><path d="M371.6,138.52l-.34-118.67v-.13C371.19,8.88,364.87.11,357.11.09s-14.08,8.82-14,19.71l.34,118.67v.13c.08,10.84,6.4,19.62,14.16,19.63S371.63,149.41,371.6,138.52Z"/><path d="M306.18,138.42l-.34-118.67v-.13C305.76,8.79,299.44,0,291.68,0s-14.08,8.82-14,19.71L278,138.38v.13c.08,10.84,6.4,19.62,14.16,19.63S306.21,149.32,306.18,138.42Z"/><path d="M481.79,20l.34,118.67v.13c.08,10.84,6.4,19.62,14.16,19.63s14.08-8.82,14-19.71L510,20.09V20C509.93,9.12,503.6.34,495.84.33S481.76,9.15,481.79,20Z"/><path d="M549,20.1l.34,118.67v.13c.08,10.84,6.4,19.62,14.16,19.63s14.08-8.82,14-19.71l-.34-118.67V20C577.16,9.18,570.84.4,563.08.39S549,9.21,549,20.1Z"/><path d="M549.75,602.06"/><path d="M608.37,593.47H246.84a46.39,46.39,0,0,1-46.34-46.34V231a46.39,46.39,0,0,1,46.34-46.34H608.37A46.39,46.39,0,0,1,654.71,231V547.13A46.39,46.39,0,0,1,608.37,593.47ZM246.84,209.23A21.81,21.81,0,0,0,225,231V547.13a21.81,21.81,0,0,0,21.79,21.79H608.37a21.81,21.81,0,0,0,21.79-21.79V231a21.81,21.81,0,0,0-21.79-21.79Z"/></g></g></svg>