<svg xmlns="http://www.w3.org/2000/svg" viewBox="0 0 1121.4 1075.36"><title>Asset 45</title><g id="Layer_2" data-name="Layer 2"><g id="ITManagement"><path d="M550.61,365q-3,0-6-.23c-45.43-3.49-73.14-45.2-93.37-75.65A228.85,228.85,0,0,1,413.06,170h0c-.87-26.65-2.06-63.14,21-100.45a160.92,160.92,0,0,1,31.33-36.37c23.7-20.41,50.48-31.51,79.61-33C602.92-2.76,642.56,34.6,656.92,50.8c42.34,47.79,38.68,107,37.11,132.28-3.62,58.57-30.49,99.33-41.87,114.13C636.33,317.8,600.08,365,550.61,365ZM438,169.15c1.63,50.19,22,88,34,106.09,18.35,27.63,41.2,62,74.46,64.56,39,3,70.62-38.08,85.79-57.82,10-13,33.54-48.76,36.74-100.44,1.49-24.06,4.59-74.13-30.87-114.16-12-13.5-44.84-44.63-92-42.25-54.45,2.76-85.3,48.4-90.93,57.52-19.07,30.89-18.07,61.73-17.26,86.5l-12.49.41Z"/><path d="M558.72,702.71q-14,0-28.07-.92a425.31,425.31,0,0,1-92.44-16.31c-89.06-26.25-150.47-76.07-186.3-113.25L248.73,569l-.3-4.56a297.88,297.88,0,0,1,0-39.06c1.43-21.75,3.21-48.81,13.85-72.08,22-48.06,79.8-71.31,126.27-90l2.6-1a445.21,445.21,0,0,1,42.63-14.67l5.16-1.49,4.63,2.72c17.13,10.06,48.31,32.6,64.64,70.59a127.33,127.33,0,0,1,10,40.1,47.51,47.51,0,0,0,6.64-11.36,42.3,42.3,0,0,0,3.07-18.92l-22.62-28.83,8.51-7.82a62,62,0,0,1,43.85-15.15,59.77,59.77,0,0,1,39.52,17.51l7.68,8.06L581.45,431a52.28,52.28,0,0,0,7.34,22.87,58.64,58.64,0,0,0,3.57,5.3,125.32,125.32,0,0,1,7.35-35c14.2-38.87,44.5-62.76,61.29-73.54l4.92-3.16,5.58,1.76a473.65,473.65,0,0,1,61.1,24l2.68,1.27c45.22,21.51,84.27,40.09,104.9,78,14.4,26.45,16.66,55.56,18.48,79a271.89,271.89,0,0,1,0,42l-.36,4.68-3.36,3.28A427.22,427.22,0,0,1,680.52,684.76,420.28,420.28,0,0,1,558.72,702.71ZM273.12,558.18c34.14,34.6,90.94,79.38,172.16,103.32,42.68,12.58,129,29.22,228-.68,74.74-22.58,128.21-62.91,160.77-94a246.92,246.92,0,0,0-.32-33.48c-1.72-22.12-3.67-47.18-15.51-68.94-16.75-30.76-50.7-46.91-93.68-67.36l-2.68-1.28a447.89,447.89,0,0,0-52.18-20.89c-14.54,10.2-36,29.23-46.49,57.85a100.73,100.73,0,0,0-4.41,52.83l5,26.81-23.55-13.75c-9.68-5.65-23.25-15.79-32.88-32a76.88,76.88,0,0,1-11-40.15l0-4.44,13.57-16.31a35.89,35.89,0,0,0-13.64-3.43,36.68,36.68,0,0,0-15.67,2.6l11.21,14.3.46,3.34A68,68,0,0,1,548,457.5c-8.9,21.91-27.08,34.49-37.12,40l-22.2,12.27,3.79-25.08a101.92,101.92,0,0,0-7.19-55.52c-12.2-28.37-34.84-46.58-49.79-56.12-11.86,3.59-23.61,7.72-35,12.29l-2.6,1c-44.55,17.91-95,38.21-112.85,77.19-8.73,19.11-10.35,43.63-11.64,63.33A273.18,273.18,0,0,0,273.12,558.18Z"/><path d="M557.81,1075.36c-26.94,0-52.28-10.9-71.36-30.69-18.15-18.83-28.62-44.11-28.73-69.35a98.14,98.14,0,0,1,18.22-57,107.8,107.8,0,0,1,39-33.87l.44-49.69A428,428,0,0,1,344.76,790a422.27,422.27,0,0,1-112.32-82.3L198.18,730a100.05,100.05,0,1,1-50.28-68l97.52-60.2,8.39,8.54c29.17,29.67,137,126.38,301.4,126.38h.57C721,736.43,829,638.69,858.1,608.74l8.51-8.75,100.24,63.87a100.11,100.11,0,1,1-45.64,84c0-4.31.38-8.74.47-9.67q.18-2.3.43-4.61l-40.63-25.35A424,424,0,0,1,777.76,787a430.58,430.58,0,0,1-181,50.5v45.1c37.15,17,61.34,53.07,61.18,92.71-.1,25.35-10.6,50.69-28.82,69.51A98.56,98.56,0,0,1,557.81,1075.36ZM237.18,668.8l8.59,9.32a392.88,392.88,0,0,0,112.5,85,398.08,398.08,0,0,0,172.42,42.08l14.92.22-.88,98.76L535.44,908c-28.67,11.63-47.85,38.63-47.72,67.18.15,33.89,28.35,70.18,70.09,70.18,37.84,0,69.94-32.13,70.09-70.17.12-30.28-20.4-57.72-51.07-68.27l-10.12-3.48V808.32l14.71-.28c63.91-1.23,126.87-17.64,182.08-47.44A394.69,394.69,0,0,0,867.9,678.88l8.42-9.24,78.49,49-1.71,9.93c-.68,4-1.19,8-1.5,12.09l0,.24s-.35,3.77-.35,7a70.11,70.11,0,1,0,25.7-54.26l-8.4,6.89L870.91,638.3c-25.87,24.9-57.7,48.64-90.78,67.63-70,40.19-145.48,60.62-224.31,60.72h-.62c-78.33,0-153.41-20.08-223.15-59.7C298.9,688.12,267,664.51,241,639.73l-93.44,57.68-8-5.48a70.12,70.12,0,1,0,27.16,36l-3.61-11Z"/></g></g></svg>