<svg xmlns="http://www.w3.org/2000/svg" viewBox="0 0 1102.5 993.01"><defs><style>.cls-1,.cls-2{fill:none;stroke-linecap:round;stroke-linejoin:round;}.cls-1{stroke:#000;stroke-width:20px;}.cls-2{stroke:#f7931e;stroke-width:15px;}.cls-3{fill:#8585c6;}.cls-4{fill:#3fa9f5;}</style></defs><title>Asset 25</title><g id="Layer_2" data-name="Layer 2"><g id="management"><path d="M559,234.38A117.19,117.19,0,1,1,676.18,117.19,117.32,117.32,0,0,1,559,234.38Zm0-207.23a90,90,0,1,0,90,90A90.14,90.14,0,0,0,559,27.15Z"/><path d="M977.37,807.87A79.83,79.83,0,1,1,1057.2,728,79.92,79.92,0,0,1,977.37,807.87Zm0-137.93a58.1,58.1,0,1,0,58.1,58.1A58.17,58.17,0,0,0,977.37,669.93Z"/><path d="M125.83,513.51A10.86,10.86,0,0,1,115,502.65V406.84a10.86,10.86,0,0,1,21.72,0v95.81A10.86,10.86,0,0,1,125.83,513.51Z"/><path class="cls-1" d="M125.33,411.57"/><path d="M125.33,289.27a10.86,10.86,0,0,1-10.86-10.86V160.9A10.86,10.86,0,0,1,125.33,150H321.18a10.86,10.86,0,1,1,0,21.72h-185V278.41A10.86,10.86,0,0,1,125.33,289.27Z"/><path d="M980,442a10.86,10.86,0,0,1-10.86-10.86V171.77H780.21a10.86,10.86,0,0,1,0-21.72H980a10.86,10.86,0,0,1,10.86,10.86V431.16A10.86,10.86,0,0,1,980,442Z"/><path d="M560.35,830.91a64.07,64.07,0,1,1,64.07-64.07A64.14,64.14,0,0,1,560.35,830.91Zm0-111.85a47.78,47.78,0,1,0,47.78,47.78A47.83,47.83,0,0,0,560.35,719.06Z"/><path d="M559.84,888.43A124.38,124.38,0,1,1,684.21,764.06,124.52,124.52,0,0,1,559.84,888.43Zm0-232.46A108.08,108.08,0,1,0,667.92,764.06,108.21,108.21,0,0,0,559.84,656Z"/><path d="M559,588.22a10.86,10.86,0,0,1-10.86-10.86v-21a10.86,10.86,0,1,1,21.72,0v21A10.86,10.86,0,0,1,559,588.22Z"/><path d="M559,629.21a10.86,10.86,0,0,1-10.86-10.75l0-3.49a10.86,10.86,0,0,1,10.75-11H559a10.86,10.86,0,0,1,10.86,10.75l0,3.49a10.86,10.86,0,0,1-10.75,11Z"/><path d="M663,615a10.86,10.86,0,0,1-8.53-17.58L668,580.15a10.86,10.86,0,1,1,17.07,13.43l-13.57,17.24A10.84,10.84,0,0,1,663,615Z"/><path d="M639.06,650.22a10.86,10.86,0,0,1-8.6-17.49l2.23-2.9a10.86,10.86,0,1,1,17.21,13.25l-2.23,2.9A10.84,10.84,0,0,1,639.06,650.22Z"/><path d="M673.52,958.77a10.84,10.84,0,0,1-8.54-4.15l-13.57-17.24A10.86,10.86,0,0,1,668.48,924l13.57,17.24a10.86,10.86,0,0,1-8.53,17.58Z"/><path d="M638.25,909.18a10.85,10.85,0,0,1-8.61-4.24l-2.23-2.9a10.86,10.86,0,1,1,17.21-13.25l2.23,2.9a10.86,10.86,0,0,1-8.6,17.49Z"/><path d="M453.47,615.61a10.84,10.84,0,0,1-8.54-4.15l-13.57-17.24a10.86,10.86,0,1,1,17.07-13.43L462,598a10.86,10.86,0,0,1-8.53,17.58Z"/><path d="M477.41,650.86a10.84,10.84,0,0,1-8.61-4.24l-2.23-2.9a10.86,10.86,0,1,1,17.21-13.25l2.23,2.9a10.86,10.86,0,0,1-8.6,17.49Z"/><path d="M446.71,960.14a10.86,10.86,0,0,1-8.53-17.58l13.57-17.24a10.86,10.86,0,1,1,17.07,13.43L455.25,956A10.84,10.84,0,0,1,446.71,960.14Z"/><path d="M482,910.55a10.86,10.86,0,0,1-8.6-17.49l2.23-2.9a10.86,10.86,0,1,1,17.21,13.25l-2.23,2.9A10.84,10.84,0,0,1,482,910.55Z"/><path d="M733.64,687A10.86,10.86,0,0,1,729.59,666l20.36-8.18A10.86,10.86,0,1,1,758,678l-20.36,8.18A10.84,10.84,0,0,1,733.64,687Z"/><path d="M691.16,704.73a10.86,10.86,0,0,1-4.15-20.9l3.38-1.4a10.86,10.86,0,0,1,8.3,20.07l-3.38,1.4A10.83,10.83,0,0,1,691.16,704.73Z"/><path d="M749.95,887.17a10.81,10.81,0,0,1-4-.79l-20.36-8.18a10.86,10.86,0,1,1,8.1-20.16L754,866.23a10.86,10.86,0,0,1-4.05,20.94Z"/><path d="M690.49,862.65a10.83,10.83,0,0,1-4.15-.83l-3.38-1.4a10.86,10.86,0,1,1,8.3-20.07l3.38,1.4a10.86,10.86,0,0,1-4.15,20.9Z"/><path d="M385.41,686.28a10.81,10.81,0,0,1-5.76-1.66L361.06,673a10.86,10.86,0,0,1,11.55-18.4l18.58,11.66a10.86,10.86,0,0,1-5.78,20.06Z"/><path d="M424.07,711.28a10.81,10.81,0,0,1-5.86-1.72l-3.08-2a10.86,10.86,0,1,1,11.73-18.28l3.08,2a10.86,10.86,0,0,1-5.88,20Z"/><path d="M375,893.74a10.86,10.86,0,0,1-5.78-20.06L387.79,862a10.86,10.86,0,1,1,11.55,18.4l-18.58,11.66A10.81,10.81,0,0,1,375,893.74Z"/><path d="M429.16,859.05a10.86,10.86,0,0,1-5.88-20l3.08-2a10.86,10.86,0,1,1,11.73,18.28l-3.08,2A10.81,10.81,0,0,1,429.16,859.05Z"/><path d="M758.27,778.16a10.86,10.86,0,0,1-.45-21.71l21.92-.93a10.86,10.86,0,0,1,.92,21.7l-21.92.93Z"/><path d="M709.18,779.91a10.86,10.86,0,0,1-.56-21.71l3.65-.19a10.86,10.86,0,0,1,1.14,21.69l-3.65.19Z"/><path d="M364.35,779.4h-.47L342,778.47a10.86,10.86,0,1,1,.92-21.7l21.92.93a10.86,10.86,0,0,1-.45,21.71Z"/><path d="M413.45,781.15h-.58l-3.65-.19a10.86,10.86,0,0,1,1.14-21.69l3.65.19a10.86,10.86,0,0,1-.56,21.71Z"/><path class="cls-2" d="M761.21,883"/><path class="cls-2" d="M803.46,956.53"/><path d="M561.17,987.45a10.86,10.86,0,0,1-10.86-10.72L550,954.79a10.86,10.86,0,0,1,10.72-11h.15a10.86,10.86,0,0,1,10.86,10.72l.29,21.94a10.86,10.86,0,0,1-10.72,11Z"/><path d="M560.39,928a10.86,10.86,0,0,1-10.85-10.61l-.09-3.66a10.86,10.86,0,1,1,21.72-.51l.09,3.66A10.86,10.86,0,0,1,560.65,928Z"/><path d="M125.33,375.33a10.86,10.86,0,0,1-10.86-10.86v-48.7a10.86,10.86,0,0,1,21.72,0v48.7A10.86,10.86,0,0,1,125.33,375.33Z"/><line class="cls-3" x1="979.99" y1="617.93" x2="979.99" y2="619.14"/><path d="M980,630a10.86,10.86,0,0,1-10.86-10.86v-1.21a10.86,10.86,0,0,1,21.72,0v1.21A10.86,10.86,0,0,1,980,630Z"/><path d="M980,547.89A10.86,10.86,0,0,1,969.11,537V509.62a10.86,10.86,0,1,1,21.72,0V537A10.86,10.86,0,0,1,980,547.89Z"/><path d="M124.92,569.15a10.86,10.86,0,0,1-10.86-10.86V536.66a10.86,10.86,0,1,1,21.72,0v21.63A10.86,10.86,0,0,1,124.92,569.15Z"/><path d="M124.92,610.74a10.86,10.86,0,0,1-10.86-10.86v-8.32a10.86,10.86,0,0,1,21.72,0v8.32A10.86,10.86,0,0,1,124.92,610.74Z"/><path d="M980.08,485.61a10.86,10.86,0,0,1-10.86-10.86v-10a10.86,10.86,0,1,1,21.72,0v10A10.86,10.86,0,0,1,980.08,485.61Z"/><line class="cls-4" x1="980.06" y1="576.82" x2="980.06" y2="586.25"/><path d="M980.06,597.11a10.86,10.86,0,0,1-10.86-10.86v-9.43a10.86,10.86,0,0,1,21.72,0v9.43A10.86,10.86,0,0,1,980.06,597.11Z"/><path d="M728.86,530.29H401.1a33.58,33.58,0,0,1-33.54-33.54V436a189.55,189.55,0,0,1,189-189h15A191.31,191.31,0,0,1,762.4,437.71v59A33.58,33.58,0,0,1,728.86,530.29ZM556.59,274.08c-89.26,0-161.88,72.62-161.88,161.88v60.79a6.47,6.47,0,0,0,6.39,6.39H728.86a6.47,6.47,0,0,0,6.39-6.39v-59c0-90.23-73.41-163.64-163.64-163.64Z"/><path d="M125.2,799.89a81.3,81.3,0,1,1,81.3-81.3A81.4,81.4,0,0,1,125.2,799.89Zm0-140.88a59.58,59.58,0,1,0,59.58,59.58A59.65,59.65,0,0,0,125.2,659Z"/><path d="M1079.51,993H880.43a23,23,0,0,1-23-23V933.09A117.57,117.57,0,0,1,974.88,815.66H984a118.64,118.64,0,0,1,118.5,118.5V970A23,23,0,0,1,1079.51,993ZM974.88,837.38a95.82,95.82,0,0,0-95.71,95.71V970a1.3,1.3,0,0,0,1.26,1.27h199.08a1.3,1.3,0,0,0,1.27-1.27V934.16A96.89,96.89,0,0,0,984,837.38Z"/><path d="M226.59,990.43H23.25A23.27,23.27,0,0,1,0,967.18V929.46A119.85,119.85,0,0,1,119.71,809.75H129a120.94,120.94,0,0,1,120.8,120.8v36.63A23.27,23.27,0,0,1,226.59,990.43Zm-106.87-159a98.1,98.1,0,0,0-98,98v37.72a1.56,1.56,0,0,0,1.52,1.53H226.59a1.56,1.56,0,0,0,1.52-1.53V930.55A99.19,99.19,0,0,0,129,831.47Z"/></g></g></svg>