<svg xmlns="http://www.w3.org/2000/svg" viewBox="0 0 1159.52 1005.07"><title>Asset 27</title><g id="Layer_2" data-name="Layer 2"><g id="manageservices"><path d="M348.85,233A116.49,116.49,0,1,1,465.34,116.49,116.62,116.62,0,0,1,348.85,233Zm0-200.25a83.76,83.76,0,1,0,83.76,83.76A83.86,83.86,0,0,0,348.85,32.73Z"/><path d="M814,238.43A116.49,116.49,0,1,1,930.51,121.94,116.62,116.62,0,0,1,814,238.43Zm0-200.25a83.76,83.76,0,1,0,83.76,83.76A83.86,83.86,0,0,0,814,38.18Z"/><path d="M1043,621.12a116.49,116.49,0,1,1,116.49-116.49A116.62,116.62,0,0,1,1043,621.12Zm0-200.25a83.76,83.76,0,1,0,83.76,83.76A83.86,83.86,0,0,0,1043,420.87Z"/><path d="M809.23,1001.79A116.49,116.49,0,1,1,925.72,885.3,116.62,116.62,0,0,1,809.23,1001.79Zm0-200.25A83.76,83.76,0,1,0,893,885.3,83.86,83.86,0,0,0,809.23,801.54Z"/><path d="M347.85,1005.07A116.49,116.49,0,1,1,464.34,888.57,116.62,116.62,0,0,1,347.85,1005.07Zm0-200.25a83.76,83.76,0,1,0,83.76,83.76A83.86,83.86,0,0,0,347.85,804.81Z"/><path d="M116.49,618.42A116.49,116.49,0,1,1,233,501.93,116.62,116.62,0,0,1,116.49,618.42Zm0-200.25a83.76,83.76,0,1,0,83.76,83.76A83.86,83.86,0,0,0,116.49,418.17Z"/><rect x="685.12" y="245.94" width="103.93" height="27.27" transform="translate(146.4 771.21) rotate(-60.3)"/><rect x="404.97" y="197.17" width="27.27" height="110.62" transform="translate(-69.41 223.88) rotate(-27.74)"/><rect x="207.89" y="488.3" width="122.52" height="27.27"/><rect x="824.12" y="491" width="120.15" height="27.27"/><rect x="724" y="697.41" width="27.27" height="111.47" transform="translate(-276.48 465.23) rotate(-29.75)"/><rect x="364.83" y="736.65" width="119.3" height="27.27" transform="translate(-437.35 731.19) rotate(-59.23)"/><path d="M579.66,571.5a68.81,68.81,0,1,1,68.81-68.81A68.89,68.89,0,0,1,579.66,571.5Zm0-104.89a36.08,36.08,0,1,0,36.08,36.08A36.12,36.12,0,0,0,579.66,466.61Z"/><path d="M577.67,723.56q-1.67,0-3.35-.06a96.94,96.94,0,0,1-37.29-8.8,9.54,9.54,0,0,1-5.49-9.88l3.54-27.65a70.34,70.34,0,0,1-54.76-23.87l-18.27,22.28a9.52,9.52,0,0,1-7.81,3.48c-7.87-.36-27.82-3.06-42.94-20.4a60.53,60.53,0,0,1-14.37-34,9.53,9.53,0,0,1,2.78-7.63l21.21-21a71.54,71.54,0,0,1-21.3-52.34l-27.17,2.67a9.55,9.55,0,0,1-8.7-4,64.58,64.58,0,0,1-11.91-33.52,65.3,65.3,0,0,1,10.59-39.47,9.55,9.55,0,0,1,8.55-4.28L401.15,467a70.49,70.49,0,0,1,24.63-57.61L401,388.68a9.54,9.54,0,0,1-2.86-10.59,81.61,81.61,0,0,1,51-49.59,9.54,9.54,0,0,1,9.68,2.24l23,22.53A63.32,63.32,0,0,1,533,330.35l-2.8-32.61a9.54,9.54,0,0,1,6.1-9.73,106.79,106.79,0,0,1,78,.69,9.54,9.54,0,0,1,5.89,10.22l-4.81,33.21a86.78,86.78,0,0,1,50.05,21.78l21.84-25.72a9.54,9.54,0,0,1,9-3.21,70,70,0,0,1,55.86,53.65,9.54,9.54,0,0,1-2.83,9.07l-25.09,23.21a63,63,0,0,1,21.08,52.7l32.14-5.36a9.54,9.54,0,0,1,9.57,4.21,80.71,80.71,0,0,1,13,44.7,79.88,79.88,0,0,1-10.09,37.5,9.54,9.54,0,0,1-10.16,4.72l-34.54-6.73a57.75,57.75,0,0,1-20.85,50.77l26.38,25.42a9.54,9.54,0,0,1,2.13,10.68,99.71,99.71,0,0,1-50.53,51.23,9.54,9.54,0,0,1-11.08-2.39l-21.6-24.53a56,56,0,0,1-53.52,25l2.29,28.69a9.54,9.54,0,0,1-6.11,9.67A96.9,96.9,0,0,1,577.67,723.56ZM551.4,700a78.47,78.47,0,0,0,47.42,1.59l-2.73-34.2a9.54,9.54,0,0,1,12.85-9.69,38.86,38.86,0,0,0,27.55-.16c15.46-6.18,21-20.71,22-23.56a9.54,9.54,0,0,1,16.2-3.26l26,29.56a80.58,80.58,0,0,0,31.82-32.43L702.6,599a9.54,9.54,0,0,1,2.26-15.36,40.18,40.18,0,0,0,17.94-18.42c6.59-14,2.42-27.5,1-31.29a9.54,9.54,0,0,1,10.74-12.74l41.69,8.12a60.36,60.36,0,0,0,4.71-22.39,61.1,61.1,0,0,0-6.83-28.72l-39.2,6.53a9.54,9.54,0,0,1-10.64-12.36,45.31,45.31,0,0,0,0-27.83,45.88,45.88,0,0,0-19.83-24.61,9.54,9.54,0,0,1-1.6-15.2l29.22-27a50.74,50.74,0,0,0-34-32.67L673.33,374.2a9.54,9.54,0,0,1-7.22,3.37h-.06a9.54,9.54,0,0,1-7.2-3.28,68,68,0,0,0-54-23.39A9.54,9.54,0,0,1,595,340l5.22-36.06a87.61,87.61,0,0,0-50.39-.36l3.17,37a9.54,9.54,0,0,1-11.76,10.08,44.52,44.52,0,0,0-49.67,22,9.54,9.54,0,0,1-15.05,2.25l-26.73-26.19a62.38,62.38,0,0,0-31.22,29.91l28.84,24a9.54,9.54,0,0,1-1.33,15.58,51.92,51.92,0,0,0-24.68,56.89,9.54,9.54,0,0,1-9.88,11.66l-35.86-2.18a45,45,0,0,0,.73,42.26l32.87-3.23a9.54,9.54,0,0,1,10.3,11.29,53.71,53.71,0,0,0,3.22,30.67,53,53,0,0,0,17.77,22.25,9.54,9.54,0,0,1,1.13,14.51l-25.18,25a40.71,40.71,0,0,0,9.13,18.89c8.07,9.25,18.5,12.35,24.87,13.39l22.77-27.77a9.54,9.54,0,0,1,15.56,1.15A51.76,51.76,0,0,0,544.13,657a9.54,9.54,0,0,1,11.42,10.55Z"/></g></g></svg>