<svg xmlns="http://www.w3.org/2000/svg" viewBox="0 0 1027.98 1041.24"><defs><style>.cls-1{fill:none;stroke:#000;stroke-miterlimit:10;stroke-width:25px;}</style></defs><title>Asset 46</title><g id="Layer_2" data-name="Layer 2"><g id="managed_service" data-name="managed service"><path d="M575.26,1041.24c-65.77,0-126.19-35.36-155.45-91.6-32.15-61.8-13.91-122.51-4.66-145.59L216.6,570.33c-24.12,6.18-95.12,18.43-155.18-30.84A167.49,167.49,0,0,1,8.7,462.38a172.81,172.81,0,0,1-4-94.15l5.88-24.82,96.35,119.42,106-13.51,21.86-99.92L137.06,233.51l28.21,1a211.64,211.64,0,0,1,81.13,19c19.24,8.84,64.28,29.54,86.54,78.15a145.29,145.29,0,0,1,11.31,40.1c5.66,41.6-6.64,77-19.76,101.48L530.08,703.75c53-17.43,111.55-7.15,154.74,27.67a162.8,162.8,0,0,1,51.81,74.19,166.37,166.37,0,0,1,4.77,90.93l-5.24,23L638.44,815,534.1,826.46,510.18,927.35,609.08,1040l-26.11,1.1C580.4,1041.19,577.82,1041.24,575.26,1041.24ZM224.88,541.46,444.45,799.93,441,807.21c-5.33,11.29-30.34,70.68,1,130.89,21.74,41.79,63.84,70.06,111.67,76.66l-70.79-80.62,31-130.6,134.31-14.77L720.4,866c2-44.05-16.81-87.37-51.27-115.15-38.49-31-91.46-39-138.24-20.87l-8.08,3.14L293.74,476.39l4.73-7.89c12.53-20.91,26.35-54.06,21-93.31a119.6,119.6,0,0,0-9.27-33.07c-18.4-40.18-56.12-57.51-74.25-65.85A183,183,0,0,0,194.62,263l67.25,79.74L233.61,471.9,96.22,489.41l-71-88c-2,45.4,17,90,52.08,118.78,25.25,20.72,55.8,31.23,90.79,31.23h.12c27.77,0,47.77-6.83,48.61-7.12Z"/><path class="cls-1" d="M309.49,468.88"/><polygon points="720.14 802.54 710.24 779.58 821.22 731.71 795.01 657.63 853.76 600.38 927.91 639.16 983.85 523.3 911.74 485.83 915.55 405.06 999.03 386.51 976.12 261.99 885.53 282.38 840.54 223.43 898.39 140.11 798.53 67.93 745.45 143.13 668.12 122.59 658.58 26.14 537.36 32.1 541.99 129.32 468.19 153.92 403.61 86.06 314.38 172.3 378.77 237.8 339.19 306.31 285.19 303.85 286.33 278.88 325.14 280.65 347.61 241.76 278.88 171.85 404.35 50.57 475.36 125.18 516.11 111.6 511.2 8.36 681.12 0 691.29 102.88 735.05 114.5 792.69 32.85 932.92 134.22 871.46 222.73 895.68 254.47 996 231.89 1027.98 405.69 939.63 425.32 937.47 471.03 1016.91 512.31 939.2 673.28 858.23 630.93 823.91 664.37 852.59 745.4 720.14 802.54"/><path d="M620.43,568.69C532.52,568.69,461,497.17,461,409.26s71.52-159.42,159.42-159.42,159.42,71.52,159.42,159.42S708.34,568.69,620.43,568.69Zm0-288.85A129.42,129.42,0,1,0,749.85,409.26,129.57,129.57,0,0,0,620.43,279.84Z"/></g></g></svg>