<svg xmlns="http://www.w3.org/2000/svg" viewBox="0 0 976.68 1038.99"><title>Asset 44</title><g id="Layer_2" data-name="Layer 2"><g id="MDM"><path d="M623.56,1039c-113.33,0-316.92-3.73-346.2-4.28l-1.44,0-1.41-.3c-6-1.29-20.91-5.9-28.54-20.81-8.23-16.07-2.42-33.71,5.06-43.94,9.51-13,21.88-14.88,33.85-16.7a125.33,125.33,0,0,0,23.75-5.42c29.06-10,42.78-25.52,49.17-36.74a62.48,62.48,0,0,0,5.85-14.08L58,895l-1.89-.52c-21.19-5.77-36.72-16.3-46.16-31.29C-.15,847.14,0,830.49,0,825c.12-16.34.09-90.81,0-203.54C0,514.85,0,368.83,0,202.07v-1.51l.3-1.48a86.69,86.69,0,0,1,21.25-41.55,87.67,87.67,0,0,1,47.51-26.22l1.18-.22,85.68-2.47.29,88.93-70.49-.43L85,720l803.87-.56.56-501.93-54.2.52V131.74L901.69,130l2.37.74,1.92.61c11.35,3.68,32.47,10.51,46.84,23.92,7,6.53,19.2,21.43,22.23,47.81l.1.83v.84l1.53,626-.17,1.12c-1.2,8.06-7.1,35.65-32.58,52.33a72.74,72.74,0,0,1-35.59,11.58l-.84,0L612,896.49a65.34,65.34,0,0,0,3,8.36c9.51,21.79,28.93,33.65,39.67,38.79,12.43,5.95,22,7,31.3,8.06,12.08,1.35,25.76,2.88,36.49,16.93,10.57,13.84,15.56,37.3,4,53.54-6.39,9-16.92,14.19-31.3,15.54C685.26,1038.63,658.76,1039,623.56,1039Zm-343.93-34.24c129.62,2.42,380.3,6.13,412.68,3.08,7.79-.73,9.51-2.85,9.68-3.09,2-2.75,1.22-11.87-3.4-17.92-2.7-3.54-5.26-4.13-16-5.33-10.09-1.13-23.92-2.67-40.92-10.81-14.5-6.94-40.83-23.16-54.22-53.85a97.92,97.92,0,0,1-8-34.59l-.76-15.68,328.26-.8a42.83,42.83,0,0,0,20.52-6.71c14.12-9.24,18.13-24.69,19.17-30.62l-1.52-622.77c-2.05-16.31-8.87-24.84-12.79-28.5-9.25-8.62-25.61-14.07-34.89-17.08l-32.26.86v26.75l23.46-.22a27.37,27.37,0,0,1,19.94,4.73A27,27,0,0,1,919,207.68l.43,1.76-.57,516.5a22.46,22.46,0,0,1-25.21,23.45L79,750a23.1,23.1,0,0,1-19.58-8.73A22.82,22.82,0,0,1,55,724.57l.76-513.25A23.49,23.49,0,0,1,79,187.08h.23l46.89.29L126,159.49,73.59,161a57.35,57.35,0,0,0-30,16.91A56.58,56.58,0,0,0,30,203.68c0,166.09,0,311.5,0,417.78,0,112.8.07,187.32,0,203.69,0,4.08-.1,13.43,5.33,22.05,5.07,8.05,14.09,14,26.84,17.81l334.75,1.87-.82,15.69a96.21,96.21,0,0,1-12.26,43c-8.94,15.7-27.55,37.16-65.44,50.25a152.94,152.94,0,0,1-29,6.72c-10.54,1.6-12.26,2.18-14.14,4.75-2,2.8-4.56,8.68-2.57,12.56C274,1002.48,277.28,1004,279.63,1004.75ZM893.47,217.08h0Z"/><circle cx="488.34" cy="810.5" r="34.6"/><path d="M249.92,653.7l-2.06-.74a67.94,67.94,0,0,1-44.19-53.31l-.16-1,1.15-544.92.2-1.09a67.45,67.45,0,0,1,12.67-28.84,68.18,68.18,0,0,1,33-23.2L252.42,0l366,.58,1,.17a69.14,69.14,0,0,1,40.71,23.17,69,69,0,0,1,15.92,45.85l-.38,12.1-399,.4-1.54-.44a2.87,2.87,0,0,0-.73,0,6.54,6.54,0,0,0-.78,2.33c-1.35,11.91-1.3,188.87.12,451.11a9.13,9.13,0,0,0,2.76,5.64,8.56,8.56,0,0,0,3.68,1.92l388.4-.58,2.62,9c5.23,18.06,5.42,36.5.58,53.32-1.91,6.6-5.09,17.66-14.75,28.38a65.59,65.59,0,0,1-34.62,19.87l-1.34.3Zm-21.4-57.06a42.92,42.92,0,0,0,25.88,32.06l363.81-.57a40.4,40.4,0,0,0,20.24-11.9c5.8-6.45,7.74-13.17,9.3-18.58a68.8,68.8,0,0,0,1.49-30.4L278,567.81l-1-.15a33.54,33.54,0,0,1-17.32-8.23,34.38,34.38,0,0,1-10.95-22.67l0-.84c-.89-163.73-2.06-440.61.14-455.39,1.31-8.85,5.92-15.25,9.79-18.3l0,0a26.41,26.41,0,0,1,21.13-4.94l369.85-.37A42.38,42.38,0,0,0,641,40a43.66,43.66,0,0,0-24.78-14.45L256.47,25A43,43,0,0,0,237.4,39a42.35,42.35,0,0,0-7.74,17.09ZM275,81.77l.11,0Zm-.27-.38h0Z"/><circle cx="446.74" cy="596.26" r="21.95"/><path d="M728.61,495.1H596.89c-27.38,0-49.65-23-49.65-51.3V151.59c0-28.29,22.27-51.3,49.65-51.3H728.61c27.38,0,49.65,23,49.65,51.3V443.79C778.26,472.08,756,495.1,728.61,495.1ZM596.89,120.28c-16.35,0-29.65,14-29.65,31.3V443.79c0,17.26,13.3,31.3,29.65,31.3H728.61c16.35,0,29.65-14,29.65-31.3V151.59c0-17.26-13.3-31.3-29.65-31.3Z"/><circle cx="663.92" cy="457.4" r="13.44"/><path d="M744.26,433H583.77V149.61H744.26ZM598.77,418H729.26V164.61H598.77Z"/></g></g></svg>