<svg xmlns="http://www.w3.org/2000/svg" viewBox="0 0 1067.17 1055.98"><title>Asset 33</title><g id="Layer_2" data-name="Layer 2"><g id="networking"><path d="M553.58,689.53c-88.37,0-160.27-71.9-160.27-160.27S465.21,369,553.58,369s160.27,71.9,160.27,160.27S642,689.53,553.58,689.53Zm0-285.53A125.27,125.27,0,1,0,678.85,529.26,125.41,125.41,0,0,0,553.58,404Z"/><path d="M150.2,340.52a74.7,74.7,0,1,1,74.7-74.7A74.79,74.79,0,0,1,150.2,340.52Zm0-124.41a49.7,49.7,0,1,0,49.7,49.7A49.76,49.76,0,0,0,150.2,216.12Z"/><path d="M968.14,173.73a74.7,74.7,0,1,1,74.7-74.7A74.79,74.79,0,0,1,968.14,173.73Zm0-124.41a49.7,49.7,0,1,0,49.7,49.7A49.76,49.76,0,0,0,968.14,49.33Z"/><path d="M114.23,1056a74.7,74.7,0,1,1,74.7-74.7A74.79,74.79,0,0,1,114.23,1056Zm0-124.41a49.7,49.7,0,1,0,49.7,49.7A49.76,49.76,0,0,0,114.23,931.58Z"/><path d="M824.13,1040.92a74.7,74.7,0,1,1,74.7-74.7A74.79,74.79,0,0,1,824.13,1040.92Zm0-124.41a49.7,49.7,0,1,0,49.7,49.7A49.76,49.76,0,0,0,824.13,916.52Z"/><path d="M111.39,766.13A111.39,111.39,0,1,1,222.77,654.75,111.51,111.51,0,0,1,111.39,766.13Zm0-197.77a86.39,86.39,0,1,0,86.39,86.39A86.48,86.48,0,0,0,111.39,568.36Z"/><path d="M396.33,986.44a96.91,96.91,0,1,1,96.91-96.91A97,97,0,0,1,396.33,986.44Zm0-168.81a71.91,71.91,0,1,0,71.91,71.91A72,72,0,0,0,396.33,817.63Z"/><path d="M970.27,793.44a96.91,96.91,0,1,1,96.91-96.91A97,97,0,0,1,970.27,793.44Zm0-168.81a71.91,71.91,0,1,0,71.91,71.91A72,72,0,0,0,970.27,624.63Z"/><path d="M886.33,449.26a96.91,96.91,0,1,1,96.91-96.9A97,97,0,0,1,886.33,449.26Zm0-168.81a71.91,71.91,0,1,0,71.91,71.91A72,72,0,0,0,886.33,280.45Z"/><path d="M560,193.81A96.91,96.91,0,1,1,656.86,96.9,97,97,0,0,1,560,193.81ZM560,25a71.91,71.91,0,1,0,71.91,71.9A72,72,0,0,0,560,25Z"/><rect x="208.65" y="587.07" width="205.91" height="25" transform="matrix(0.96, -0.27, 0.27, 0.96, -148.97, 105.15)"/><rect x="169.5" y="926.85" width="137.91" height="25" transform="translate(-265.62 111.62) rotate(-17.1)"/><rect x="250.91" y="678.89" width="25" height="186.38" transform="translate(-502.53 491.32) rotate(-51.03)"/><rect x="378.19" y="725.47" width="157.96" height="25" transform="translate(-402.51 858.63) rotate(-66.21)"/><rect x="699.77" y="626.43" width="25" height="312.93" transform="translate(-301.51 478.74) rotate(-31)"/><rect x="608.83" y="787.16" width="25" height="286.01" transform="translate(-406.76 1370.94) rotate(-79.46)"/><rect x="8.75" y="429.44" width="229.08" height="25" transform="translate(-329.07 518.64) rotate(-84.04)"/><rect x="198.8" y="168.12" width="292.63" height="25" transform="translate(-43.05 148.12) rotate(-22.84)"/><rect x="301.56" y="240.67" width="25" height="271.67" transform="translate(-171.56 444.06) rotate(-58.09)"/><rect x="459.44" y="265.65" width="193.81" height="25" transform="translate(257.66 823.74) rotate(-87.86)"/><rect x="715.74" y="95.46" width="25" height="247.43" transform="translate(134.02 693.8) rotate(-55.37)"/><rect x="762.65" y="-32.82" width="25" height="261.58" transform="translate(670.88 872.3) rotate(-89.53)"/><rect x="780.36" y="515.16" width="25" height="215.55" transform="translate(-69.82 1144.91) rotate(-69.33)"/><rect x="937" y="422.12" width="25" height="181.4" transform="translate(-85.13 206.11) rotate(-11.86)"/><circle cx="554.54" cy="529.72" r="98.29"/></g></g></svg>