<svg xmlns="http://www.w3.org/2000/svg" viewBox="0 0 1064.16 1053"><title>Asset 40</title><g id="Layer_2" data-name="Layer 2"><g id="networksecurity"><path d="M149.8,339.61a74.52,74.52,0,1,1,74.52-74.52A74.61,74.61,0,0,1,149.8,339.61Zm0-124a49.52,49.52,0,1,0,49.52,49.52A49.58,49.58,0,0,0,149.8,215.57Z"/><path d="M965.38,173.3a74.52,74.52,0,1,1,74.52-74.52A74.61,74.61,0,0,1,965.38,173.3Zm0-124a49.52,49.52,0,1,0,49.52,49.52A49.58,49.58,0,0,0,965.38,49.26Z"/><path d="M113.93,1053a74.52,74.52,0,1,1,74.52-74.52A74.61,74.61,0,0,1,113.93,1053Zm0-124a49.52,49.52,0,1,0,49.52,49.52A49.58,49.58,0,0,0,113.93,929Z"/><path d="M821.78,1038a74.52,74.52,0,1,1,74.52-74.52A74.61,74.61,0,0,1,821.78,1038Zm0-124a49.52,49.52,0,1,0,49.52,49.52A49.58,49.58,0,0,0,821.78,913.94Z"/><path d="M111.1,764a111.1,111.1,0,1,1,111.1-111.1A111.23,111.23,0,0,1,111.1,764Zm0-197.2a86.1,86.1,0,1,0,86.1,86.1A86.2,86.2,0,0,0,111.1,566.79Z"/><path d="M395.22,983.66A96.66,96.66,0,1,1,491.88,887,96.77,96.77,0,0,1,395.22,983.66Zm0-168.32A71.66,71.66,0,1,0,466.88,887,71.74,71.74,0,0,0,395.22,815.34Z"/><path d="M967.5,791.22a96.66,96.66,0,1,1,96.66-96.66A96.77,96.77,0,0,1,967.5,791.22Zm0-168.32a71.66,71.66,0,1,0,71.66,71.66A71.74,71.74,0,0,0,967.5,622.9Z"/><path d="M883.8,448a96.66,96.66,0,1,1,96.66-96.66A96.77,96.77,0,0,1,883.8,448Zm0-168.32a71.66,71.66,0,1,0,71.66,71.66A71.74,71.74,0,0,0,883.8,279.71Z"/><path d="M558.38,193.32A96.66,96.66,0,1,1,655,96.66,96.77,96.77,0,0,1,558.38,193.32Zm0-168.32A71.66,71.66,0,1,0,630,96.66,71.74,71.74,0,0,0,558.38,25Z"/><rect x="208" y="583.07" width="235.51" height="25" transform="translate(-139.91 101.63) rotate(-14.64)"/><rect x="169.05" y="924.17" width="137.51" height="25" transform="translate(-264.86 111.31) rotate(-17.1)"/><rect x="250.18" y="676.96" width="25" height="185.84" transform="translate(-501.09 489.94) rotate(-51.03)"/><rect x="371.04" y="714.02" width="177.93" height="25" transform="translate(-390.34 854.4) rotate(-66.21)"/><rect x="692.59" y="606.06" width="25" height="332.05" transform="translate(-296.96 473.5) rotate(-31)"/><rect x="607.07" y="784.92" width="25" height="285.18" transform="translate(-405.59 1367.04) rotate(-79.46)"/><rect x="8.76" y="428.2" width="228.41" height="25" transform="translate(-328.13 517.21) rotate(-84.04)"/><rect x="198.26" y="167.63" width="291.79" height="25" transform="translate(-42.93 147.71) rotate(-22.84)"/><rect x="300.68" y="240.01" width="25" height="270.88" transform="translate(-171.07 442.82) rotate(-58.09)"/><rect x="452.88" y="270.1" width="203.69" height="25" transform="matrix(0.04, -1, 1, 0.04, 252.44, 826.85)"/><rect x="713.67" y="95.22" width="25" height="246.71" transform="translate(133.62 691.84) rotate(-55.37)"/><rect x="760.44" y="-32.69" width="25" height="260.83" transform="translate(668.94 869.84) rotate(-89.53)"/><rect x="763.36" y="492.39" width="25" height="246.44" transform="translate(-73.97 1124.26) rotate(-69.33)"/><rect x="934.29" y="420.93" width="25" height="180.88" transform="translate(-84.89 205.52) rotate(-11.86)"/><path d="M595.24,507.23h-9V474.88a22.06,22.06,0,0,0-22-22H536.68a21.41,21.41,0,0,0-21.39,21.39v33h-7a13.16,13.16,0,0,0-13.12,13.12V579.5a12.3,12.3,0,0,0,12.27,12.27h87.9a12.19,12.19,0,0,0,12.16-12.16V519.5A12.3,12.3,0,0,0,595.24,507.23Zm-39.46,48.87v11.83a4.43,4.43,0,0,1-8.87,0V556.11a7.39,7.39,0,1,1,8.87,0Zm18.62-48.87H527.11v-33a9.58,9.58,0,0,1,9.57-9.57h27.51a10.22,10.22,0,0,1,10.21,10.21Z"/><path d="M549.21,685.77l-6.34-3c-36-17-65.74-42.75-86.06-74.4C441.17,584,434.79,562,431,548.78c-10.57-36.53-13.3-75-8.13-114.24l1.17-8.91,125.62-47.32,124.85,46.5,1.22,8.88A275.24,275.24,0,0,1,670,539.49c-4.4,17.33-11.77,46.32-33.37,76.69-20.19,28.4-48.23,51.45-81.07,66.65ZM451.57,447.31a246.6,246.6,0,0,0,8.22,93.14c3.57,12.35,9,31,22.26,51.73,19.76,30.78,46.43,49.5,67.29,60.33a173.88,173.88,0,0,0,62.85-53.71c18.35-25.8,24.6-50.41,28.74-66.7a244.27,244.27,0,0,0,6.11-85.5L549.7,410.34Z"/></g></g></svg>