<svg xmlns="http://www.w3.org/2000/svg" viewBox="0 0 856.71 1045.3"><title>Asset 47</title><g id="Layer_2" data-name="Layer 2"><g id="remote_support" data-name="remote support"><path d="M189.71,489.59,188,324.79,189.74,303l-13.09-3.61c1.93-19.52,11.76-95.88,77-156.17,67.84-62.74,149.07-65,179.09-63.9,14.82.56,123.84,6.49,192.55,98.38,35.66,47.69,44.45,97.12,47.09,121.92L658,302.93l1.21,18.72q-.53,34.62-.37,70.4.23,47.24,1.68,92.49a51.94,51.94,0,0,1,9.25,16c2.24,6.28,3.37,13.38,2.66,23.52-1.05,15.08-3,42.31-18,64.4-16,23.56-45.88,32.4-104.89,49.13-27.63,7.83-51,12.84-67.27,16-15.85-13.28-38.26-12.58-51.29,0a36.23,36.23,0,0,0-7.57,40.36c8.32,18.47,28.76,20.87,30.27,21,3.23.32,15.88,1.58,26.07-7.57A32.39,32.39,0,0,0,489.88,688l69.79-19.34C598,658.07,613,653.95,633.54,644.2c19.34-9.17,30.74-14.57,43-26.8,21.88-21.83,28.52-47.48,31.11-58a135.87,135.87,0,0,0,2.52-51.29,28.5,28.5,0,0,0,20.29-26.37c43.5-2.09,78.31-36.09,81.45-77.05,3.42-44.65-31.66-86.2-79.19-90-5.43-1.4-12-4.15-15.82-10.09-5.18-8.06-2.73-18.05-2.28-20.18,5.18-24.66-23.08-110.64-36.4-139.57C647.45,78,553.89,6.11,440.27.24,425.74-.51,297-5,205.68,98.61c-66.9,75.9-72.34,162.9-73,188.26a16,16,0,0,1-18.92,22.7C66.54,315.82,32.2,357.8,35.16,404c2.82,44.1,38.93,80.39,84.27,83.42a38.35,38.35,0,0,0,70.28,2.2Z"/><path d="M394.94,656.45,383,651.59a238,238,0,0,1-76.58-49.79c-18.46-17.93-34.67-40.74-49.55-69.71-17.21-33.5-49.23-95.87-45.91-179.73.78-19.69,2.08-52.65,12-87.67,12.23-43,34.34-78.05,65.72-104.12C338.32,119.35,394.8,113,424.75,113h1.08c25.14.13,89.37,5.66,142.81,54.14,27.9,25.32,47.65,58,58.7,97.06,9.18,32.48,10.81,63.14,12,85.53,2.1,39.32-1.79,116.86-51.4,194.33a327.72,327.72,0,0,1-72.71,80.24l-8.93,7.07-9.21-6.7c-6.06-4.41-22.46-14.48-43.8-12.73-32.51,2.65-49.87,30.27-51.75,33.41ZM424.85,143c-21.14,0-73,4.12-117,40.62-62.28,51.74-65.43,131.55-67,169.9-3,76,25.56,131.61,42.62,164.84,19.86,38.68,37.86,56.15,43.77,61.9a206.89,206.89,0,0,0,56.2,38.8c11.08-13.65,33.19-34.22,67.32-37a94.53,94.53,0,0,1,53.93,12,297,297,0,0,0,57.89-66.18c46.76-73,48.24-147.8,46.71-176.56-2.24-41.94-6-112.14-60.9-162-45.75-41.51-101.12-46.25-122.8-46.36Z"/><path d="M795.32,1045.3h-.27l-730.41-1.18-1.17-.19a76.15,76.15,0,0,1-41.21-20.66C-.51,1000.76-.42,971.61.15,963.21l.05-.78.13-.77a376.18,376.18,0,0,1,31.44-97.28c27.74-57.74,67.5-103.07,118.17-134.71,40.74-25.44,86.58-40.87,136.24-45.86l1.68-.17,1.67.21a210.47,210.47,0,0,1,47,11.44c13.83,5.12,22.12,9.88,30.89,14.93a280.61,280.61,0,0,0,29,14.93c19.16,8.53,30.84,13.47,48,15.67,15.75,2,28.19,3.63,39.08-2.21,4.43-2.37,6.45-4.69,10.86-9.77a175.26,175.26,0,0,1,19.29-19.46A203.18,203.18,0,0,1,542,688.89l3.39-2,4-.1c46.73-1.13,90.66,7.86,130.58,26.73a276,276,0,0,1,89,67.36c20.58,23.26,38.34,50.63,52.82,81.35C846,913.54,854,959.48,855.92,972.55c1.22,7.52,2.65,26.61-9.4,44.79-16.91,25.52-45.39,27.76-50.93,27.95ZM67.15,1014.12l727.62,1.18c2.1-.11,18-1.4,26.74-14.52,6.25-9.44,5.43-19.58,4.78-23.5l0-.28c-1.72-11.86-9.08-54.25-31.58-102C764.87,811.73,722,766.52,667.13,740.61c-34.52-16.31-72.51-24.34-113-23.93a173.1,173.1,0,0,0-20.76,15.38,144.79,144.79,0,0,0-16.26,16.44c-5.16,5.95-10,11.57-19.34,16.55-19.36,10.37-38.53,7.91-57.08,5.52-22.38-2.88-38.15-9.9-56.41-18a310.22,310.22,0,0,1-31.75-16.33c-8.32-4.78-14.88-8.56-26.35-12.8a180.39,180.39,0,0,0-38.65-9.59c-44.4,4.7-85.32,18.59-121.66,41.28C63.46,819,36.13,931.57,30,966c-.23,5,0,22.82,13.32,36A46,46,0,0,0,67.15,1014.12Z"/></g></g></svg>