<svg xmlns="http://www.w3.org/2000/svg" viewBox="0 0 652.18 1040.95"><title>Asset 24</title><g id="Layer_2" data-name="Layer 2"><g id="reseller"><path d="M326.22,334.35c92.18,0,167.17-75,167.17-167.17S418.4,0,326.22,0,159.05,75,159.05,167.17,234,334.35,326.22,334.35Zm0-293A125.79,125.79,0,1,1,200.43,167.17,125.93,125.93,0,0,1,326.22,41.38Z"/><path d="M30.82,701.29A20.69,20.69,0,0,0,51.51,680.6V627.33c0-120.76,98.25-219,219-219H384.45c121.58,0,220.49,98.91,220.49,220.49V680.6a20.69,20.69,0,0,0,41.38,0V628.81c0-69.68-27.31-135.37-76.91-185s-115.28-76.91-185-76.91H270.52c-69.29,0-134.6,27.16-183.92,76.47S10.13,558,10.13,627.33V680.6A20.69,20.69,0,0,0,30.82,701.29Z"/><path d="M326.92,787.92h0a20.69,20.69,0,0,0,20.66-20.72l-.18-114.07a20.69,20.69,0,0,0-20.69-20.66h0a20.69,20.69,0,0,0-20.66,20.72l.18,114.07A20.69,20.69,0,0,0,326.92,787.92Z"/><path d="M519.68,740.73,470,627.11a20.69,20.69,0,1,0-37.91,16.58l49.69,113.61a20.69,20.69,0,1,0,37.91-16.58Z"/><path d="M205.83,616.24A19,19,0,0,0,181,625.95L132.32,737.09a18.51,18.51,0,0,0,9.85,24.47A19,19,0,0,0,167,751.85l48.69-111.14A18.51,18.51,0,0,0,205.83,616.24Z"/><path d="M75.74,859.43a75.74,75.74,0,1,0,75.74,75.74A75.82,75.82,0,0,0,75.74,859.43Zm0,118.37a42.63,42.63,0,1,1,42.63-42.63A42.68,42.68,0,0,1,75.74,977.8Z"/><path d="M328.22,889.47A75.74,75.74,0,1,0,404,965.21,75.82,75.82,0,0,0,328.22,889.47Zm0,118.37a42.63,42.63,0,1,1,42.63-42.63A42.68,42.68,0,0,1,328.22,1007.84Z"/><path d="M576.45,864.39a75.74,75.74,0,1,0,75.74,75.74A75.82,75.82,0,0,0,576.45,864.39Zm0,118.37a42.63,42.63,0,1,1,42.63-42.63A42.68,42.68,0,0,1,576.45,982.76Z"/><path d="M520.29,836.07a20.69,20.69,0,0,0,37-18.51l-11.59-23.17a20.69,20.69,0,0,0-37,18.51Z"/><path d="M326.92,865.72A20.69,20.69,0,0,0,347.61,845V825.16a20.69,20.69,0,1,0-41.38,0V845A20.69,20.69,0,0,0,326.92,865.72Z"/><path d="M136,785.93a20.69,20.69,0,0,0-27.9,8.81l-9.66,18.58a20.69,20.69,0,1,0,36.71,19.09l9.66-18.58A20.69,20.69,0,0,0,136,785.93Z"/></g></g></svg>