<svg xmlns="http://www.w3.org/2000/svg" viewBox="0 0 819.74 967.81"><title>Asset 51</title><g id="Layer_2" data-name="Layer 2"><g id="security"><path d="M555.15,433.81H525.3V326.72a73,73,0,0,0-72.94-72.94H361.28a70.89,70.89,0,0,0-70.81,70.81V433.81H267.36a43.55,43.55,0,0,0-43.42,43.42V673a40.72,40.72,0,0,0,40.61,40.61h291a40.36,40.36,0,0,0,40.24-40.24v-199A40.72,40.72,0,0,0,555.15,433.81ZM423.54,595.26V634.4a14.68,14.68,0,0,1-29.35,0V595.26a24.46,24.46,0,1,1,29.35,0Zm62.62-161.44H329.61V324.59a31.71,31.71,0,0,1,31.67-31.67h91.08a33.84,33.84,0,0,1,33.8,33.81Z"/><path d="M409.64,967.81l-7.8-3.19C314,928.7,238.19,877.16,176.45,811.44,122.38,753.89,80,686.08,50.52,609.88,26.55,547.94,10.9,480.09,4,408.23c-11.28-117.91,4-215,11.1-251.28l2.15-11,391-146L804,144.94l2.07,11.23c8.26,44.82,20.4,136.63,8.93,248-7.23,70.23-22.87,136.82-46.48,197.95-29,75-70.21,142.35-122.58,200.2C583.64,871.14,506.72,925.7,417.37,964.45ZM52.36,175.56C37.7,259.27,1.34,566.63,205.6,784c56,59.57,124.43,106.74,203.58,140.3C490,888.12,559.63,838,616.33,775.42c195-215.36,168.94-501.63,152.4-600.81l-360.3-132Z"/></g></g></svg>