<svg xmlns="http://www.w3.org/2000/svg" viewBox="0 0 1223.97 867.54"><title>Asset 52</title><g id="Layer_2" data-name="Layer 2"><g id="serverscecurity"><path d="M946.18,213H106.51a106.51,106.51,0,0,1,0-213H946.18a106.51,106.51,0,0,1,0,213ZM106.51,35a71.51,71.51,0,0,0,0,143H946.18a71.51,71.51,0,0,0,0-143Z"/><path d="M955.49,245.13H115.82a106.51,106.51,0,1,0,0,213H718.37c-1.32-4.47-1.42-9.82-1.65-13.18-.5-7.27-.39-14.54-.34-21.82H115.82a71.51,71.51,0,1,1,0-143h785a4.21,4.21,0,0,1,3.28-2.56c11.06-2.22,21.09-7.5,31.78-10.9a55,55,0,0,1,7.3-1.8c6-7.22,19-1.63,26.77,1.87a4.81,4.81,0,0,1,1.61,1.14c23.17,7,45.43,17.39,69.19,22.36a4.23,4.23,0,0,1,3.3,2.66h0l.32.1A106.5,106.5,0,0,0,955.49,245.13Z"/><path d="M778.51,673.26a5.08,5.08,0,0,1-1.23-2.75H124.82a71.51,71.51,0,1,1,0-143H723.93c-1.6-11.71-4.55-23.19-5.45-35H124.82a106.51,106.51,0,1,0,0,213H800C791.25,696.07,787,683.22,778.51,673.26Z"/><path d="M512,133.93h-384a13.06,13.06,0,0,1-13-13V94.12a13.06,13.06,0,0,1,13-13H512a13.06,13.06,0,0,1,13,13v26.76A13.06,13.06,0,0,1,512,133.93Zm-382.07-15H510V96.07H129.9Z"/><path d="M512,383.05h-384a13.06,13.06,0,0,1-13-13V343.25a13.06,13.06,0,0,1,13-13H512a13.06,13.06,0,0,1,13,13V370A13.06,13.06,0,0,1,512,383.05Zm-382.07-15H510V345.2H129.9Z"/><path d="M511,626.41h-384a13.06,13.06,0,0,1-13-13V586.6a13.06,13.06,0,0,1,13-13H511a13.06,13.06,0,0,1,13,13v26.76A13.06,13.06,0,0,1,511,626.41Zm-382.07-15H509V588.55H128.9Z"/><circle cx="568.09" cy="106.6" r="10.22"/><circle cx="607.53" cy="106.6" r="10.22"/><circle cx="645.45" cy="106.21" r="10.22"/><circle cx="568.09" cy="355.72" r="10.22"/><circle cx="607.53" cy="355.72" r="10.22"/><circle cx="645.45" cy="355.33" r="10.22"/><circle cx="567.09" cy="599.07" r="10.22"/><circle cx="606.53" cy="599.07" r="10.22"/><circle cx="644.45" cy="598.68" r="10.22"/><path d="M1006.4,796.11l-.16.1c-6.89,3.82-14.32,9.54-22.27,11.51a21.23,21.23,0,0,1-16.32,34.83H85.05a21.25,21.25,0,1,1,0-42.5h416V755.36A12.91,12.91,0,0,1,514,742.46H569.7a12.91,12.91,0,0,1,12.89,12.89V800H905.9c-2.07-1.58-4-3.21-5.81-4.6a162.09,162.09,0,0,0-27.9-17.24,4.38,4.38,0,0,1-2.27-2.31c-.35-.28-.69-.56-1-.85H607.59V755.36a37.93,37.93,0,0,0-37.89-37.89H514a37.93,37.93,0,0,0-37.89,37.89V775h-391a46.25,46.25,0,1,0,0,92.5H967.64a46.21,46.21,0,0,0,38.76-71.44Z"/><circle cx="907.55" cy="106.51" r="34.75"/><path d="M952.21,862.35l-6.82-2.79c-57.84-23.66-107.8-57.61-148.5-100.93-35.64-37.94-63.56-82.63-83-132.84C698.11,585,687.82,540.4,683.3,493.14c-7.41-77.45,2.63-141.26,7.3-165.1l1.88-9.61,258.8-96.6,261.92,95.93,1.81,9.83c5.43,29.45,13.41,89.78,5.87,162.91-4.76,46.17-15,90-30.58,130.19a422.05,422.05,0,0,1-80.77,131.9C1068.47,798,1017.81,833.9,959,859.42Zm-229-518c-9.71,57.45-30.6,252.19,99.19,390.34,35.63,37.93,79.14,68.06,129.42,89.64,51.35-23.29,95.65-55.3,131.78-95.21C1207.75,592,1193,410,1182.28,343.71L951.39,259.15Z"/><path d="M1032.31,514.62h-16.43v-59a40.21,40.21,0,0,0-40.16-40.16H925.57a39,39,0,0,0-39,39v60.14H873.86a24,24,0,0,0-23.9,23.9V646.33a22.42,22.42,0,0,0,22.36,22.36h160.2a22.22,22.22,0,0,0,22.15-22.15V537A22.42,22.42,0,0,0,1032.31,514.62ZM959.85,603.5v21.55a8.08,8.08,0,0,1-16.16,0V603.5a13.47,13.47,0,1,1,16.16,0Zm34.48-88.89H908.14V454.48A17.46,17.46,0,0,1,925.57,437h50.14a18.63,18.63,0,0,1,18.61,18.61Z"/></g></g></svg>