<svg xmlns="http://www.w3.org/2000/svg" viewBox="0 0 1044.67 1057.05"><title>Asset 31</title><g id="Layer_2" data-name="Layer 2"><g id="serverInfrastructure"><path d="M527.48,1057.05c-1.52,0-3,0-4.58-.1-38-1.73-71.21-24.25-85.65-57.08H145.93l-3.52-2.51c-2.47-1.76-24.08-18-22.62-45.56,1.31-24.87,20.33-38.7,24.13-41.22l3.31-2.2,300.91-4.29.6,0c.5,0,12.37.82,19.43-7.13a18.4,18.4,0,0,0,4.51-12.72l0-.58,2.34-48,.18-.93c4.45-23.39,25.56-40.91,50.2-41.66,22.92-.69,44.11,13.43,51.6,34.34l.79,2.21v48.49l-.07.67a23.1,23.1,0,0,0,7.06,18.36c6.8,6.32,15.59,6.92,18.13,7l304.55,2.15,3.74,3.17c4.9,4.16,20.88,19.64,20.61,44.3-.28,25-17,40.2-22.07,44.27l-3.63,2.89L616,1004C599.86,1036,565.07,1057.05,527.48,1057.05ZM155.2,972.82H456.55l3,9.5c8.44,27.1,34.41,46.23,64.61,47.61,31.1,1.42,60.06-16.74,70.44-44.15l3.27-8.64L896,973.93c3.57-3.79,8.66-10.87,8.77-20.52.1-9.31-4.51-16.32-7.89-20.2l-294.25-2.08c-6.47-.09-22.76-1.65-36.26-14.19-16-14.87-16.14-33.62-15.63-40.11V834.6c-4.16-8.94-14-14.82-24.52-14.49-11.77.36-21.84,8.23-24.28,18.86l-2.19,45a45.79,45.79,0,0,1-11.34,31c-14.57,16.4-35.41,16.48-41,16.18L156.08,935.3c-3.45,3.07-8.82,9.21-9.28,17.92C146.31,962.49,151.69,969.36,155.2,972.82Z"/><path d="M1001.08,789H50.42A43.64,43.64,0,0,1,6.83,745.45V656a43.64,43.64,0,0,1,43.59-43.59h950.66A43.64,43.64,0,0,1,1044.67,656v89.41A43.64,43.64,0,0,1,1001.08,789Zm-950.66-155a22,22,0,0,0-22,22v89.41a22,22,0,0,0,22,22h950.66a22,22,0,0,0,22-22V656a22,22,0,0,0-22-22Z"/><circle cx="919.42" cy="702.02" r="37.59"/><path d="M994.28,588H43.56A43.61,43.61,0,0,1,0,544.45V455a43.61,43.61,0,0,1,43.56-43.56H994.28A43.61,43.61,0,0,1,1037.84,455v89.47A43.61,43.61,0,0,1,994.28,588Zm-950.72-155A22,22,0,0,0,21.64,455v89.47a22,22,0,0,0,21.92,21.92H994.28a22,22,0,0,0,21.92-21.92V455a22,22,0,0,0-21.92-21.92Z"/><circle cx="917.72" cy="500.99" r="37.59"/><path d="M997.33,380.15h-950A44,44,0,0,1,3.41,336.23V247.48a44,44,0,0,1,43.92-43.92h950a44,44,0,0,1,43.92,43.92v88.75A44,44,0,0,1,997.33,380.15Zm-950-155a22.31,22.31,0,0,0-22.28,22.28v88.75a22.31,22.31,0,0,0,22.28,22.28h950a22.31,22.31,0,0,0,22.28-22.28V247.48a22.31,22.31,0,0,0-22.28-22.28Z"/><circle cx="916.01" cy="293.13" r="37.59"/><circle cx="548.75" cy="293.22" r="11.06"/><circle cx="591.42" cy="293.22" r="11.06"/><circle cx="632.44" cy="292.8" r="11.06"/><circle cx="547.94" cy="501.42" r="11.06"/><circle cx="590.6" cy="501.42" r="11.06"/><circle cx="633.27" cy="501.42" r="11.06"/><circle cx="547.12" cy="700.79" r="11.06"/><circle cx="589.78" cy="700.79" r="11.06"/><circle cx="632.44" cy="700.79" r="11.06"/><path d="M488,322.79H72.56a14.13,14.13,0,0,1-14.12-14.12V279.73a14.13,14.13,0,0,1,14.12-14.12H488a14.13,14.13,0,0,1,14.12,14.12v28.95A14.13,14.13,0,0,1,488,322.79ZM74.67,306.56H485.92V281.84H74.67Z"/><path d="M487.28,530.65H70.17a13.31,13.31,0,0,1-13.3-13.3V486.76a13.31,13.31,0,0,1,13.3-13.3H487.28a13.31,13.31,0,0,1,13.3,13.3v30.59A13.31,13.31,0,0,1,487.28,530.65ZM73.11,514.42H484.35V489.69H73.11Z"/><path d="M488,730.4H72.64a14.21,14.21,0,0,1-14.19-14.19v-28.8a14.21,14.21,0,0,1,14.19-14.19H488a14.21,14.21,0,0,1,14.19,14.19v28.8A14.21,14.21,0,0,1,488,730.4ZM74.67,714.17H485.92V689.45H74.67Z"/><path d="M997.95,176.59H48A44,44,0,0,1,4,132.67V43.92A44,44,0,0,1,48,0h950a44,44,0,0,1,43.92,43.92v88.75A44,44,0,0,1,997.95,176.59ZM48,21.64A22.31,22.31,0,0,0,25.67,43.92v88.75A22.31,22.31,0,0,0,48,155h950a22.31,22.31,0,0,0,22.28-22.28V43.92a22.31,22.31,0,0,0-22.28-22.28Z"/><circle cx="916.62" cy="89.57" r="37.59"/><circle cx="549.37" cy="89.66" r="11.06"/><circle cx="592.03" cy="89.66" r="11.06"/><circle cx="633.06" cy="89.24" r="11.06"/><path d="M488.65,119.23H73.18a14.13,14.13,0,0,1-14.12-14.12v-29A14.13,14.13,0,0,1,73.18,62.05H488.65a14.13,14.13,0,0,1,14.12,14.12v29A14.13,14.13,0,0,1,488.65,119.23ZM75.29,103H486.53V78.28H75.29Z"/></g></g></svg>