<svg xmlns="http://www.w3.org/2000/svg" viewBox="0 0 1181.54 992.5"><title>Asset 53</title><g id="Layer_2" data-name="Layer 2"><g id="software"><path d="M1126,101.46H55.51A55.57,55.57,0,0,0,0,157V937A55.57,55.57,0,0,0,55.51,992.5H1126A55.57,55.57,0,0,0,1181.54,937V157A55.57,55.57,0,0,0,1126,101.46ZM1143.15,937A17.14,17.14,0,0,1,1126,954.11H55.51A17.14,17.14,0,0,1,38.39,937V157a17.14,17.14,0,0,1,17.12-17.12H1126A17.14,17.14,0,0,1,1143.15,157Z"/><path d="M677.55,306.48a15.16,15.16,0,0,0-19.25,9.42l-155,452.33a15.15,15.15,0,1,0,28.67,9.83L687,325.72A15.15,15.15,0,0,0,677.55,306.48Z"/><path d="M473,662,290.14,567.79l176-82.48a15.15,15.15,0,0,0-12.86-27.44L221.47,566.51,459.11,688.93A15.15,15.15,0,0,0,473,662Z"/><path d="M698.08,459.05a15.15,15.15,0,0,0,7.67,20l187,83.32L704.47,668.63A15.15,15.15,0,1,0,719.37,695L960.06,559.19l-242-107.81A15.15,15.15,0,0,0,698.08,459.05Z"/><circle cx="76.45" cy="27.28" r="25.46"/><circle cx="147.02" cy="25.46" r="25.46"/><circle cx="219.41" cy="25.46" r="25.46"/></g></g></svg>