<svg xmlns="http://www.w3.org/2000/svg" viewBox="0 0 1359.74 1035.37"><title>Asset 32</title><g id="Layer_2" data-name="Layer 2"><g id="SystemVirtualizationConsolidation"><path d="M873.29,368.23H492.78a81.53,81.53,0,0,1-81.44-81.44V81.44A81.53,81.53,0,0,1,492.78,0H873.29a81.53,81.53,0,0,1,81.44,81.44V286.8A81.53,81.53,0,0,1,873.29,368.23ZM492.78,30a51.5,51.5,0,0,0-51.44,51.44V286.8a51.5,51.5,0,0,0,51.44,51.44H873.29a51.5,51.5,0,0,0,51.44-51.44V81.44A51.5,51.5,0,0,0,873.29,30Z"/><path d="M850.76,137H524.6a15,15,0,0,1,0-30H850.76a15,15,0,0,1,0,30Z"/><path d="M718.89,206.47H528.66a15,15,0,0,1,0-30H718.89a15,15,0,0,1,0,30Z"/><path d="M666.54,273.92H527.69a15,15,0,0,1,0-30H666.54a15,15,0,0,1,0,30Z"/><path d="M685.67,608.34l-83-83,83-83,83,83Zm-54.74-83,54.74,54.74,54.73-54.74-54.73-54.73Z"/><path d="M685.67,466.44a10,10,0,0,1-10-10V352.51a10,10,0,0,1,20,0V456.44A10,10,0,0,1,685.67,466.44Z"/><path d="M616.79,535.32H180.55a10,10,0,0,1,0-20H616.79a10,10,0,0,1,0,20Z"/><path d="M1186.19,535.32H746.4a10,10,0,0,1,0-20h439.79a10,10,0,0,1,0,20Z"/><path d="M177.09,707.41h-.21a10,10,0,0,1-9.8-10.2l3.47-172.09a10,10,0,1,1,20,.4l-3.47,172.09A10,10,0,0,1,177.09,707.41Z"/><path d="M1186.19,701.27a10,10,0,0,1-10-10v-166a10,10,0,0,1,20,0v166A10,10,0,0,1,1186.19,701.27Z"/><path d="M685.67,713.27a10,10,0,0,1-10-10V594.2a10,10,0,0,1,20,0V703.27A10,10,0,0,1,685.67,713.27Z"/><path d="M279.6,1029.5H73.83A73.91,73.91,0,0,1,0,955.67V756.23a73.91,73.91,0,0,1,73.83-73.83H279.6a73.91,73.91,0,0,1,73.83,73.83V955.67A73.91,73.91,0,0,1,279.6,1029.5ZM73.83,712.41A43.88,43.88,0,0,0,30,756.23V955.67A43.88,43.88,0,0,0,73.83,999.5H279.6a43.88,43.88,0,0,0,43.83-43.83V756.23a43.88,43.88,0,0,0-43.83-43.83Z"/><path d="M791,1035.37H576.68a74.85,74.85,0,0,1-74.77-74.77V763a74.85,74.85,0,0,1,74.77-74.77H791A74.85,74.85,0,0,1,865.76,763V960.6A74.85,74.85,0,0,1,791,1035.37ZM576.68,718.27A44.82,44.82,0,0,0,531.91,763V960.6a44.82,44.82,0,0,0,44.77,44.77H791a44.82,44.82,0,0,0,44.77-44.77V763A44.82,44.82,0,0,0,791,718.27Z"/><path d="M1286.49,1035.37H1085.9a73.33,73.33,0,0,1-73.25-73.25V761.52a73.33,73.33,0,0,1,73.25-73.25h200.6a73.33,73.33,0,0,1,73.25,73.25v200.6A73.33,73.33,0,0,1,1286.49,1035.37Zm-200.6-317.1a43.3,43.3,0,0,0-43.25,43.25v200.6a43.3,43.3,0,0,0,43.25,43.25h200.6a43.3,43.3,0,0,0,43.25-43.25V761.52a43.3,43.3,0,0,0-43.25-43.25Z"/><path d="M266.43,820.37H84.51a15,15,0,1,1,0-30H266.43a15,15,0,1,1,0,30Z"/><path d="M192.88,877.11H86.78a15,15,0,1,1,0-30h106.1a15,15,0,1,1,0,30Z"/><path d="M163.68,936.73H86.23a15,15,0,0,1,0-30h77.45a15,15,0,0,1,0,30Z"/><path d="M774,818.93H592.08a15,15,0,0,1,0-30H774a15,15,0,0,1,0,30Z"/><path d="M700.44,875.67H594.34a15,15,0,0,1,0-30h106.1a15,15,0,0,1,0,30Z"/><path d="M671.24,935.29H593.8a15,15,0,0,1,0-30h77.45a15,15,0,0,1,0,30Z"/><path d="M1287.4,820.49H1105.49a15,15,0,0,1,0-30H1287.4a15,15,0,0,1,0,30Z"/><path d="M1213.85,877.23h-106.1a15,15,0,0,1,0-30h106.1a15,15,0,0,1,0,30Z"/><path d="M1184.65,936.85H1107.2a15,15,0,0,1,0-30h77.45a15,15,0,0,1,0,30Z"/></g></g></svg>