<svg xmlns="http://www.w3.org/2000/svg" viewBox="0 0 1180.55 1025.67"><title>Asset 26</title><g id="Layer_2" data-name="Layer 2"><g id="Training"><path d="M1122.87,611.13h-.09a10,10,0,0,1-9.91-10.09l4.66-513a10,10,0,0,1,20,.18l-4.66,513A10,10,0,0,1,1122.87,611.13Z"/><path d="M419.45,611.13a10,10,0,0,1-10-10V442.65a10,10,0,1,1,20,0V601.13A10,10,0,0,1,419.45,611.13Z"/><path d="M1142.28,705.68H408.78a37.09,37.09,0,0,1-37-37v-37a37.09,37.09,0,0,1,37-37h733.5a37.09,37.09,0,0,1,37,37v37A37.09,37.09,0,0,1,1142.28,705.68ZM408.78,619.6a12.06,12.06,0,0,0-12,12v37a12.06,12.06,0,0,0,12,12h733.5a12.06,12.06,0,0,0,12-12v-37a12.06,12.06,0,0,0-12-12Z"/><path d="M204.47,253.66a106,106,0,1,1,106-106A106.14,106.14,0,0,1,204.47,253.66Zm0-187a81,81,0,1,0,81,81A81.12,81.12,0,0,0,204.47,66.61Z"/><path d="M775.53,1016.12a10,10,0,0,1-10-10v-313a10,10,0,0,1,20,0v313A10,10,0,0,1,775.53,1016.12Z"/><path d="M675.73,1018a6,6,0,0,1-4.36-10.12L773.1,900.24a6,6,0,1,1,8.72,8.24L680.09,1016.09A6,6,0,0,1,675.73,1018Z"/><path d="M873.36,1023.86a6,6,0,0,1-4.58-2.12L771,906.3a6,6,0,0,1,9.15-7.76L877.93,1014a6,6,0,0,1-4.57,9.88Z"/><path d="M419.45,223.74a10,10,0,0,1-10-10V102H370.56l-.05-20,395.22-2.15V10a10,10,0,0,1,20,0V79.71l394.72-2.15.11,20L765.73,99.82h0l-336.28,1.83V213.74A10,10,0,0,1,419.45,223.74Z"/><path d="M152.21,1025.67q-2.9,0-5.83-.26c-25.89-2.32-48.5-20.13-57.6-45.38L88,978V709.06c-8.64,7.44-19.34,13.16-31.81,13.16h-1C26.79,721.51,0,692.53,0,670.58V328.2l.59-1.86a75.39,75.39,0,0,1,27-37.59,74.54,74.54,0,0,1,38.78-14.11l.87,0H546l1.3.28c26.43,5.67,45,29.81,43.11,56.15-1.67,23.61-19.42,43.56-43.17,48.53l-1.27.26H330.53a11.36,11.36,0,0,0-8.78,14.88l.63,1.91v582l-1.22,2.55a71.25,71.25,0,0,1-64,40.38H257a71.28,71.28,0,0,1-51.47-22.35A68.05,68.05,0,0,1,152.21,1025.67ZM113,973.47c6.22,15.12,20,25.65,35.57,27,19,1.7,37.17-10.25,44.14-29.06L203,943.72l12.74,26.68a46.15,46.15,0,0,0,41.33,26.15h.09a46.14,46.14,0,0,0,40.21-23.77V400.36a36.35,36.35,0,0,1,30.38-45.42l.84-.11H543.26c12.28-3.07,21.34-13.42,22.2-25.55,1-13.6-8.53-26.15-22.23-29.66H67.74a49.53,49.53,0,0,0-25.37,9.34A50.06,50.06,0,0,0,25,332.22V670.58c0,7.92,15.81,26.27,30.85,26.63,12.82.29,25.66-16.29,32.19-27.85V377.11h25Z"/><rect x="100.54" y="639.17" width="209.34" height="10"/><path d="M204.47,983.73a5,5,0,0,1-5-5V743.95a5,5,0,0,1,10,0V978.73A5,5,0,0,1,204.47,983.73Z"/></g></g></svg>