<svg id="AI-2" xmlns="http://www.w3.org/2000/svg" viewBox="0 0 999.48 1057.32"><defs><style>.cls-1,.cls-2,.cls-3,.cls-4{fill:none;stroke:#000;}.cls-1,.cls-3,.cls-4{stroke-linejoin:round;}.cls-1{stroke-width:30px;}.cls-2{stroke-miterlimit:10;}.cls-2,.cls-3{stroke-width:15px;}.cls-4{stroke-width:20px;}.cls-5{fill:#f15a24;}.cls-6{fill:#fbb03b;}.cls-7{fill:#fff;}.cls-8{fill:#c69c6d;}.cls-9{fill:#ed1c24;}.cls-10{fill:#29abe2;}.cls-11{fill:#fcee21;}.cls-12{fill:#f7931e;}.cls-13{fill:#d4145a;}.cls-14{fill:#662d91;}</style></defs><title>AI-color</title><path class="cls-1" d="M969.48,46.25A606.51,606.51,0,0,0,817,66.58c-53.15,14.21-83.28,30.33-97.14,38.33-17.28,10-37.13,21.64-57.5,43.13a212.37,212.37,0,0,0-45.45,74.2c-8.7,58.12-17.55,83.22-24.25,95.26-4.87,8.75-8,17.45-14.38,34.85-2.31,6.35-3.81,10.93-3.48,17,.53,9.89,5.46,14.84,9.58,23.67a75.63,75.63,0,0,1,6,32c-.68,14.35-9.11,20.42-46.11,59.79-27.29,29-23.54,26.62-35.06,37.68-12.54,12-23.72,25.5-36.82,36.93-7.31,6.37-14.24,11.9-15.88,21.26-2,11.36,5.08,21.25,5.88,22.34,17.62,24,58,2,90.59,28.16,4.11,3.3,14,11.43,17.47,25.12,5.95,23.18-11,44-14,47.49l27.88,19.17c-2,1.49-20.33,15.36-18.64,33.76.87,9.45,6.76,17.41,7.6,18.52,7,9.2,13.85,9.44,16.84,16.84s-.59,15-2.32,19.17c-8.07,19.39-15.41,56.54-5.12,80.55,7.63,17.81,25.27,29,40,32.71,9.7,2.42,14.35.52,39.5-4.07,54-9.85,74.21-8.67,90.61-2.9,8.82,3.1,16.06,7.35,20.78,14.53,5.11,7.78,5.13,15.76,5.36,24.39.7,25.72,1,31,3.2,47.2a250,250,0,0,0,4.94,25.4c3.78,16.35,7.06,25.31,10.64,33l.6,1.27,498.74-1.2c-18.26-22.49-53.24-71.95-63.76-143.63-2-13.33-9.55-71.59,15.41-144.78,34.16-100.16,86.18-101.87,133.36-189.18s58.75-203.47,21.35-305.18c-8.1-22-40.87-104.24-124.23-164.89C1183.48,44.83,1078.63,45.53,969.48,46.25Z" transform="translate(-441.2 -21)"/><line class="cls-2" x1="200.86" y1="181.64" x2="225.48" y2="299.21"/><path class="cls-3" d="M834.46,218.93,821,347.92l131.64,81.79,186.74-195.17,6.13-6.41L969.48,46.25l7.43,224.91,137.7,123.45,30.94-166.48,166.36-75.47-35.37,266.21,96-42.18,26.51-103.88" transform="translate(-441.2 -21)"/><path class="cls-4" d="M638.89,189" transform="translate(-441.2 -21)"/><path class="cls-4" d="M765.78,87.18,839.2,190.44" transform="translate(-441.2 -21)"/><path class="cls-3" d="M813.88,340.8,638.89,189l192.4,2.89" transform="translate(-441.2 -21)"/><path class="cls-4" d="M1117.86,403.2" transform="translate(-441.2 -21)"/><path class="cls-3" d="M1092.5,518.66,1315,514,1303.8,682.79,1117.86,403.2,952.67,429.71Z" transform="translate(-441.2 -21)"/><path class="cls-4" d="M671.74,332.49" transform="translate(-441.2 -21)"/><path class="cls-4" d="M671.74,332.49,821,347.92" transform="translate(-441.2 -21)"/><path class="cls-3" d="M846.49,200.88,948.37,427" transform="translate(-441.2 -21)"/><path class="cls-3" d="M821.33,345l157.85-63.35" transform="translate(-441.2 -21)"/><path class="cls-3" d="M979.18,281.67l166.36-53.54" transform="translate(-441.2 -21)"/><path class="cls-3" d="M1152.73,235.48l123.79,183.39" transform="translate(-441.2 -21)"/><path class="cls-3" d="M840.92,194.36l138.26,87.31" transform="translate(-441.2 -21)"/><path class="cls-3" d="M840.92,194.36l300.37,33.11" transform="translate(-441.2 -21)"/><path class="cls-3" d="M1141.29,227.47l257.77,45.34" transform="translate(-441.2 -21)"/><path class="cls-3" d="M1117.86,404.37l158.66,14.5,35.37,99.79,60.66-143.25a654.49,654.49,0,0,1-60.61,297.22" transform="translate(-441.2 -21)"/><path class="cls-3" d="M839.2,193.63,976.44,47.51" transform="translate(-441.2 -21)"/><path class="cls-3" d="M1145.54,228.13l13.57-163.24" transform="translate(-441.2 -21)"/><path class="cls-3" d="M766,85l-94.3,247.45" transform="translate(-441.2 -21)"/><circle class="cls-5" cx="704.33" cy="207.13" r="53.04"/><circle class="cls-6" cx="861.83" cy="657.66" r="34.87"/><circle class="cls-5" cx="230.53" cy="311.49" r="26.51"/><circle class="cls-7" cx="197.69" cy="168.03" r="34.87"/><circle class="cls-8" cx="324.57" cy="66.18" r="26.51"/><circle class="cls-7" cx="379.83" cy="326.92" r="34.87"/><circle class="cls-9" cx="511.47" cy="408.71" r="26.51"/><circle class="cls-10" cx="537.98" cy="260.67" r="35.37"/><circle class="cls-11" cx="676.66" cy="382.2" r="34.87"/><circle class="cls-5" cx="651.3" cy="497.66" r="26.51"/><circle class="cls-12" cx="870.69" cy="497.66" r="26.51"/><circle cx="835.32" cy="397.87" r="26.51"/><circle class="cls-13" cx="932.21" cy="366.89" r="26.08"/><circle class="cls-7" cx="958.29" cy="264.7" r="26.08"/><circle class="cls-14" cx="535.23" cy="26.51" r="26.51"/><circle class="cls-9" cx="870.69" cy="131.66" r="35.37"/><circle class="cls-12" cx="717.91" cy="43.89" r="35.37"/><circle class="cls-11" cx="400.02" cy="178.48" r="46.82"/></svg>