<svg id="AI_cs" data-name="AI/cs" xmlns="http://www.w3.org/2000/svg" viewBox="0 0 1040.55 1006.57"><defs><style>.cls-1,.cls-11,.cls-12,.cls-13,.cls-14,.cls-15,.cls-16,.cls-17,.cls-2,.cls-3,.cls-6{fill:none;}.cls-1,.cls-2{stroke:#000;}.cls-1,.cls-10,.cls-11,.cls-12,.cls-13,.cls-14,.cls-15,.cls-16,.cls-17,.cls-18,.cls-2,.cls-3,.cls-4,.cls-5,.cls-6,.cls-7,.cls-8,.cls-9{stroke-miterlimit:10;}.cls-1{stroke-width:12px;}.cls-10,.cls-11,.cls-12,.cls-13,.cls-14,.cls-15,.cls-16,.cls-17,.cls-18,.cls-2,.cls-3,.cls-4,.cls-5,.cls-6,.cls-7,.cls-8,.cls-9{stroke-width:8px;}.cls-3{stroke:#2e3192;}.cls-4{fill:#ff0;}.cls-14,.cls-4{stroke:#ff0;}.cls-5{fill:#ed1c24;stroke:#ed1c24;}.cls-6{stroke:#fff;}.cls-7{fill:#f15a24;}.cls-16,.cls-7{stroke:#f15a24;}.cls-8{fill:aqua;stroke:aqua;}.cls-9{fill:#2e3192;stroke:#1b1464;}.cls-10{fill:#29abe2;}.cls-10,.cls-12{stroke:#29abe2;}.cls-11{stroke:#8cc63f;}.cls-13,.cls-18{stroke:#ed1e79;}.cls-15{stroke:#a67c52;}.cls-17{stroke:#f7931e;}.cls-18{fill:#ed1e79;}</style></defs><title>AI</title><path class="cls-1" d="M1354,592.33c-2-13.74-15.18-23.74-27.66-24.29-5.29-.23-7.74,2.09-22.15,8.88-9.7,4.57-17.8,7.93-23.17,10.08-.91.4-14,5.92-26-2s-12-21.88-12-23.5c.15-12,8.26-22.4,17.5-26.5,12.35-5.48,18.76,3.8,32.94-1,10.7-3.64,21.49-13.84,22.75-26.56.18-1.78,1.11-13.08-7.19-20.93-7.39-7-17-6.39-20.24-6.19-12.91.8-20.94,9.59-22.76,11.69-11.27,10.25-25.93,11.64-34.36,5.09-5.68-4.41-7.13-11.33-7.55-14.3.5-6.07,2.37-14.05,8.53-18.72,1.14-.86,4.18-2.94,19.89-4.58s17.41,0,23-2.5c2-.9,12.84-6,15.34-17.21,2.36-10.64-4.38-19.24-6.51-22a33.39,33.39,0,0,0-17.45-11.41,32.91,32.91,0,0,0-21.13,6.77c-12.52,9.83-12.36,25.29-12.31,27.08-11.1,10.62-26.38,14.37-39.22,9.5-10.52-4-15.92-12.47-17.75-15.69-7.55-14.48-5.1-30.51,4.42-38.43,7.1-5.91,16.05-5.58,19.11-5.33,12.12,3.35,24.68-2.31,29.72-12.8,4.28-8.9,2.51-19.94-4.54-27.66-1.45-1.42-9.88-9.43-21.05-8.26-12.47,1.31-23.47,13.55-24.36,29.72-16.07,15.35-37.87,18.16-52,8.67-.53-.36-13.17-9.12-14-23.53-1.48-24.74,33.29-40.13,39.63-42.93,12.9-5.71,21.69-5.24,24.77-5a44.72,44.72,0,0,1,19.4,6.61c16.29,2.92,31.93-4.43,38.39-17.34,6.56-13.11.9-26.45,0-28.49-1.31-2.36-8.57-14.91-22.83-17.94-15.44-3.28-32.8,5.91-41.06,23.15-23.26,19.18-51.72,25.52-73.45,15.16A52.49,52.49,0,0,1,1079,273.35c-.47-1.88-2.78-11.94,3.3-21.33a26.48,26.48,0,0,1,11-9.5c19.86,8.2,40.19,2.11,47.88-11.25,6.13-10.66,2.42-22.84,1.39-25.91-1-1.46-9.39-13.74-23.94-14.45-13.71-.67-27.11,9.23-31.64,24.42a37,37,0,0,1-10.14,5.93c-2.8,1.08-16.38,6.32-28.82-1a30.54,30.54,0,0,1-12.52-15.14c-1.15-2.08-7.67-14.37-2.75-27.8s19.47-22.61,35.92-21.88c1.09.49,14.42,6.23,26.89-1.58,1.33-.83,12.82-8.32,12.93-21.95.07-10-6-16.66-7.47-18.17-.59-.76-9.8-12.15-24.08-10.73-11.35,1.13-21,9.87-23.81,21.74a49.32,49.32,0,0,1-17.89,14.17c-17.78,8.2-34.7,2.7-38.81,1.24-15.9-12.33-22.12-24.35-24.77-33.44-2.43-8.36-2.52-16.57-9.08-25.6A43.75,43.75,0,0,0,946.93,68,576.55,576.55,0,0,0,802.44,87.3c-50.37,13.47-78.93,28.74-92.06,36.33-16.37,9.45-35.19,20.51-54.49,40.87a201.26,201.26,0,0,0-43.07,70.32c-8.25,55.08-16.64,78.87-23,90.27-4.62,8.3-7.62,16.54-13.62,33-2.19,6-3.61,10.36-3.3,16.1.51,9.37,5.17,14.06,9.08,22.43A71.67,71.67,0,0,1,587.71,427c-.65,13.6-8.63,19.36-43.7,56.66-25.86,27.52-22.31,25.22-33.23,35.71-11.88,11.41-22.48,24.16-34.89,35-6.92,6-13.5,11.28-15,20.15-1.88,10.77,4.82,20.14,5.57,21.17,16.7,22.7,55,1.93,85.85,26.68,3.89,3.12,13.23,10.83,16.56,23.8,5.64,22-10.44,41.66-13.26,45L582,709.3c-1.92,1.41-19.26,14.55-17.66,32,.82,9,6.4,16.49,7.2,17.55,6.6,8.72,13.12,8.95,16,16s-.56,14.23-2.2,18.16c-7.65,18.38-14.6,53.59-4.85,76.34,7.23,16.88,23.94,27.52,37.88,31,9.19,2.29,13.6.49,37.43-3.85,51.2-9.34,70.33-8.21,85.87-2.75,8.36,2.94,15.22,7,19.69,13.77,4.84,7.37,4.86,14.94,5.08,23.11.66,24.37,1,29.4,3,44.73a237,237,0,0,0,4.68,24.07c3.59,15.5,6.69,24,10.08,31.3l.57,1.21,472.65-1.13a594.18,594.18,0,0,1-71.28-93.58c-47.45-77.21-50.89-123-50.64-144.22.4-34.43,11.07-46.94,15.69-51.47,9.36-9.18,18.46-9.64,37.16-21.11a168.66,168.66,0,0,0,32.47-26,204,204,0,0,0,26.42-34.68c15.19-25.22,17.29-35.62,30.27-41,8.92-3.7,18.29-2.8,20.92-2.48,14.39,1.77,17.3,9.68,26.7,9.63C1338,625.84,1356.7,610.71,1354,592.33Z" transform="translate(-454.51 -31.33)"/><path class="cls-2" d="M1364.31,388.66c-3.23-9.51-12.79-16.35-23.94-16.93-1.94.16-19.24,1.29-29.72-11.56a31.23,31.23,0,0,1-6.5-14.74c3.4-13.16-3.58-26.11-14.56-29.85-9.9-3.37-19.79,1.9-25,7.29C1255,332.64,1254.28,349,1261,357c5.68,6.75,12,1.87,26.06,10,5,2.9,17,9.85,19.28,21.31,1,5-.64,7,1.48,12.62,2,5.33,5.62,9.19,8.73,12.51s5,5.45,7.73,7c10,5.65,21,1.8,23.39.9C1361.62,415.75,1368.44,400.84,1364.31,388.66Z" transform="translate(-454.51 -31.33)"/><path class="cls-3" d="M1014,418.36a27.22,27.22,0,0,1-2.89-13.9c.09-2.65.46-13.67,9.5-21.05a26.43,26.43,0,0,1,16.93-5.78,28.83,28.83,0,0,1,16.1,5.37c13,9.52,11.84,27.2,11.73,28.52a29.28,29.28,0,0,0,25.61,30.64c1.24-.13,14.85-1.29,23.76,9.24a31.65,31.65,0,0,1-.28,38c-.58.66-9,9.92-22,8.81-12.11-1-18.7-10.25-20.5-12.76a33.15,33.15,0,0,1-5.92-21.09,37.38,37.38,0,0,0-8.27-22.21c-2.19-2.63-6.95-8.34-14.57-10-5.11-1.11-5.79.85-11,0C1024.45,430.86,1017.55,425.24,1014,418.36Z" transform="translate(-454.51 -31.33)"/><circle class="cls-4" cx="548.46" cy="476.2" r="26.15"/><circle class="cls-5" cx="461.85" cy="135.65" r="26.15"/><circle class="cls-6" cx="412.33" cy="228.41" r="22.48"/><circle class="cls-7" cx="568.11" cy="37.26" r="26.15"/><circle class="cls-8" cx="860.22" cy="119.41" r="22.48"/><circle class="cls-9" cx="942.35" cy="293.28" r="22.48"/><circle class="cls-10" cx="942.35" cy="508.67" r="22.48"/><circle class="cls-11" cx="894.46" cy="434.09" r="22.48"/><path class="cls-12" d="M1134.09,501.84a24,24,0,0,1,10.78-9.24c11.3-4.75,22,1.73,23.87,2.83,2.58,1.56,7.38,4.45,9.91,10.46a21.84,21.84,0,0,1,.55,14.31c-1.83,7-6.23,11.32-8.81,13.76-4.45,4.22-6.3,3.83-11.56,7.71-2.33,1.72-9.65,7.22-13.76,16-4.69,10-3.19,19.87-2.08,24.65,1.57,2.85,7.74,14.77,3.75,28.74-3.68,12.87-15.86,27-33,26.42-16.14-.57-28.23-13.89-30.83-27.52-2.76-14.51,5.92-25.76,7.71-28.07,9.43-12.22,23-14.45,25.87-14.86a24,24,0,0,0,7.71-4.4c4.71-4,6.49-8.82,7.71-12.11a33,33,0,0,0,2.2-13.76c-.37-5.86-2.11-6.34-3.26-12.33C1130.24,521.49,1128.23,511,1134.09,501.84Z" transform="translate(-454.51 -31.33)"/><path class="cls-13" d="M1299.93,294.5c-10.62-5-13.81-15.36-14.59-17.89-.94-3-2.89-9.74,0-17.34a25.27,25.27,0,0,1,11.56-12.94c5.27-2.9,10-3,18.46-3.22,11.81-.23,11.84,1.76,19.79,1.29,4.43-.26,17.21-1,26.7-10.46a34.23,34.23,0,0,0,8.53-14.59c.55-3.32,2.72-13.81,11.91-21.17,11.16-8.93,29.62-10.78,42.31.31,12.39,10.83,13.81,29.21,6.58,40.8-6.77,10.86-19.77,13.54-24.2,14.46a44.66,44.66,0,0,1-18,0,50.44,50.44,0,0,0-24,1,51.31,51.31,0,0,0-26.19,18.3c-.28,1.78-2.24,12.92-12.66,19.54C1325.32,293.05,1313,300.62,1299.93,294.5Z" transform="translate(-454.51 -31.33)"/><path class="cls-14" d="M1165.93,213.56a20.71,20.71,0,0,1,6.33-14.59,20.22,20.22,0,0,1,11.65-5.23,20.75,20.75,0,0,1,12,.55c6.46,2.44,8.15,7.44,16.51,12.66a44.38,44.38,0,0,0,8.53,4.13,21.27,21.27,0,0,0,8.81-1.93c5-2.35,6.43-5.62,10.57-8.57,2.74-2,7.07-4,13.92-4.36a22.51,22.51,0,0,1,22.06,22.57,22.41,22.41,0,0,1-5,14.31,22.88,22.88,0,0,1-16.24,8c-9.19-.7-14.32-3.75-17.34-6.61-2.68-2.53-5.09-6.21-10.46-8.53a22.13,22.13,0,0,0-6.17-1.65,18.68,18.68,0,0,0-6.21.28c-6.62,1.45-9.32,6-14,8.93-3.31,2.08-8.86,4.09-18.25,2.58a22.49,22.49,0,0,1-16.78-22.52Z" transform="translate(-454.51 -31.33)"/><circle class="cls-15" cx="677.61" cy="24.77" r="20.77"/><path class="cls-16" d="M974.76,234.38c9.69-.28,19.7,5.08,24.36,13.21,6.17,10.78-2.07,17.69,3.72,33.44,1.12,3,5.1,13.86,15.27,20.23,8,5,11.94,2.37,19.4,7.84,1.83,1.34,11.62,8.53,11.56,19.4-.05,10.25-8.83,20.05-17.79,21.72-7.77,1.44-11.41-4-28-6.86a90,90,0,0,0-12.39-1.24,78.62,78.62,0,0,0-37.3,7.12,39.76,39.76,0,0,0-11.41,8.16c-4.49,4.66-5.21,7.85-9.5,10.32-4.5,2.6-9.2,2.24-11.56,2.06-10.46-.79-26.75-9.07-27.25-23.94-.35-10.46,7.27-19.68,15.69-23.12,7.4-3,14.51-1.21,19.27,0,11.66,3,12.12,8.3,22.84,10.74,3.49.79,9.36.31,21.1-.66,17.94-1.48,21.54-3.23,23.9-4.71,2-1.22,10.29-6.43,10.32-14,0-4.22-2.53-7.29-5.48-10.84a40,40,0,0,0-16-11.45c-11.21-4.39-14.45-.28-22.29-3.72-8.6-3.76-16.49-13.86-16.51-25.18C946.66,248,960.13,234.79,974.76,234.38Z" transform="translate(-454.51 -31.33)"/><path class="cls-17" d="M1133.42,138.24c3.93-11.84,9.74-17.34,14.16-20.17,10.51-6.74,19.69-2.6,32.2-11.56a32.74,32.74,0,0,0,10.32-10.73c6.37-11.26.38-18.92,6.19-28.49a23.78,23.78,0,0,1,18.16-11.15c11.46-.71,22.37,8.63,25.18,19.82,2.39,9.52-.92,21-8.26,25.6-3.7,2.3-7.94,2.55-13.62,2.89-9,.53-11.95-1.72-17.07.69a16.33,16.33,0,0,0-7.7,8c-1.76,4.21-.88,7.9.7,14.48,1.65,6.9,2.48,10.35,5.58,13.41,3.39,3.35,9.54,6.44,14.78,4.72,3.92-1.29,3.61-4,11.15-10.32,3-2.55,5-4.23,8.26-5.37a22.16,22.16,0,0,1,12.39-.41c2.3.5,8.27,1.8,12.8,7,2.89,3.33,3.82,6.67,5,10.73,1.4,5,2.6,9.3,1.24,14-2.15,7.53-9.29,11.2-12.39,12.8-1.65.85-12.32,6.35-21.47,2.06-5-2.32-9.42-7.49-11.15-9.5s-4.24-5.31-8.67-7.43a11.19,11.19,0,0,0-4.13-1.24c-2.29-.16-4.77.53-8.67,3.3-5,3.58-5.14,5.46-9.08,8.67a32.42,32.42,0,0,1-11.56,5.78,37.34,37.34,0,0,1-16.1,1.65,36.11,36.11,0,0,1-19.82-9.08,29.59,29.59,0,0,1-9.08-15.69A29.27,29.27,0,0,1,1133.42,138.24Z" transform="translate(-454.51 -31.33)"/><path class="cls-3" d="M1442.61,379.35a27.22,27.22,0,0,1,11.81-7.88c2.49-.91,12.85-4.69,23.08.92a26.43,26.43,0,0,1,11.7,13.53,28.83,28.83,0,0,1,1.05,16.94c-4,15.6-20.79,21.16-22.05,21.55a29.28,29.28,0,0,0-18.82,35.22c.58,1.11,6.76,13.28.33,25.49a31.65,31.65,0,0,1-35.32,14c-.83-.29-12.57-4.63-16.41-17.12-3.57-11.62,2.5-21.18,4.16-23.79a33.15,33.15,0,0,1,17.34-13.39,37.38,37.38,0,0,0,17.5-16c1.62-3,5.13-9.57,3.81-17.25-.89-5.16-3-5-4.12-10.21C1434.94,393.74,1437.57,385.24,1442.61,379.35Z" transform="translate(-454.51 -31.33)"/><circle class="cls-18" cx="739.35" cy="583.66" r="22.48"/></svg>