<svg xmlns="http://www.w3.org/2000/svg" viewBox="0 0 1641.87 1082.74"><defs><style>.cls-1,.cls-10,.cls-11,.cls-12,.cls-13,.cls-14,.cls-15,.cls-2,.cls-3,.cls-4,.cls-5,.cls-6,.cls-7,.cls-8,.cls-9{fill:none;}.cls-1{stroke:#fcee21;}.cls-1,.cls-10,.cls-11,.cls-12,.cls-13,.cls-14,.cls-2,.cls-3,.cls-4,.cls-7,.cls-9{stroke-linecap:round;}.cls-1,.cls-10,.cls-11,.cls-12,.cls-13,.cls-14,.cls-15,.cls-2,.cls-3,.cls-5,.cls-6,.cls-7,.cls-8,.cls-9{stroke-miterlimit:10;}.cls-1,.cls-2,.cls-3,.cls-4,.cls-5,.cls-6,.cls-7{stroke-width:30px;}.cls-13,.cls-14,.cls-15,.cls-2,.cls-4,.cls-6,.cls-8,.cls-9{stroke:#000;}.cls-3{stroke:#f7931e;}.cls-4{stroke-linejoin:round;}.cls-5{stroke:#29abe2;}.cls-12,.cls-7{stroke:#ed1c24;}.cls-10,.cls-11,.cls-12,.cls-9{stroke-width:35px;}.cls-10{stroke:#fbb03b;}.cls-11{stroke:#f15a24;}.cls-13{stroke-width:25px;}.cls-14{stroke-width:40px;}.cls-15{stroke-width:45px;}</style></defs><title>Asset 6</title><g id="Layer_2" data-name="Layer 2"><g id="cxoDashboard_-2" data-name="cxoDashboard -2"><path class="cls-1" d="M217.61,625.84l130.17,85"/><path class="cls-2" d="M217.57,788.08l199.24-.5"/><path class="cls-3" d="M837.44,184.2,839.31,461"/><path class="cls-4" d="M370.12,915.15l-.5,108.75c-.08,3.1-.16,18.18,11.47,30.66a43.57,43.57,0,0,0,25.25,13.17l825.51-1.57c1.94-.08,16.67-.93,26.34-13.8,9.42-12.54,6.52-26.49,6.07-28.47l1.62-107.65"/><path class="cls-5" d="M729.59,588.85c13.6-50.77,58.86-86.46,109.86-87.51,54.82-1.13,104.21,38,116.12,93.44"/><path class="cls-6" d="M571.74,1068.1C623.14,967.61,728,906.28,838.4,911.89c101,5.14,192.14,65.52,238.29,157.31"/><path class="cls-2" d="M1242.39,783.69l178.24,3.54"/><path class="cls-7" d="M1323.3,688,1453,623.51"/><path class="cls-2" d="M173.46,880.34l-49.86,41"/><path class="cls-8" d="M112.4,782.29"/><path class="cls-2" d="M93.78,732.15l-72.59-2.73"/><path class="cls-2" d="M135.81,579.59,83.1,544.24"/><path class="cls-2" d="M289.39,481.63l-21-55.78"/><path class="cls-2" d="M518.33,749l59.95,19.38"/><path class="cls-2" d="M1124.34,745.88l-54.57,25.67"/><path class="cls-2" d="M1455.2,855.18l46.3,50.34"/><path class="cls-2" d="M1527.46,710.07l75.75,1.5"/><path class="cls-2" d="M1498.73,559.81l60.65-31.14"/><path class="cls-2" d="M1359.76,485.53l23.76-70"/><path class="cls-9" d="M477.75,454.85l-70.28-2.21"/><path class="cls-10" d="M505.19,324.52,431.64,293"/><path class="cls-10" d="M576,206.19l-53.8-49.89"/><path class="cls-11" d="M700.49,121.63,673.13,58.28"/><path class="cls-11" d="M840.84,99.57l1.23-71"/><path class="cls-11" d="M973.52,132.37,1002,69.24"/><path class="cls-12" d="M1083.37,206.85l41-50.27"/><path class="cls-12" d="M1161.58,333.47l62.88-19.84"/><path class="cls-12" d="M1175.45,461.3l79.3,1.25"/><path class="cls-13" d="M201.56,968.92"/><path class="cls-13" d="M1211.85,782.21"/><path class="cls-14" d="M359.17,404.32c-12.26-1.08-170.58-12.25-271.91,115.3-6.3,7.93-105.43,137.2-51,288.08C76,917.7,170,963.71,184,970.28c112.89,53,217.45,11.1,236.9,2.85C531.5,926.21,572.8,828,583.57,801.16,612,730.38,608,666.93,603.83,635.65"/><path class="cls-14" d="M1291.35,402.94c19.61-1,148.86-5.59,244.76,95.28,72.16,75.9,108.19,193.38,70.81,300.09-49.51,141.36-218.1,236.07-373.72,182.92-133.24-45.5-218-186.08-195.57-332.76"/><path class="cls-15" d="M420.27,596.85c-10-29-59.88-183.62,22.13-342.39C514.9,114.07,664.38,21.1,827.77,22.52c235,2,358.33,198,367.5,213.2,101.53,167.92,50.48,340.94,41.85,368.49Z"/></g></g></svg>