<svg id="Data_center-2" data-name="Data center-2" xmlns="http://www.w3.org/2000/svg" viewBox="0 0 1701.34 1064.28"><defs><style>.cls-1,.cls-2,.cls-3{fill:none;stroke-miterlimit:10;}.cls-1,.cls-3{stroke:#000;}.cls-1,.cls-2{stroke-linecap:round;}.cls-1{stroke-width:35px;}.cls-2{stroke:#29abe2;stroke-width:30px;}.cls-3{stroke-width:15px;}.cls-4{fill:#ccc;}.cls-5{fill:#ffc306;}.cls-6{fill:blue;}.cls-7{fill:#ed1c24;}.cls-8{fill:#85647b;}</style></defs><title>datacenter-color</title><path class="cls-1" d="M772.1,976.37c-52.54,1.66-103.78,3.09-156.44,4.51-86.82,1.42-172.22,0-259-1.42a246.18,246.18,0,0,1-81.13-31.31c-11.49-7-28.66-17.68-46.92-34a283.67,283.67,0,0,1-47-54.25c-8.63-16.55-77.89-154.24-14.23-276.12,29-55.61,76.77-90.73,91.09-101.05a327.44,327.44,0,0,1,197.84-61.2,3.06,3.06,0,0,0,2.85-2.85,356.64,356.64,0,0,1,5.69-64C472.68,311,486.7,280,490.41,272.07c18.09-38.84,39.5-63.77,58.36-85.4,0,0,36.13-41.45,79.71-72.59,126-90,328.19-97.07,429.84-54.09,52.42,22.17,91.09,55.51,91.09,55.51,15.66,14.23,29.89,27,42.7,44.12,15.66,22.77,31.31,41.28,44.12,65.47,62.72-91.55,175.46-131.39,274.22-99.63,81.28,26.13,142.37,97.3,160,184.46a244.78,244.78,0,0,1-8.54,117.42c24,16.16,94.52,68.22,128.09,166.52,4,11.66,34.49,104.91,2.76,203.4a269,269,0,0,1-17.08,41.28c-11.49,22-41.28,71.34-101.05,105.32a257.19,257.19,0,0,1-98.8,31.83" transform="translate(-123.17 -16.98)"/><path class="cls-2" d="M602.2,366.13c-.07-10.87.77-61.74,40.71-103.74,34.07-35.82,75.46-43,88-44.65" transform="translate(-123.17 -16.98)"/><path d="M875.75,980.07c-1.53,1-13.76,9.75-14.56,25.5-.87,17.08,12.47,27.26,13.65,28.13h238.48c8.14,27,33.14,46.12,61.9,47.48,29.75,1.4,57.3-16.51,67.36-44l236.66-2.64c1.76-1.44,13.48-11.42,13.65-28.13.18-16.48-11-26.61-12.74-28.13l-241.21-1.76a32.91,32.91,0,0,1-21.85-8.79c-10.29-9.88-9.27-22.83-9.1-24.62V905.34a31.71,31.71,0,0,0-61,4.4l-1.82,38.68a27.14,27.14,0,0,1-6.37,18.46c-9.13,10.62-23.17,9.78-24.58,9.67Z" transform="translate(-123.17 -16.98)"/><rect class="cls-3" x="687.71" y="593.9" width="728.74" height="111.12" rx="35.12" ry="35.12"/><circle class="cls-4" cx="1335.52" cy="650.37" r="26.96"/><rect class="cls-3" x="683.94" y="441.75" width="728.74" height="111.12" rx="35.12" ry="35.12"/><circle class="cls-4" cx="1334.3" cy="498.23" r="26.96"/><rect class="cls-3" x="686.39" y="290.59" width="728.74" height="111.12" rx="35.12" ry="35.12"/><circle class="cls-4" cx="1333.08" cy="347.07" r="26.96"/><path class="cls-2" d="M246.07,708.53c-.3-10.87-.52-61.75,38.55-104.56,33.32-36.52,74.56-44.52,87-46.46" transform="translate(-123.17 -16.98)"/><circle class="cls-5" cx="1069.71" cy="347.13" r="7.93"/><circle class="cls-6" cx="1100.3" cy="347.13" r="7.93"/><circle class="cls-7" cx="1129.73" cy="346.83" r="7.93"/><circle class="cls-5" cx="1069.12" cy="498.54" r="7.93"/><circle class="cls-6" cx="1099.72" cy="498.54" r="7.93"/><circle class="cls-7" cx="1130.31" cy="498.54" r="7.93"/><circle class="cls-5" cx="1067.41" cy="649.49" r="7.93"/><circle class="cls-6" cx="1098" cy="649.49" r="7.93"/><circle class="cls-7" cx="1128.6" cy="649.49" r="7.93"/><rect class="cls-8" x="723.92" y="333.15" width="306.55" height="29.37" rx="4.3" ry="4.3"/><rect class="cls-8" x="722.79" y="484.31" width="306.55" height="29.37" rx="3.72" ry="3.72"/><rect class="cls-8" x="722.79" y="635.54" width="306.55" height="29.37" rx="4.36" ry="4.36"/><rect class="cls-3" x="691.73" y="742.88" width="728.74" height="111.12" rx="35.12" ry="35.12"/><circle class="cls-4" cx="1339.54" cy="799.36" r="26.96"/><circle class="cls-5" cx="1072.55" cy="798.47" r="7.93"/><circle class="cls-6" cx="1103.14" cy="798.47" r="7.93"/><circle class="cls-7" cx="1133.74" cy="798.47" r="7.93"/><rect class="cls-8" x="727.93" y="784.52" width="306.55" height="29.37" rx="4.36" ry="4.36"/></svg>