<svg id="DLP" xmlns="http://www.w3.org/2000/svg" viewBox="0 0 1001.58 1028.16"><defs><style>.cls-1,.cls-2,.cls-3{fill:none;}.cls-1,.cls-3{stroke:#000;}.cls-1,.cls-2,.cls-3,.cls-5{stroke-miterlimit:10;}.cls-1,.cls-2{stroke-width:15px;}.cls-2{stroke:#f7931e;}.cls-3,.cls-5{stroke-width:8px;}.cls-4{fill:#f7931e;}.cls-5{fill:#f15a24;stroke:#f15a24;}</style></defs><title>dlp</title><ellipse class="cls-1" cx="387.02" cy="116.11" rx="374.81" ry="108.61"/><ellipse class="cls-1" cx="799.48" cy="826.04" rx="194.6" ry="194.62"/><path class="cls-2" d="M441.12,207.34l1.62,166.91A539.62,539.62,0,0,0,521.38,420c106.12,50.29,200.82,52.29,289.54,53.22,84.94.89,165.79,1.74,263.14-36.54a550.17,550.17,0,0,0,126.42-70.29V207.34a752.89,752.89,0,0,1-127.66,51.94c-105.29,31.95-190.09,32.3-261.95,32-87.41-.32-175.12-1.45-279.6-41.18A627.57,627.57,0,0,1,441.12,207.34Z" transform="translate(-433.49 -25.41)"/><path class="cls-1" d="M442.64,418.23q0,79,.09,158a366.09,366.09,0,0,0,59.2,45.25c32.47,19.91,94.4,50.78,304.39,52,231,1.31,306.56-35.17,339.37-53.39a442.44,442.44,0,0,0,54.78-36l-3-165.82c-60.45,34.14-199.57,102-388.14,99.33C633,515.11,502.91,452.29,442.64,418.23Z" transform="translate(-433.49 -25.41)"/><path class="cls-1" d="M441.12,620V804.88A700.83,700.83,0,0,0,509.9,839.5a691,691,0,0,0,121,40.16c77.43,17.68,138,15.65,206,13.38a1230.93,1230.93,0,0,0,161.64-16.2A218.8,218.8,0,0,1,1076,684.12a1378.59,1378.59,0,0,1-243.66,33.65,1003,1003,0,0,1-194.07-9.17c-56.37-8.3-91.13-18.6-125.3-36.68A320.83,320.83,0,0,1,441.12,620Z" transform="translate(-433.49 -25.41)"/><path class="cls-3" d="M1124.37,822.61a364.29,364.29,0,0,1,211.35,0V943.17a332,332,0,0,1-211.35,0Z" transform="translate(-433.49 -25.41)"/><path class="cls-4" d="M1224.49,885.46c-9.24-2.59-14.6-11.9-12.52-20.35,1.79-7.31,8.84-12.73,17-12.65,7.19,0,13.54,4.2,15.87,10.31,2.92,7.64-.91,17.16-9.39,21.14l3.91,36h-18.79Z" transform="translate(-433.49 -25.41)"/><path class="cls-5" d="M1154.12,794.91A82.37,82.37,0,0,1,1176,747.15c21.17-22.24,47.79-24.65,54-25.05,4.81-.13,33.88-.44,56.36,22.7,19.48,20.06,20.94,44.27,21.14,50.1h-43.84c-.07-1.57-.84-14.34-11.74-21.92a27.85,27.85,0,0,0-18-4.7c-1.29-.17-13.76-1.62-22.7,7.83a26.76,26.76,0,0,0-7,18.79Z" transform="translate(-433.49 -25.41)"/></svg>