<svg id="Migration-2" xmlns="http://www.w3.org/2000/svg" viewBox="0 0 1260.44 1039.78"><defs><style>.cls-1,.cls-3,.cls-4,.cls-7{fill:none;}.cls-1,.cls-3,.cls-5{stroke:#000;}.cls-1,.cls-3,.cls-4,.cls-5,.cls-7{stroke-miterlimit:10;}.cls-1,.cls-5{stroke-width:30px;}.cls-2{fill:#f15a24;}.cls-3{stroke-width:4px;}.cls-4{stroke:#29abe2;}.cls-4,.cls-7{stroke-linecap:round;stroke-width:25px;}.cls-5{fill:#fff;}.cls-6{fill:#fbb03b;}.cls-7{stroke:#f7931e;}</style></defs><title>migration-color</title><path class="cls-1" d="M570.38,595.79C497.76,567,455,493.56,465.9,421.66,475.1,361.2,521,310.53,582.68,292.59c-8.35-128,86.7-236.46,202.82-245.84C886.59,38.58,985.7,107,1017,212.69c24.86-33.27,66.44-47.83,102.43-36.88,44.75,13.62,74.08,64.64,61.46,116.77,82.39.94,149.45,67.39,151.6,147.5,2.23,83.09-66.1,154.66-151.6,155.7Z" transform="translate(-382.1 -31.09)"/><path class="cls-2" d="M759.77,878.53a366.58,366.58,0,0,1-193-270.44l95.73-17L492.63,445.6,382.1,650l95.43-15.42c5.74,26.21,26.2,103.5,98.09,166.92C650.41,867.49,733.5,876.68,759.77,878.53Z" transform="translate(-382.1 -31.09)"/><path class="cls-3" d="M1789.53,873.25" transform="translate(-382.1 -31.09)"/><path class="cls-4" d="M683.74,300.42c-.87-4.79-10-60.35,31.62-101.65C760,154.51,820.6,168.61,823.78,169.41" transform="translate(-382.1 -31.09)"/><path class="cls-5" d="M1515.19,1055.87c72.62-28.78,115.42-102.23,104.48-174.14-9.2-60.46-55.05-111.12-116.77-129.07,8.35-128-86.7-236.46-202.82-245.84-101.09-8.17-200.2,60.21-231.5,165.94-24.86-33.27-66.44-47.83-102.43-36.88-44.75,13.62-74.08,64.64-61.46,116.77-82.39.94-149.45,67.39-151.6,147.5-2.23,83.09,66.1,154.66,151.6,155.7Z" transform="translate(-382.1 -31.09)"/><path class="cls-6" d="M1274.45,328.78a351.91,351.91,0,0,1,191.94,254.75l-91.44,18.71,166.59,135.39,101-198.89-91.2,17.16c-6.16-25-27.71-98.67-98.27-157.76C1379.67,336.67,1299.71,329.9,1274.45,328.78Z" transform="translate(-382.1 -31.09)"/><path class="cls-7" d="M1449.44,828.87c3.32-.48,41.87-5.36,69.28,24.4,29.38,31.89,18.12,73.34,17.48,75.51" transform="translate(-382.1 -31.09)"/></svg>