<svg id="Migration" xmlns="http://www.w3.org/2000/svg" viewBox="0 0 1073.82 996.59"><defs><style>.cls-1,.cls-12,.cls-2,.cls-3,.cls-4,.cls-6,.cls-7,.cls-8,.cls-9{fill:none;}.cls-1,.cls-4,.cls-5,.cls-6,.cls-7,.cls-8,.cls-9{stroke:#000;}.cls-1,.cls-12,.cls-2,.cls-3,.cls-4,.cls-5,.cls-6,.cls-7,.cls-8,.cls-9{stroke-miterlimit:10;}.cls-1{stroke-width:10px;}.cls-2{stroke:#f7931e;}.cls-2,.cls-3{stroke-width:6px;}.cls-3{stroke:#ed1c24;}.cls-12,.cls-4{stroke-width:12px;}.cls-5{fill:#fff;}.cls-5,.cls-6,.cls-7{stroke-width:8px;}.cls-12,.cls-6{stroke-linecap:round;}.cls-9{stroke-width:4px;}.cls-10{fill:#fbb03b;}.cls-11{fill:#f7931e;}.cls-12{stroke:#29abe2;}</style></defs><title>migration</title><path class="cls-1" d="M440.3,480c-53.12-21-84.42-74.77-76.42-127.36,6.73-44.22,40.27-81.28,85.41-94.4-6.11-93.61,63.41-172.94,148.34-179.81,73.94-6,146.43,44,169.32,121.37,18.18-24.34,48.6-35,74.92-27,32.73,10,54.18,47.28,45,85.41,60.26.69,109.31,49.29,110.88,107.88,1.63,60.77-48.34,113.12-110.88,113.88Z" transform="translate(-357.64 -72.98)"/><path class="cls-2" d="M981.65,262a337.88,337.88,0,0,1,220.26,212.77L1118,506.28l178.31,103.39,65.93-203.78-83.91,30c-9.59-22.79-41.09-89.42-116.88-134.86C1082.62,253.73,1005.78,259.32,981.65,262Z" transform="translate(-357.64 -72.98)"/><path class="cls-3" d="M846.31,906.13A365.2,365.2,0,0,1,627.47,657.78l93.13-26.62L537.47,504.3,448.76,718.13l93-25C550.12,718.51,578.27,793,656,848.55,736.81,906.32,820.09,907,846.31,906.13Z" transform="translate(-357.64 -72.98)"/><path class="cls-4" d="M1007.89,1039.86V645.06A38.1,38.1,0,0,1,1034.38,611l357,27.75a34.34,34.34,0,0,1,19.55,5.68c11.37,7.61,14,19.58,14.51,22.07v336.78a27.48,27.48,0,0,1-4.41,17c-7.08,10.59-19.15,11.84-20.81,12l-360.75,30.27c-9.75,2.63-19.81,0-25.86-6.94A24.22,24.22,0,0,1,1007.89,1039.86Z" transform="translate(-357.64 -72.98)"/><path class="cls-4" d="M1007.94,623.65l-114.78,1.23a12.85,12.85,0,0,0-16.4,13.87V1031a19,19,0,0,0,4.41,9.46,19.43,19.43,0,0,0,12,6.31l108.48-.63" transform="translate(-357.64 -72.98)"/><path class="cls-5" d="M997.74,1037.34l-91.45-15.77V650.74l99.54-17.24" transform="translate(-357.64 -72.98)"/><line class="cls-6" x1="578.98" y1="633.89" x2="630.69" y2="633.89"/><line class="cls-6" x1="578.98" y1="879.85" x2="630.69" y2="879.85"/><polygon class="cls-7" points="582.13 693.8 628.17 693.8 628.17 816.79 582.13 816.79 582.13 736.69 582.13 693.8"/><line class="cls-7" x1="582.13" y1="736.69" x2="628.17" y2="736.69"/><line class="cls-7" x1="582.13" y1="778.95" x2="628.17" y2="778.95"/><path class="cls-8" d="M1182.38,654.73" transform="translate(-357.64 -72.98)"/><path class="cls-9" d="M1292.54,659.78" transform="translate(-357.64 -72.98)"/><polygon class="cls-9" points="788.55 586.8 799.48 622.12 883.57 622.12 898.71 586.8 788.55 586.8"/><path class="cls-10" d="M1159.28,809.51l50.12-19.67L1258,809l-46.82,19.63Z" transform="translate(-357.64 -72.98)"/><path class="cls-11" d="M1155.26,819.25l50.18,17.85v78.35l-49.61-15.18Z" transform="translate(-357.64 -72.98)"/><polygon class="cls-11" points="858.87 842.09 858.87 763.88 905.12 743.7 905.12 826.11 858.87 842.09"/><path class="cls-12" d="M510.21,245c-.64-3.5-7.32-44.14,23.13-74.34,32.63-32.37,77-22.06,79.3-21.48" transform="translate(-357.64 -72.98)"/></svg>