<svg id="consultingsoftware" xmlns="http://www.w3.org/2000/svg" viewBox="0 0 1049.38 1031.84"><defs><style>.cls-1,.cls-2,.cls-3,.cls-4,.cls-5,.cls-6,.cls-7{fill:none;stroke-miterlimit:10;}.cls-1{stroke:#f15a24;}.cls-1,.cls-2,.cls-5{stroke-width:10px;}.cls-2{stroke:#ed1e79;}.cls-3,.cls-4,.cls-5,.cls-6,.cls-7{stroke:#000;}.cls-3{stroke-width:3px;}.cls-4{stroke-width:8px;}.cls-6{stroke-width:12px;}</style></defs><title>softwareconsulting</title><path class="cls-1" d="M683,341.73l115.1-80,40.54-.27.54-153.19a36.85,36.85,0,0,1,10.34-23.13,36.26,36.26,0,0,1,18-9.8L1043.24,74V47.86a16.54,16.54,0,0,0-3.81-10.07,16.73,16.73,0,0,0-10.88-5.71L648.7,33.72A17.5,17.5,0,0,0,637,46.5L635.64,246a16.7,16.7,0,0,0,13.06,15.24h35.37Z" transform="translate(-454.79 -27.08)"/><path class="cls-2" d="M872.8,317.17V114.46a13.58,13.58,0,0,1,13.33-12.24l380.39-.09a17.54,17.54,0,0,1,8.43,4.72,17.33,17.33,0,0,1,3.9,6.17V317.17A14.26,14.26,0,0,1,1268,330h-55.14l3.3,82.2-117.58-80.75L883.81,330.2a18.33,18.33,0,0,1-11-13Z" transform="translate(-454.79 -27.08)"/><rect class="cls-3" x="471.62" y="134.87" width="300.94" height="14.69"/><rect class="cls-3" x="472.59" y="196.12" width="175.77" height="15.78"/><path class="cls-4" d="M555.89,583.13c-.55-8.22-1.11-20.1-.89-34.45.28-18.82.56-28.43,3.57-39,4.86-17,14.42-27.89,20.61-35,24.5-28,57.13-37.66,72-41a143.47,143.47,0,0,0-2.45,38c.75,10.69,1.48,19.77,6.44,30.34a66.63,66.63,0,0,0,16.42,21.7,88,88,0,0,1-15.81,21.83c-5,5.07-14.57,13.39-37.24,22.49A225.61,225.61,0,0,1,555.89,583.13Z" transform="translate(-454.79 -27.08)"/><path class="cls-4" d="M673.21,430c-9,33.48.21,54.28,3.81,61.22,19.15,36.86,67.65,43.87,97.64,48.21a215.83,215.83,0,0,0,67.12-.92A92.39,92.39,0,0,0,832,492.87c-13.25-25.72-35.58-37.16-51.35-45.24C753,433.47,727.56,431.44,710,430A231.31,231.31,0,0,0,673.21,430Z" transform="translate(-454.79 -27.08)"/><path class="cls-5" d="M557.9,612.5A503.8,503.8,0,0,0,612.15,599c43.09-13.31,55-23.39,60.07-28.2A93.59,93.59,0,0,0,692.76,542a234.52,234.52,0,0,0,151.41,25.13c3.25,17.13,7.11,51-6.44,89.5-5.37,15.24-18.36,52.14-55.78,76.63-24.31,15.91-47.64,19.2-57.93,20.54-10.87,1.41-84.12,9.69-132.1-45.06C558.8,671,557.71,625.93,557.9,612.5Z" transform="translate(-454.79 -27.08)"/><path class="cls-6" d="M600.2,756.22c11.61,8.53,48.75,33.58,102.37,33A171.51,171.51,0,0,0,803.1,755a257.5,257.5,0,0,1,80.3,63.75c72.47,86.78,61.33,194.11,58.24,218.23a22.24,22.24,0,0,1-14.71,15.94l-450.56-.61a21.4,21.4,0,0,1-14.71-16.86c-.65-10.85-1.21-26.15-.61-44.44,1.17-36,2.15-66.15,14-100,20.72-59,62.27-94.55,80.66-108.39A236.51,236.51,0,0,1,600.2,756.22Z" transform="translate(-454.79 -27.08)"/><path class="cls-4" d="M1109.94,582.89c-.55-8.22-1.11-20.1-.89-34.45.28-18.82.56-28.43,3.57-39,4.86-17,14.42-27.89,20.61-35,24.5-28,57.13-37.66,72-41a143.47,143.47,0,0,0-2.45,38c.75,10.69,1.48,19.77,6.44,30.34a66.63,66.63,0,0,0,16.42,21.7,88,88,0,0,1-15.81,21.83c-5,5.07-14.57,13.39-37.24,22.49A225.61,225.61,0,0,1,1109.94,582.89Z" transform="translate(-454.79 -27.08)"/><path class="cls-4" d="M1227.26,429.79c-9,33.48.21,54.28,3.81,61.22,19.15,36.86,67.65,43.87,97.64,48.21a215.83,215.83,0,0,0,67.12-.92,92.39,92.39,0,0,0-9.81-45.67c-13.25-25.72-35.58-37.16-51.35-45.24-27.65-14.17-53.07-16.19-70.64-17.6A231.31,231.31,0,0,0,1227.26,429.79Z" transform="translate(-454.79 -27.08)"/><path class="cls-5" d="M1111.95,612.26a503.8,503.8,0,0,0,54.25-13.49c43.09-13.31,55-23.39,60.07-28.2a93.59,93.59,0,0,0,20.54-28.81,234.52,234.52,0,0,0,151.41,25.13c3.25,17.13,7.11,51-6.44,89.5-5.37,15.24-18.36,52.14-55.78,76.63-24.31,15.91-47.64,19.2-57.93,20.54-10.87,1.41-84.12,9.69-132.1-45.06C1112.85,670.71,1111.76,625.69,1111.95,612.26Z" transform="translate(-454.79 -27.08)"/><path class="cls-6" d="M1154.24,756c11.61,8.53,48.75,33.58,102.37,33a171.51,171.51,0,0,0,100.53-34.25,257.5,257.5,0,0,1,80.3,63.75c72.47,86.78,61.33,194.11,58.24,218.23a22.24,22.24,0,0,1-14.71,15.94l-450.56-.61a21.4,21.4,0,0,1-14.71-16.86c-.65-10.85-1.21-26.15-.61-44.44,1.17-36,2.15-66.15,14-100,20.72-59,62.27-94.55,80.66-108.39A236.51,236.51,0,0,1,1154.24,756Z" transform="translate(-454.79 -27.08)"/><rect class="cls-3" x="471.94" y="165.98" width="300.94" height="14.69"/><path class="cls-7" d="M931.68,106.82" transform="translate(-454.79 -27.08)"/><path class="cls-7" d="M951.22,106.82" transform="translate(-454.79 -27.08)"/><path class="cls-7" d="M965.38,106.82" transform="translate(-454.79 -27.08)"/><path class="cls-7" d="M876.33,92.12" transform="translate(-454.79 -27.08)"/><polyline class="cls-3" points="378.38 80.83 228.02 80.83 228.02 66.13 383.96 66.13"/><polyline class="cls-3" points="378.81 111.94 228.34 111.94 228.34 97.24 378.81 97.24"/><path class="cls-7" d="M839.6,134" transform="translate(-454.79 -27.08)"/><path class="cls-7" d="M840.52,134" transform="translate(-454.79 -27.08)"/><polyline class="cls-3" points="378.81 141.64 228.34 141.64 228.34 126.94 378.81 126.94"/></svg>