<svg id="Backup-2" xmlns="http://www.w3.org/2000/svg" viewBox="0 0 1607.49 1023.26"><defs><style>.cls-1,.cls-3,.cls-4,.cls-5,.cls-6{fill:none;stroke-miterlimit:10;}.cls-1,.cls-3,.cls-5,.cls-6{stroke:#000;}.cls-1,.cls-4,.cls-5{stroke-linecap:round;}.cls-1{stroke-width:35px;}.cls-2{fill:red;}.cls-3{stroke-width:15px;}.cls-4{stroke:#29abe2;}.cls-4,.cls-5{stroke-width:30px;}.cls-6{stroke-width:4px;}.cls-7{fill:#ed1c24;}.cls-8{fill:#2e3192;}.cls-9{fill:#f7931e;}</style></defs><title>backup-color</title><path class="cls-1" d="M540.76,594.09c85.56,26.41,145.52,96.84,152.31,176.4,8.85,103.69-77.21,169.35-88.25,177.48-97.05,71.51-251.11,52.43-337.57-38.84-99.59-105.12-60-253.83-55.74-269,46.75-164.8,217.39-213.31,226.85-215.83C439,401,447.39,202.4,604.87,94c153-105.36,383-81.68,542.05,72,25.91-16.37,95.6-55.26,182.86-42.39,22.31,3.29,57.21,11.28,92.2,35.71,62.73,43.81,93,118.09,63.2,182.63,28.67-2.7,97.9-5.11,164.56,36.4,96.79,60.29,140.89,183.76,116.18,291.41-24.2,105.44-106,159.1-119.35,167.55-80,50.65-160.26,42.87-182.5,40" transform="translate(-182.67 -12.01)"/><path class="cls-2" d="M1445.24,259.39H1626.3c8.72,2,15.32,7.87,17,15,2.1,9.1-4.82,15.84-5.66,16.62l-67,102.12c-2.23,3.4-6.44,10.75-3.77,16.62,1.93,4.26,6.79,6.16,11.71,7.49,16.43,4.45,34.79,2.89,48,.67,5.31-3.74,12.25-2.94,15.84,1,4.28,4.74,3.45,13.6-3.13,18L1360.87,667.32,1437,475.58c.37-.69,4.72-9.15.12-17.9-4.9-9.32-15.31-10.09-15.84-10.12a239.11,239.11,0,0,1-42.45-1.49c-11.56-1.46-17.19-3.08-19.55-7.67-3.43-6.67,2.12-15.61,3.54-17.78Z" transform="translate(-182.67 -12.01)"/><path class="cls-3" d="M805.63,542.7l564.5-3.93L1321.78,657.2l-511.83,3c-30.31-.92-55.05-23.25-58.75-50.78C747,578.05,771,546.65,805.63,542.7Z" transform="translate(-182.67 -12.01)"/><path class="cls-3" d="M808,708c298.81-5,423.92-5.39,480.63-4.64,15.66.21,77,1.18,159.35-.73,28.77-.67,52.06-1.5,66.12-2,32.52.36,58.84,27.23,58.67,59.2-.17,31.24-25.57,57.48-57.33,58.55L805,819.51c-30.85-2-54.4-28.72-52.78-58.75C753.76,731.84,778.21,708.31,808,708Z" transform="translate(-182.67 -12.01)"/><path d="M875.93,935.65c-1.45,1-13.09,9.6-13.85,25.1-.83,16.82,11.86,26.84,13,27.7h226.78a64.47,64.47,0,0,0,122.91,3.46l225.05-2.6c1.67-1.42,12.81-11.24,13-27.7.17-16.23-10.46-26.2-12.12-27.7l-229.38-1.73a30.67,30.67,0,0,1-20.77-8.66c-9.79-9.73-8.82-22.48-8.66-24.24V862.08a29.9,29.9,0,0,0-58,4.33l-1.73,38.09a27.37,27.37,0,0,1-6.06,18.18c-8.69,10.46-22,9.63-23.37,9.52Z" transform="translate(-182.67 -12.01)"/><path class="cls-4" d="M638.8,235.9c6.11-11.82,35.94-66.47,103.11-89.26,57.29-19.44,106.21-3.64,120.73,1.66" transform="translate(-182.67 -12.01)"/><polyline class="cls-5" points="362.07 707.19 330.44 557.83 467.5 524.96"/><rect class="cls-6" x="635.75" y="574.3" width="379.13" height="27.11" rx="9.09" ry="9.09"/><rect class="cls-6" x="639.73" y="735.97" width="375.15" height="27.11" rx="9.04" ry="9.04"/><circle class="cls-7" cx="1080.72" cy="586.17" r="10.21"/><circle class="cls-7" cx="1080.9" cy="748.03" r="10.21"/><circle class="cls-8" cx="1116.11" cy="748.03" r="10.21"/><circle class="cls-8" cx="1115.93" cy="586.17" r="10.21"/><circle class="cls-9" cx="1149.64" cy="748.03" r="10.21"/><circle class="cls-9" cx="1320.65" cy="748.03" r="30.32"/></svg>