<svg id="Backup" xmlns="http://www.w3.org/2000/svg" viewBox="0 0 889.11 938.31"><defs><style>.cls-1,.cls-2,.cls-3,.cls-4,.cls-5,.cls-6{fill:none;stroke-miterlimit:10;}.cls-1,.cls-3,.cls-5,.cls-6{stroke:#000;}.cls-1,.cls-4,.cls-5{stroke-linecap:round;}.cls-1{stroke-width:12px;}.cls-2{stroke:#ed1c24;}.cls-2,.cls-3,.cls-5{stroke-width:8px;}.cls-4{stroke:#29abe2;stroke-width:15px;}.cls-6{stroke-width:4px;}.cls-7{fill:#ed1c24;}.cls-8{fill:#2e3192;}.cls-9{fill:#f7931e;}</style></defs><title>backup</title><path class="cls-1" d="M952.32,386.64c11.79,23.74,13,51.55,3.28,75.09s-32.81,46-63.19,48.15c-93.57,4.28-185.92,5.35-278.28,3.21a83.14,83.14,0,0,1-21-6.82c-40.26-19.41-60.45-70.52-58.74-108.23,2.52-55.87,54.32-109.4,127.44-121.25.35-13.1,5.08-124.67,93.54-185.59,86-59.19,215.17-45.89,304.51,40.45,14.55-9.2,53.7-31,102.72-23.82a120,120,0,0,1,51.8,20.06c35.24,24.61,52.25,66.34,35.5,102.59,16.11-1.52,55-2.87,92.44,20.45,54.37,33.87,79.15,103.23,65.27,163.7-13.59,59.23-59.55,89.38-67,94.13-44.92,28.45-90,24.08-102.52,22.45" transform="translate(-528.33 -49)"/><path class="cls-2" d="M1151.09,272.65h160.17c7.71,1.79,13.55,7,15,13.31,1.85,8.05-4.26,14-5,14.71L1262,391c-1,1.19-6.91,8.76-3.34,14.71,1.52,2.54,4.19,5.6,9.18,5.6h53.39c2,.91,6.62,3.29,8.34,7.7,2.55,6.54-2.18,15.09-12.38,19.71L1062.66,666.23l59.23-155.47c6-4.39,6.71-11.62,2.5-16.11-3.31-3.52-9.34-5-15-3.5h-46.72c-.73.16-9.49,2-15.85-2.8-5.81-4.36-7.13-12.34-2.5-18.91Z" transform="translate(-528.33 -49)"/><path class="cls-3" d="M691,543.73l378-.18-18.5,49.8-29.87,76.85-325.94,4.14c-4.17,0-28.12-.56-46.19-20-.73-.78-15.87-17-16.52-39.54C631.07,585.8,654.63,556.51,691,543.73Z" transform="translate(-528.33 -49)"/><path class="cls-3" d="M697.8,699.11l319-4,110.07-.8,49-2.41c6.62,1,24.12,4.31,38.79,17.12a55.2,55.2,0,0,1,19.4,41.57c.09,16-7.55,27.57-12.61,35.05-15.21,22.5-37.57,32-47.94,35.61l-479.63,4c-33.4-6.4-56.21-37-53.09-69.07C643.54,727,667.26,702.83,697.8,699.11Z" transform="translate(-528.33 -49)"/><path d="M720.45,908.3c-1.15.82-10.38,7.61-11,19.91-.66,13.34,9.41,21.29,10.3,22H899.63a51.13,51.13,0,0,0,97.48,2.75l178.49-2.06c1.32-1.13,10.16-8.92,10.3-22a30.09,30.09,0,0,0-9.61-22l-181.92-1.37a24.32,24.32,0,0,1-16.48-6.86c-7.76-7.71-7-17.83-6.86-19.22V850a23.71,23.71,0,0,0-46,3.43l-1.37,30.21A21.71,21.71,0,0,1,918.85,898c-6.89,8.3-17.47,7.64-18.54,7.55Z" transform="translate(-528.33 -49)"/><path class="cls-4" d="M725.32,276.2c-.56-8.89-2.25-50.54,28.47-86.75,26.2-30.89,59.73-38.66,69.89-40.62" transform="translate(-528.33 -49)"/><polyline class="cls-5" points="367.85 415.97 422.61 329.66 503.61 378.07"/><rect class="cls-6" x="171.67" y="550.88" width="253.82" height="18.15" rx="6.09" ry="6.09"/><rect class="cls-6" x="171.67" y="705.58" width="253.82" height="18.15" rx="6.09" ry="6.09"/><circle class="cls-7" cx="462.86" cy="558.82" r="6.84"/><circle class="cls-7" cx="462.86" cy="714.65" r="6.84"/><circle class="cls-8" cx="486.43" cy="714.65" r="6.84"/><circle class="cls-8" cx="486.43" cy="558.82" r="6.84"/><circle class="cls-9" cx="508.88" cy="714.65" r="6.84"/><circle class="cls-9" cx="623.38" cy="714.65" r="20.3"/></svg>