<svg id="businessInfrastructure-2" xmlns="http://www.w3.org/2000/svg" viewBox="0 0 1031.34 1053.2"><defs><style>.cls-1,.cls-10,.cls-11,.cls-12,.cls-13,.cls-14,.cls-2,.cls-3,.cls-4,.cls-5,.cls-6,.cls-7,.cls-8,.cls-9{fill:none;stroke-miterlimit:10;}.cls-1,.cls-10,.cls-9{stroke:#f7931e;}.cls-1,.cls-11,.cls-12,.cls-13{stroke-width:15px;}.cls-11,.cls-14,.cls-2,.cls-3,.cls-4{stroke:#000;}.cls-2{stroke-width:25px;}.cls-3,.cls-5,.cls-7,.cls-9{stroke-width:20px;}.cls-10,.cls-4,.cls-6,.cls-8{stroke-width:12px;}.cls-13,.cls-5,.cls-6{stroke:#fcee21;}.cls-12,.cls-7,.cls-8{stroke:#ed1c24;}.cls-14{stroke-width:30px;}</style></defs><title>businessinfrastructure-color</title><line class="cls-1" x1="514.67" y1="279.86" x2="515.19" y2="212.18"/><path class="cls-2" d="M973.42,772.68l.32-238.53L1177,417.21,973.74,534.14,762.82,417.21" transform="translate(-458.75 -16.54)"/><path class="cls-3" d="M557.91,281.85l-87.29,50.07-1.76,100.72,89.05,46.62,84.95-47.2-.59-100.15Z" transform="translate(-458.75 -16.54)"/><path class="cls-4" d="M557.91,479.27,558,380.4l84.23-48.47L558,380.4l-87.42-48.47" transform="translate(-458.75 -16.54)"/><path class="cls-5" d="M557.91,594.94,470.62,645l-1.76,100.72,89.05,46.62,84.95-47.2L642.27,645Z" transform="translate(-458.75 -16.54)"/><path class="cls-6" d="M557.91,792.36l.13-98.87L642.27,645,558,693.48,470.62,645" transform="translate(-458.75 -16.54)"/><path class="cls-3" d="M971.94,861,884.65,911l-1.76,100.72,89.05,46.62,84.95-47.2L1056.3,911Z" transform="translate(-458.75 -16.54)"/><path class="cls-4" d="M971.94,1061.56l.13-98.87,84.23-48.47-84.23,48.47-87.42-48.47" transform="translate(-458.75 -16.54)"/><path class="cls-7" d="M1395.11,594.94,1307.82,645l-1.76,100.72,89.05,46.62,84.95-47.2L1479.48,645Z" transform="translate(-458.75 -16.54)"/><path class="cls-8" d="M1395.11,792.36l.13-98.87L1479.48,645l-84.23,48.47L1307.82,645" transform="translate(-458.75 -16.54)"/><path class="cls-3" d="M1384.31,281.85,1297,331.92l-1.76,100.72,89.05,46.62,84.95-47.2-.59-100.15Z" transform="translate(-458.75 -16.54)"/><path class="cls-4" d="M1384.31,479.27l.13-98.87,84.23-48.47-84.23,48.47L1297,331.92" transform="translate(-458.75 -16.54)"/><path class="cls-9" d="M974.85,28.11,887.56,78.19,885.8,178.91l89.05,46.62,84.95-47.2-.59-100.15Z" transform="translate(-458.75 -16.54)"/><path class="cls-10" d="M970.53,228.71l.13-98.87,84.23-48.47-84.23,48.47L883.23,81.37" transform="translate(-458.75 -16.54)"/><path class="cls-11" d="M646.45,382l53.71-1.85,62.66,37" transform="translate(-458.75 -16.54)"/><path class="cls-11" d="M1292.25,386.81,1238.54,385l-62.66,37" transform="translate(-458.75 -16.54)"/><path class="cls-12" d="M1300.4,691.72l-53.71,1.85-62.66-37" transform="translate(-458.75 -16.54)"/><path class="cls-13" d="M644.65,691.72l53.71,1.85,62.66-37" transform="translate(-458.75 -16.54)"/><line class="cls-11" x1="516.08" y1="759.84" x2="515.61" y2="843.16"/><path class="cls-14" d="M977.66,296.4l-210.6,120.8-4.24,243L977.66,772.68l204.95-113.86-1.41-241.61Z" transform="translate(-458.75 -16.54)"/></svg>