<svg id="cxo-1" xmlns="http://www.w3.org/2000/svg" viewBox="0 0 1053.37 934.67"><defs><style>.cls-1,.cls-2,.cls-3,.cls-4{fill:none;stroke-miterlimit:10;}.cls-1{stroke:#2e3192;}.cls-1,.cls-3{stroke-width:8px;}.cls-2{stroke:#ed1c24;}.cls-2,.cls-4{stroke-width:10px;}.cls-3{stroke:#000;}.cls-4{stroke:#f7931e;}</style></defs><title>cxodashboard</title><polyline class="cls-1" points="32.5 365.73 204.57 203.99 292.28 284.86 380 187.12 423.86 224.23 538.57 112.89 595.92 173.62 656.65 112.89 683.64 143.26 801.72 48.79 859.08 96.03 963.66 8.31 965.1 45.27 965.1 7.06 919.95 7.06"/><rect class="cls-2" x="970.09" y="51.46" width="78.28" height="878.21"/><rect class="cls-3" x="870.06" y="291.2" width="78.28" height="638.48"/><rect class="cls-3" x="772.27" y="594.53" width="75.83" height="335.14"/><rect class="cls-3" x="677.13" y="623.89" width="75.83" height="303.34"/><rect class="cls-3" x="581.99" y="535.82" width="75.83" height="391.4"/><rect class="cls-4" x="485.53" y="198.24" width="78.38" height="728.99"/><rect class="cls-3" x="390.58" y="477.11" width="75.4" height="450.12"/><rect class="cls-2" x="290.55" y="320.55" width="78.28" height="606.68"/><rect class="cls-3" x="196.93" y="648.35" width="70.42" height="278.88"/><polyline class="cls-3" points="173.85 594.53 98.02 594.53 98.02 927.23 173.85 927.23 173.85 923.46 173.85 590.77"/><rect class="cls-3" x="4" y="746.2" width="73.39" height="181.02"/></svg>