<svg id="Data_center-2" data-name="Data center-2" xmlns="http://www.w3.org/2000/svg" viewBox="0 0 1379.33 1053.09"><defs><style>.cls-1,.cls-2,.cls-3{fill:none;stroke-miterlimit:10;}.cls-1,.cls-3{stroke:#000;}.cls-1,.cls-2{stroke-linecap:round;}.cls-1{stroke-width:35px;}.cls-2{stroke:#29abe2;stroke-width:30px;}.cls-3{stroke-width:15px;}.cls-4{fill:#ccc;}.cls-5{fill:#ffc306;}.cls-6{fill:blue;}.cls-7{fill:#ed1c24;}.cls-8{fill:#85647b;}</style></defs><title>datacenter-color</title><path class="cls-1" d="M650.08,794.36c-42.39,1.34-83.73,2.49-126.21,3.64-70,1.15-138.94,0-209-1.15a198.61,198.61,0,0,1-65.45-25.26,248.86,248.86,0,0,1-37.85-27.43,228.85,228.85,0,0,1-37.94-43.76c-7-13.35-62.84-124.44-11.48-222.76,23.43-44.86,61.94-73.2,73.49-81.53a264.16,264.16,0,0,1,159.61-49.38,2.47,2.47,0,0,0,2.3-2.3,287.72,287.72,0,0,1,4.59-51.67,278.09,278.09,0,0,1,20.67-66.6c14.6-31.34,31.87-51.45,47.08-68.9,0,0,29.14-33.44,64.3-58.56C635.84,26.08,799,20.39,881,55.07,923.28,73,954.47,99.85,954.47,99.85c12.63,11.48,24.11,21.82,34.45,35.6,12.63,18.37,25.26,33.3,35.6,52.82,50.6-73.86,141.55-106,221.23-80.38,65.57,21.08,114.86,78.49,129.06,148.82a197.48,197.48,0,0,1-6.89,94.73c19.33,13,76.26,55,103.34,134.34,3.21,9.4,27.83,84.63,2.23,164.1a217,217,0,0,1-13.78,33.3c-9.27,17.78-33.31,57.56-81.53,85a207.49,207.49,0,0,1-79.71,25.68" transform="translate(-123.17 -16.98)"/><path class="cls-2" d="M513,302c-.06-8.77.62-49.81,32.84-83.69,27.49-28.9,60.88-34.66,71-36" transform="translate(-123.17 -16.98)"/><path d="M729.61,988.43c-1.23.85-11.1,7.86-11.75,20.57-.7,13.78,10.06,22,11,22.7h192.4c6.57,21.79,26.73,37.21,49.94,38.3,24,1.13,46.23-13.32,54.34-35.47l190.93-2.13c1.42-1.17,10.87-9.21,11-22.7.14-13.3-8.88-21.47-10.28-22.7l-194.6-1.42A26.55,26.55,0,0,1,1005,978.5c-8.3-8-7.48-18.42-7.34-19.86v-30.5a25.58,25.58,0,0,0-49.2,3.55L947,962.9a21.9,21.9,0,0,1-5.14,14.9c-7.37,8.57-18.69,7.89-19.83,7.8Z" transform="translate(-123.17 -16.98)"/><rect class="cls-3" x="554.11" y="673.6" width="587.92" height="89.65" rx="28.34" ry="28.34"/><circle class="cls-4" cx="1076.74" cy="719.16" r="21.75"/><rect class="cls-3" x="551.07" y="550.86" width="587.92" height="89.65" rx="28.34" ry="28.34"/><circle class="cls-4" cx="1075.75" cy="596.42" r="21.75"/><rect class="cls-3" x="553.05" y="428.91" width="587.92" height="89.65" rx="28.34" ry="28.34"/><circle class="cls-4" cx="1074.76" cy="474.47" r="21.75"/><path class="cls-2" d="M225.7,578.28c-.24-8.77-.42-49.81,31.1-84.36C283.68,464.46,316.95,458,327,456.44" transform="translate(-123.17 -16.98)"/><circle class="cls-5" cx="862.29" cy="474.52" r="6.4"/><circle class="cls-6" cx="886.97" cy="474.52" r="6.4"/><circle class="cls-7" cx="910.71" cy="474.28" r="6.4"/><circle class="cls-5" cx="861.82" cy="596.67" r="6.4"/><circle class="cls-6" cx="886.5" cy="596.67" r="6.4"/><circle class="cls-7" cx="911.18" cy="596.67" r="6.4"/><circle class="cls-5" cx="860.43" cy="718.45" r="6.4"/><circle class="cls-6" cx="885.12" cy="718.45" r="6.4"/><circle class="cls-7" cx="909.8" cy="718.45" r="6.4"/><rect class="cls-8" x="583.32" y="463.24" width="247.31" height="23.69" rx="3.47" ry="3.47"/><rect class="cls-8" x="582.41" y="585.19" width="247.31" height="23.69" rx="3" ry="3"/><rect class="cls-8" x="582.41" y="707.19" width="247.31" height="23.69" rx="3.52" ry="3.52"/><rect class="cls-3" x="557.35" y="793.79" width="587.92" height="89.65" rx="28.34" ry="28.34"/><circle class="cls-4" cx="1079.98" cy="839.36" r="21.75"/><circle class="cls-5" cx="864.58" cy="838.64" r="6.4"/><circle class="cls-6" cx="889.26" cy="838.64" r="6.4"/><circle class="cls-7" cx="913.95" cy="838.64" r="6.4"/><rect class="cls-8" x="586.56" y="827.39" width="247.31" height="23.69" rx="3.52" ry="3.52"/></svg>