<svg id="Data_center" data-name="Data center" xmlns="http://www.w3.org/2000/svg" viewBox="0 0 1444.27 894.2"><defs><style>.cls-1,.cls-2,.cls-3,.cls-9{fill:none;stroke-miterlimit:10;}.cls-1,.cls-3,.cls-9{stroke:#000;}.cls-1,.cls-2{stroke-linecap:round;}.cls-1{stroke-width:16px;}.cls-2{stroke:#29abe2;stroke-width:15px;}.cls-3{stroke-width:6px;}.cls-4{fill:#ed1c24;}.cls-5{fill:#f15a24;}.cls-6{fill:#f7931e;}.cls-7{fill:#2e3192;}.cls-8{fill:#ed1e79;}.cls-9{stroke-width:3px;}</style></defs><title>datacenter</title><path class="cls-1" d="M734.51,905.14c-45,1.43-89,2.65-134.09,3.87-74.42,1.22-147.62,0-222-1.22a211,211,0,0,1-69.54-26.84c-9.85-6-24.57-15.15-40.21-29.14a243.14,243.14,0,0,1-40.3-46.5c-7.4-14.18-66.76-132.2-12.2-236.67C241,521,281.93,490.87,294.21,482a280.66,280.66,0,0,1,169.57-52.46,2.62,2.62,0,0,0,2.44-2.44,305.69,305.69,0,0,1,4.88-54.9,295.45,295.45,0,0,1,22-70.76c15.51-33.29,33.86-54.66,50-73.2,0,0,31-35.53,68.32-62.22,108-77.15,281.3-83.2,368.43-46.36,44.93,19,78.08,47.58,78.08,47.58,13.42,12.2,25.62,23.18,36.6,37.82,13.42,19.52,26.84,35.38,37.82,56.12,53.76-78.47,150.39-112.62,235-85.4,69.67,22.4,122,83.4,137.12,158.11a209.81,209.81,0,0,1-7.32,100.64c20.54,13.85,81,58.48,109.79,142.73,3.41,10,29.56,89.92,2.37,174.34A230.54,230.54,0,0,1,1594.69,787c-9.84,18.89-35.39,61.15-86.62,90.28a220.45,220.45,0,0,1-84.68,27.28" transform="translate(-185.29 -89.82)"/><path class="cls-2" d="M557.34,387.19c-.07-10.84.76-61.55,40.58-103.41,34-35.71,75.23-42.83,87.71-44.51" transform="translate(-185.29 -89.82)"/><path d="M753.06,871c-1.65,1.17-14.84,10.88-15.71,28.47-.94,19.07,13.45,30.45,14.73,31.42H1009.3a73.12,73.12,0,0,0,139.41,3.93L1404,931.9c1.89-1.61,14.53-12.75,14.73-31.42.19-18.4-11.87-29.72-13.74-31.42l-260.17-2a34.78,34.78,0,0,1-23.56-9.82c-11.1-11-10-25.49-9.82-27.49V787.58a33.91,33.91,0,0,0-65.78,4.91l-2,43.2a31,31,0,0,1-6.87,20.62c-9.85,11.86-25,10.92-26.51,10.8Z" transform="translate(-185.29 -89.82)"/><rect class="cls-3" x="534.37" y="542.37" width="726.45" height="110.77" rx="35.01" ry="35.01"/><circle class="cls-4" cx="1179.02" cy="598.66" r="26.87"/><rect class="cls-3" x="529.49" y="403.3" width="726.45" height="110.77" rx="35.01" ry="35.01"/><circle class="cls-5" cx="1177.8" cy="459.6" r="26.87"/><rect class="cls-3" x="531.93" y="259.35" width="726.45" height="110.77" rx="35.01" ry="35.01"/><circle class="cls-6" cx="1176.58" cy="315.65" r="26.87"/><path class="cls-2" d="M273.29,674.32c-.07-10.84.76-61.55,40.58-103.41,34-35.71,75.23-42.83,87.71-44.51" transform="translate(-185.29 -89.82)"/><circle class="cls-7" cx="914.05" cy="315.71" r="7.91"/><circle class="cls-7" cx="944.55" cy="315.71" r="7.91"/><circle class="cls-8" cx="973.87" cy="315.41" r="7.91"/><circle class="cls-7" cx="913.46" cy="459.9" r="7.91"/><circle class="cls-7" cx="943.96" cy="459.9" r="7.91"/><circle class="cls-8" cx="974.46" cy="459.9" r="7.91"/><circle class="cls-7" cx="912.88" cy="597.78" r="7.91"/><circle class="cls-7" cx="943.37" cy="597.78" r="7.91"/><circle class="cls-8" cx="973.87" cy="597.78" r="7.91"/><rect class="cls-9" x="569.34" y="301.77" width="305.58" height="29.28" rx="4.29" ry="4.29"/><rect class="cls-9" x="568.22" y="445.72" width="305.58" height="29.28" rx="3.7" ry="3.7"/><rect class="cls-9" x="569.34" y="583.88" width="305.58" height="29.28" rx="4.34" ry="4.34"/></svg>