<svg id="DLP-2" xmlns="http://www.w3.org/2000/svg" viewBox="0 0 790.09 865.08"><defs><style>.cls-1,.cls-2{fill:none;}.cls-1,.cls-3{stroke:#000;}.cls-1,.cls-2,.cls-3{stroke-miterlimit:10;}.cls-1{stroke-width:30px;}.cls-2{stroke:#f15a24;stroke-width:15px;}.cls-3{fill:#fff;stroke-width:25px;}.cls-4{fill:#ed1c24;}</style></defs><title>dlp-color</title><path class="cls-1" d="M892.34,76.08,560.76,200.19C552.78,248.44,503.53,577.08,721,793c57,56.59,119.35,92.55,174.13,115.78,58.82-28.11,147.52-81.08,222.29-176.9C1289,512,1245.1,248.54,1236,199.27Z" transform="translate(-535.41 -60.11)"/><ellipse class="cls-2" cx="361.4" cy="256.65" rx="192.58" ry="55.8"/><path class="cls-2" d="M739.91,738.08" transform="translate(-535.41 -60.11)"/><path class="cls-2" d="M704.22,316.76l2.88,222.57.92,71.24c26.44,17.41,92.76,56,186,58.06,98.14,2.18,168.92-37.41,195.5-54.13q0-148.87-.09-297.74" transform="translate(-535.41 -60.11)"/><path class="cls-2" d="M705.08,524.74a417.14,417.14,0,0,0,384.38.42" transform="translate(-535.41 -60.11)"/><path class="cls-2" d="M705.56,420a405.09,405.09,0,0,0,185.06,47.54,405.7,405.7,0,0,0,198.8-49.65" transform="translate(-535.41 -60.11)"/><ellipse class="cls-3" cx="588.75" cy="628.59" rx="188.84" ry="188.86"/><path class="cls-4" d="M1196.17,658.28h-14.79V605.21a36.19,36.19,0,0,0-36.15-36.15h-45.14A35.13,35.13,0,0,0,1065,604.15v54.13h-11.46A21.58,21.58,0,0,0,1032,679.8v97A20.18,20.18,0,0,0,1052.15,797h144.2A20,20,0,0,0,1216.29,777V678.41A20.18,20.18,0,0,0,1196.17,658.28Zm-65.22,82.26V760a7.27,7.27,0,1,1-14.55,0V740.55a12.12,12.12,0,1,1,14.55,0Zm31-82.26H1084.4V604.15a15.71,15.71,0,0,1,15.69-15.69h45.14A16.77,16.77,0,0,1,1162,605.21Z" transform="translate(-535.41 -60.11)"/></svg>