<svg id="business_infrastructure" data-name="business infrastructure" xmlns="http://www.w3.org/2000/svg" viewBox="0 0 754.43 936.66"><defs><style>.cls-1,.cls-2,.cls-3,.cls-4,.cls-5{fill:none;stroke-miterlimit:10;}.cls-1{stroke:#f15a24;stroke-width:8px;}.cls-2{stroke:#f7931e;}.cls-2,.cls-4{stroke-width:10px;}.cls-3,.cls-4,.cls-5{stroke:#000;}.cls-3{stroke-linecap:round;stroke-width:4px;}.cls-5{stroke-width:6px;}</style></defs><title>infra</title><polygon class="cls-1" points="408.57 110.79 416.56 105.51 569.32 4.74 743.54 110.79 576.05 213.05 408.57 110.79"/><polygon class="cls-1" points="400.27 135.66 400.27 341.05 560.2 428.59 560.2 236.67 400.27 135.66"/><polygon class="cls-1" points="588.82 424.06 588.82 238.88 750.43 141.24 750.43 333.15 588.82 424.06"/><path class="cls-2" d="M506.66,451.68l161.92-94,175.85,94L675.54,561.37,501,456Z" transform="translate(-492.15 -81.88)"/><polygon class="cls-2" points="8.85 397.83 8.85 599.85 173.83 694.12 173.83 497.15 8.85 397.83"/><polygon class="cls-2" points="200.76 694.12 200.76 495.47 364.06 397.83 364.06 594.79 200.76 694.12"/><polygon class="cls-3" points="393.52 392.78 390.99 592.27 544.19 498.84 393.52 392.78"/><polygon class="cls-4" points="6.32 633.51 171.3 722.74 171.3 928.12 6.32 835.53 6.32 633.51"/><path class="cls-4" d="M692.91,804.62l170-94.27V902.26l-170,102.69V804.62Z" transform="translate(-492.15 -81.88)"/><polygon class="cls-5" points="393.52 620.05 561.02 519.04 561.02 717.69 393.52 813.64 393.52 620.05"/></svg>