<svg xmlns="http://www.w3.org/2000/svg" viewBox="0 0 1153.08 1011.77"><defs><style>.cls-1{fill:#cce9ff;}.cls-1,.cls-6,.cls-7{stroke:#000;}.cls-1,.cls-2,.cls-3,.cls-4,.cls-5,.cls-6,.cls-7{stroke-linecap:round;stroke-linejoin:round;}.cls-1,.cls-7{stroke-width:25px;}.cls-2,.cls-6{fill:none;}.cls-2,.cls-3{stroke:#fff;}.cls-2,.cls-3,.cls-4,.cls-5,.cls-6{stroke-width:30px;}.cls-3{fill:#00dfe9;}.cls-4{fill:#fff;}.cls-4,.cls-5{stroke:#3fa9f5;}.cls-5{fill:#65baf7;}.cls-7{fill:#8ccbf9;}</style></defs><title>Asset 1</title><g id="Layer_2" data-name="Layer 2"><g id="Layer_2-2" data-name="Layer 2"><path class="cls-1" d="M706.44,647.88a383.55,383.55,0,0,0,9.42-94.31c-.82-32-7.36-126.86-136.63-309.88a1571.76,1571.76,0,0,0-197.88-229C355.61,37.19,321,68.92,282.41,109c-31.67,32.85-93.61,97.11-146.06,175.15C62.86,393.47,2.6,483.13,13.86,598.48,26.22,725.11,117.27,805.74,126.93,814c169.61,145.62,430.79,64.27,490,8.63,34.32-32.24,56.5-71.5,56.5-71.5A288,288,0,0,0,697,697.28"/><path class="cls-2" d="M615.45,662.5a220.91,220.91,0,0,1-23.56,49.4,228.38,228.38,0,0,1-37.69,44.91"/><path class="cls-3" d="M320.9,190.21C308.62,202.52,296,216,283.21,230.63c-12.06,13.84-23,27.38-33,40.42"/><path class="cls-4" d="M780,218.49V479.22"/><line class="cls-5" x1="964.43" y1="224.85" x2="964.43" y2="352.04"/><path class="cls-6" d="M869,15V428.35"/><path class="cls-6" d="M684.63,104V333"/><path class="cls-7" d="M1134.94,834.2a285.52,285.52,0,0,0,5.57-62.71c-.48-21.31-4.35-84.36-80.81-206a1022.48,1022.48,0,0,0-117-152.3c-15.22,15-35.69,36.08-58.52,62.71-18.73,21.84-55.36,64.57-86.38,116.46-43.47,72.71-79.11,132.34-72.45,209,7.31,84.2,61.16,137.82,66.87,143.34,100.31,96.83,254.78,42.74,289.81,5.74,20.3-21.44,33.41-47.54,33.41-47.54A204.64,204.64,0,0,0,1129.36,867"/><path class="cls-2" d="M1064.93,721.43A118.57,118.57,0,0,1,1069,823.1"/></g></g></svg>