<svg id="consultingsoftware_-2" data-name="consultingsoftware -2" xmlns="http://www.w3.org/2000/svg" viewBox="0 0 1133.94 1043.84"><defs><style>.cls-1,.cls-2,.cls-3,.cls-4,.cls-5,.cls-6,.cls-7{fill:none;stroke-miterlimit:10;}.cls-1,.cls-3,.cls-4,.cls-5,.cls-6{stroke:#000;}.cls-1{stroke-width:30px;}.cls-2{stroke:#ed1e79;}.cls-2,.cls-4,.cls-6,.cls-7{stroke-width:25px;}.cls-5,.cls-6{stroke-linecap:round;}.cls-5{stroke-width:20px;}.cls-7{stroke:#f15a24;}</style></defs><title>softwareconsulting-color</title><circle class="cls-1" cx="131.52" cy="131.52" r="116.52"/><circle class="cls-1" cx="1002.42" cy="131.52" r="116.52"/><path class="cls-1" d="M585.72,368.29l-2.1,324.94,169.08,5.12c4.08-.31,32.43-2,52.78,19.5A63.79,63.79,0,0,1,821.87,752l1.79,242.54a66.71,66.71,0,0,1-130.93-3.28l1.06-157.14-187-5.12c-6.5-.95-21.76-4.11-34.91-16.65-23.25-22.16-19.39-54-18.89-57.65l4.09-385.28c2.45-34.11,31.24-60.62,64.9-60.35C554.82,309.35,582.75,335.05,585.72,368.29Z" transform="translate(-389.13 -18.08)"/><path class="cls-1" d="M1323.39,368.29l2.1,324.94-169.08,5.12c-4.08-.31-32.43-2-52.78,19.5A63.79,63.79,0,0,0,1087.25,752l-1.79,242.54a66.71,66.71,0,0,0,130.93-3.28l-1.06-157.14,187-5.12c6.5-.95,21.76-4.11,34.91-16.65,23.25-22.16,19.39-54,18.89-57.65l-4.09-385.28c-2.45-34.11-31.24-60.62-64.9-60.35C1354.29,309.35,1326.36,335.05,1323.39,368.29Z" transform="translate(-389.13 -18.08)"/><path class="cls-2" d="M885.7,487.61v-187A12.53,12.53,0,0,1,898,289.3l350.93-.08a16.19,16.19,0,0,1,7.78,4.35,16,16,0,0,1,3.6,5.69V487.61a13.15,13.15,0,0,1-10,11.8H1199.4l3,75.83L1094,500.75l-198.11-1.12a16.91,16.91,0,0,1-10.16-12Z" transform="translate(-389.13 -18.08)"/><path class="cls-3" d="M940,293.55" transform="translate(-389.13 -18.08)"/><path class="cls-3" d="M958,293.55" transform="translate(-389.13 -18.08)"/><path class="cls-4" d="M971.11,293.55" transform="translate(-389.13 -18.08)"/><path class="cls-3" d="M889,280" transform="translate(-389.13 -18.08)"/><path class="cls-3" d="M855.07,318.64" transform="translate(-389.13 -18.08)"/><path class="cls-3" d="M855.91,318.64" transform="translate(-389.13 -18.08)"/><line class="cls-5" x1="702.88" y1="335.54" x2="665.43" y2="424.41"/><path class="cls-5" d="M1024.68,429.65l-46.81-31.59,52.66-26.91" transform="translate(-389.13 -18.08)"/><path class="cls-5" d="M1125.78,433l46.81-31.59-52.66-26.91" transform="translate(-389.13 -18.08)"/><path class="cls-6" d="M707.12,268l140.24,1" transform="translate(-389.13 -18.08)"/><path class="cls-6" d="M707.11,308.6l130.5,1" transform="translate(-389.13 -18.08)"/><path class="cls-7" d="M701.58,491.27l106.18-73.8,37.4-.25c-.8-64.73-.12-113.26.48-134.16.19-6.76.73-19.37,9.56-28.5a33.9,33.9,0,0,1,16.57-9l162.16-1.26C1045.4,234,1049.76,218.13,1045,204c-6.47-19.26-26.27-24.23-27.43-24.5h-330a57.67,57.67,0,0,0-20.45,19.83,58.27,58.27,0,0,0-8.25,34.16c0,86.93-.15,149.4-1.35,162-.21,2.25-1.14,10.13,3.59,15.91A17.69,17.69,0,0,0,670,417h32.63Z" transform="translate(-389.13 -18.08)"/></svg>