<svg xmlns="http://www.w3.org/2000/svg" viewBox="0 0 897.44 974.67"><defs><style>.cls-1,.cls-2,.cls-3,.cls-4,.cls-5,.cls-6,.cls-7,.cls-8{fill:none;stroke-linecap:round;stroke-width:35px;}.cls-1{stroke:#f7931e;}.cls-1,.cls-2{stroke-miterlimit:10;}.cls-2,.cls-3{stroke:#000;}.cls-3,.cls-4,.cls-5,.cls-6,.cls-7,.cls-8{stroke-linejoin:round;}.cls-4,.cls-5{stroke:#3fa9f5;}.cls-4{opacity:0.64;}.cls-6{stroke:#29abe2;}.cls-7{stroke:#f15a24;}.cls-8{stroke:#ff931e;}</style></defs><title>Asset 8</title><g id="Layer_2" data-name="Layer 2"><g id="consulting"><path class="cls-1" d="M567.28,490.83q-2.9,11.67-3.15,11.61t4-20.87"/><path class="cls-2" d="M47.43,862.79c-22.73,34.39-27.94,70.29-29.07,93,16.95.39,42.38.89,73.25,1.16,148.32,1.29,257.63-4.23,293-5.81,87.43-3.9,219.91-5.85,413.93,3.49-2.85-36.73-13.19-77.24-41.86-109.3-32.56-36.4-68.53-39.26-134.87-74.41a605.42,605.42,0,0,1-109.3-74.41c-1-14.56-1.87-30.82-2.33-48.83-.41-16.29-.41-30.48,3.49-50h0A163.52,163.52,0,0,0,543.91,557c2.48-4.74,4.64-9.43,6.51-14"/><path class="cls-2" d="M123.85,797.52q-3.87,2.34-7.81,4.81c-6.32,4-12.08,7.72-17.37,11.34"/><path class="cls-2" d="M153.9,780.67c-9.61,5-19.63,10.55-30.05,16.85"/><path class="cls-2" d="M274.75,729.19c-25.54,14.21-66.57,23.34-120.85,51.47"/><path class="cls-2" d="M404.39,101.22c-20.51-.22-104.7,1.07-146.5,58.14-41.31,56.4-31.81,126.84-25.58,165.11a286.27,286.27,0,0,0,19.77,67.44c-2.86,2.06-26,19.3-26.74,48.83-.19,7.78-1.41,27.06,12.79,38.37,11.21,8.93,25.16,7.51,29.07,7-4.4,25.06-.79,43.85,2.33,54.65,2.63,9.11,5.94,16.17,9.3,23.25a232.09,232.09,0,0,0,25.58,41.86h0c5.1,40.83,1.44,77.25-1.16,88.37-3.89,16.62-13.53,26.68-28.48,35"/><path class="cls-3" d="M661.35,327.94H879.94V122.14"/><path class="cls-4" d="M454.38,268.81v58l103.48,3.49,9.3,98.83,31.27-33.59"/><path class="cls-3" d="M879.94,122.14V17.5L454.38,21V268.81"/><line class="cls-5" x1="557.87" y1="122.14" x2="692.74" y2="122.14"/><line class="cls-6" x1="743.9" y1="122.14" x2="798.55" y2="122.14"/><line class="cls-7" x1="557.87" y1="229.11" x2="611.35" y2="229.11"/><line class="cls-8" x1="659.02" y1="229.11" x2="798.55" y2="229.11"/></g></g></svg>