<svg xmlns="http://www.w3.org/2000/svg" viewBox="0 0 515.81 934.28"><defs><style>.cls-1{fill:#b2ddfb;}.cls-1,.cls-6{stroke:#000;}.cls-1,.cls-2,.cls-3,.cls-4,.cls-5,.cls-6{stroke-linecap:round;stroke-miterlimit:10;stroke-width:25px;}.cls-2,.cls-3,.cls-4,.cls-5,.cls-6{fill:none;}.cls-2{stroke:#666;}.cls-3{stroke:#3fa9f5;}.cls-4{stroke:#f7931e;}.cls-5{stroke:#f15a24;}</style></defs><title>Asset 5</title><g id="Layer_2" data-name="Layer 2"><g id="Deployment"><path class="cls-1" d="M313.79,316.36a57.38,57.38,0,1,0-49.31,56.86"/><path class="cls-1" d="M264.48,373.22a57.09,57.09,0,0,0,8.47-1.86"/><path class="cls-2" d="M86.36,517.37c-12.14,8-48.52,34-65.47,83.85-21.81,64.1,5.18,118.67,10.34,128.64a250.84,250.84,0,0,1,74.66-104.52"/><path class="cls-2" d="M429.44,520.81c12.14,8,48.52,34,65.47,83.85,21.81,64.1-5.18,118.67-10.34,128.64a210.63,210.63,0,0,0-93.83-113.71"/><path class="cls-3" d="M169.06,824"/><path class="cls-3" d="M169.06,771.21"/><line class="cls-3" x1="169.06" y1="747.09" x2="169.06" y2="759.15"/><line class="cls-4" x1="348.25" y1="737.9" x2="347.81" y2="764.72"/><line class="cls-5" x1="255.31" y1="911.14" x2="255.21" y2="921.78"/><line class="cls-5" x1="254.81" y1="885.72" x2="255.31" y2="904.14"/><path class="cls-5" d="M255.52,899.8"/><line class="cls-5" x1="255.81" y1="837.72" x2="255.78" y2="855.64"/><line class="cls-5" x1="256.21" y1="787.12" x2="256.04" y2="805.55"/><line class="cls-5" x1="256.36" y1="796.48" x2="256.81" y2="796.72"/><path class="cls-6" d="M105.89,283.05C141.38,145.74,218.46,57.11,257.51,17.72,297.69,58,356.7,128.45,393,231.36c72.09,204.16,1.62,384.91-19.53,434.17l-78.11-1.15-9.19,64.32-66.62-2.3-20.67-193H310.34L295.41,664.39"/><path class="cls-6" d="M98.21,317"/><path class="cls-6" d="M88.74,372.22a476.23,476.23,0,0,1,5.81-49"/><path class="cls-6" d="M88.74,385.93"/><path class="cls-6" d="M213.86,669l-77-4.59C121,627.68,83.92,531.93,88,407.53"/><line class="cls-3" x1="169.82" y1="792.72" x2="169.81" y2="792.72"/><line class="cls-3" x1="169.81" y1="860.72" x2="169.81" y2="825.72"/><line class="cls-4" x1="347.81" y1="792.72" x2="347.81" y2="807.72"/><line class="cls-4" x1="347.81" y1="899.72" x2="347.81" y2="842.72"/><line class="cls-6" x1="304.81" y1="360.72" x2="313.81" y2="346.72"/></g></g></svg>