<svg xmlns="http://www.w3.org/2000/svg" viewBox="0 0 856.11 968.33"><defs><style>.cls-1,.cls-2,.cls-3,.cls-5,.cls-6,.cls-8,.cls-9{fill:none;}.cls-1,.cls-2{stroke:#000;}.cls-1,.cls-10,.cls-2,.cls-3,.cls-4,.cls-5,.cls-6,.cls-7,.cls-8,.cls-9{stroke-linecap:round;stroke-linejoin:round;}.cls-1{stroke-width:20px;}.cls-10,.cls-2,.cls-3,.cls-4,.cls-5,.cls-6,.cls-7,.cls-8,.cls-9{stroke-width:15px;}.cls-3{stroke:#f15a24;}.cls-4{fill:#ed1c24;stroke:#fbb03b;}.cls-5{stroke:#ff931e;}.cls-6{stroke:#f7931e;}.cls-7{fill:#8585c6;stroke:#0071bc;}.cls-10,.cls-8{stroke:#3fa9f5;}.cls-9{stroke:#29abe2;}.cls-10{fill:#3fa9f5;}</style></defs><title>Asset 4</title><g id="Layer_2" data-name="Layer 2"><g id="Layer_4" data-name="Layer 4"><circle class="cls-1" cx="420.08" cy="94.16" r="84.16"/><circle class="cls-2" cx="126.51" cy="642.7" r="84.16"/><circle class="cls-2" cx="726.13" cy="642.7" r="84.16"/><line class="cls-2" x1="122.86" y1="424.61" x2="122.86" y2="410.48"/><polyline class="cls-3" points="122.86 394.35 122.86 407.29 122.86 410.48 122.86 474.05"/><path class="cls-2" d="M122.86,401.58"/><polyline class="cls-2" points="240.57 250.91 122.86 250.91 122.86 321.54"/><polyline class="cls-2" points="605.48 255.91 725.54 255.91 725.54 418.36"/><path class="cls-2" d="M7.5,956.06l240.13,2.35-4.71-157.73c-3.43-13.47-10.84-32.76-28.25-44.73-13.64-9.37-24.5-8.13-87.11-7.06-52.9.9-61.24.29-75.34,7.06C30.05,766.6,16.89,784.33,9.85,796Z"/><path class="cls-2" d="M608.47,958.47l240.13,2.35L843.9,803.1c-3.43-13.47-10.84-32.76-28.25-44.73-13.64-9.37-24.5-8.13-87.11-7.06-52.9.9-61.24.29-75.34,7.06-22.18,10.65-35.34,28.38-42.38,40Z"/><path class="cls-1" d="M301.78,451.18l240.13,2.59,2.35-176.57c-4.34-14.1-13.3-34.84-33-47.08-17.94-11.18-29.88-6-87.11-7.06-53.93-1-62.48-6-80,2.35-25.81,12.28-38.58,37.87-44.73,54.15Z"/><circle class="cls-4" cx="420.91" cy="647.36" r="62.14"/><circle class="cls-5" cx="420.67" cy="647.11" r="106.23"/><line class="cls-6" x1="419.49" y1="482.02" x2="419.49" y2="496.15"/><line class="cls-3" x1="419.51" y1="522.05" x2="419.49" y2="519.69"/><line class="cls-6" x1="506.6" y1="503.21" x2="497.45" y2="514.84"/><line class="cls-3" x1="480.7" y1="536.17" x2="482.21" y2="534.22"/><line class="cls-6" x1="566.82" y1="562.68" x2="553.39" y2="568.89"/><line class="cls-3" x1="528.78" y1="580.29" x2="531" y2="579.23"/><line class="cls-6" x1="587.57" y1="641.21" x2="572.79" y2="641.84"/><line class="cls-3" x1="545.69" y1="643.01" x2="548.15" y2="642.88"/><line class="cls-6" x1="569.45" y1="725.62" x2="555.83" y2="719.84"/><line class="cls-3" x1="530.85" y1="709.28" x2="533.13" y2="710.22"/><line class="cls-6" x1="510.92" y1="788.37" x2="502.06" y2="776.52"/><line class="cls-3" x1="485.8" y1="754.81" x2="487.3" y2="756.78"/><line class="cls-6" x1="420.96" y1="816.09" x2="420.76" y2="801.3"/><line class="cls-3" x1="420.38" y1="774.18" x2="420.43" y2="776.65"/><line class="cls-6" x1="336.09" y1="792.76" x2="342.62" y2="779.48"/><line class="cls-3" x1="354.57" y1="755.14" x2="353.51" y2="757.36"/><line class="cls-6" x1="273.46" y1="730.98" x2="285.98" y2="723.1"/><line class="cls-3" x1="308.91" y1="708.62" x2="306.84" y2="709.96"/><line class="cls-6" x1="253.78" y1="643.34" x2="268.55" y2="644.14"/><line class="cls-3" x1="295.63" y1="645.59" x2="293.17" y2="645.48"/><line class="cls-6" x1="273.14" y1="563.17" x2="285.87" y2="570.71"/><line class="cls-3" x1="309.23" y1="584.5" x2="307.09" y2="583.27"/><line class="cls-6" x1="328.53" y1="504.93" x2="337.06" y2="517.02"/><line class="cls-3" x1="352.72" y1="539.16" x2="351.28" y2="537.16"/><line class="cls-6" x1="122.86" y1="373.27" x2="122.86" y2="344"/><line class="cls-7" x1="725.54" y1="529.41" x2="725.54" y2="530.44"/><line class="cls-3" x1="725.54" y1="483.09" x2="725.54" y2="466.61"/><line class="cls-8" x1="122.61" y1="497" x2="122.61" y2="510"/><line class="cls-9" x1="122.61" y1="530" x2="122.61" y2="535"/><line class="cls-6" x1="725.61" y1="440" x2="725.61" y2="446"/><line class="cls-10" x1="725.61" y1="503" x2="725.61" y2="511"/></g></g></svg>